<?xml version="1.0" encoding="UTF-8"?>
<svg xmlns="http://www.w3.org/2000/svg" xmlns:xlink="http://www.w3.org/1999/xlink" viewBox="0 0 184.42 201.94">
  <defs>
    <style>
      .cls-1 {
        fill: url(#linear-gradient);
      }

      .cls-1, .cls-2, .cls-3, .cls-4, .cls-5, .cls-6, .cls-7, .cls-8, .cls-9 {
        stroke-width: 0px;
      }

      .cls-2 {
        fill: url(#linear-gradient-2);
      }

      .cls-2, .cls-3, .cls-4 {
        mix-blend-mode: multiply;
        opacity: .6;
      }

      .cls-3 {
        fill: url(#linear-gradient-4);
      }

      .cls-4 {
        fill: url(#linear-gradient-6);
      }

      .cls-5 {
        fill: url(#linear-gradient-3);
      }

      .cls-6 {
        fill: url(#linear-gradient-5);
      }

      .cls-10 {
        isolation: isolate;
      }

      .cls-7 {
        fill: #bfd730;
      }

      .cls-8 {
        fill: #fff;
      }

      .cls-9 {
        fill: #00377b;
      }
    </style>
    <linearGradient id="linear-gradient" x1="-804.39" y1="-3804.96" x2="-876.52" y2="-3680.02" gradientTransform="translate(-3603.41 -1023.81) rotate(120)" gradientUnits="userSpaceOnUse">
      <stop offset=".4" stop-color="#76b043"/>
      <stop offset=".95" stop-color="#bfd730"/>
    </linearGradient>
    <linearGradient id="linear-gradient-2" x1="-4090.3" y1="-862.35" x2="-4054.24" y2="-924.81" gradientTransform="translate(-1206.33 -3874.6) rotate(-120)" gradientUnits="userSpaceOnUse">
      <stop offset=".5" stop-color="#76b043"/>
      <stop offset=".86" stop-color="#fff"/>
    </linearGradient>
    <linearGradient id="linear-gradient-3" x1="-3697.94" y1="-1018.6" x2="-3770.07" y2="-893.66" gradientTransform="translate(-946.96 -3651.41) rotate(-120)" xlink:href="#linear-gradient"/>
    <linearGradient id="linear-gradient-4" x1="-230.82" y1="250" x2="-194.77" y2="187.55" gradientTransform="translate(323.79 -149.65)" xlink:href="#linear-gradient-2"/>
    <linearGradient id="linear-gradient-5" x1="162.33" y1="57.14" x2="90.2" y2="182.07" gradientTransform="matrix(1,0,0,1,0,0)" xlink:href="#linear-gradient"/>
    <linearGradient id="linear-gradient-6" x1="-1228.86" y1="-3631.09" x2="-1192.8" y2="-3693.54" gradientTransform="translate(-3667.83 -650.97) rotate(120)" xlink:href="#linear-gradient-2"/>
  </defs>
  <g class="cls-10">
    <g id="Layer_2" data-name="Layer 2">
      <g id="Layer_1-2" data-name="Layer 1">
        <g>
          <path class="cls-9" d="m0,68.28v65.39c0,12.71,6.78,24.46,17.79,30.82l56.63,32.69c11.01,6.36,24.57,6.36,35.58,0l56.63-32.69c11.01-6.36,17.79-18.1,17.79-30.82v-65.39c0-12.71-6.78-24.46-17.79-30.82L110,4.77c-11.01-6.36-24.57-6.36-35.58,0L17.79,37.46C6.78,43.82,0,55.56,0,68.28Z"/>
          <g>
            <g>
              <path class="cls-1" d="m92.04,183.13v-83.28S19.91,58.2,19.91,58.2v67.44c.01,9.8,5.24,18.86,13.73,23.76l58.4,33.73Z"/>
              <path class="cls-7" d="m92.03,166.36l-57.6-33.26v-66.51c18.53,10.7,57.59,33.26,57.59,33.26v66.51Z"/>
              <path class="cls-2" d="m19.92,125.64c0,4.9,1.31,9.62,3.68,13.72l68.43-39.51L19.91,58.2v67.44Z"/>
            </g>
            <g>
              <path class="cls-5" d="m19.91,58.19l72.13,41.63,72.13-41.63-58.41-33.71c-8.49-4.9-18.95-4.9-27.44,0L19.91,58.19Z"/>
              <path class="cls-7" d="m34.44,66.57l57.6-33.26,57.6,33.26c-18.53,10.69-57.6,33.24-57.6,33.24l-57.6-33.24Z"/>
              <path class="cls-3" d="m105.76,24.48c-4.25-2.45-8.98-3.68-13.72-3.68v79.01l72.13-41.63-58.41-33.71Z"/>
            </g>
            <g>
              <path class="cls-6" d="m164.16,58.2l-72.12,41.65v83.28s58.39-33.73,58.39-33.73c8.49-4.9,13.72-13.96,13.72-23.76V58.2Z"/>
              <path class="cls-7" d="m149.64,66.59v66.51l-57.6,33.26c0-21.39,0-66.51,0-66.51l57.59-33.26Z"/>
              <path class="cls-4" d="m150.43,149.4c4.24-2.45,7.67-5.94,10.04-10.04l-68.43-39.51v83.28s58.39-33.73,58.39-33.73Z"/>
            </g>
            <g>
              <path class="cls-9" d="m174.46,43.78c-6.72-4.49-15.62-4.67-22.55-.51-7.19,4.31-10.7,11.61-10.55,18.89.15,7.06-3.2,13.75-8.3,18.62l-7.73,7.38c-4.11,3.92-9.57,6.25-15.24,6.09-1.3-.04-2.59.06-3.87.3-4.4.81-10.9-1.35-14.35-4.21l-1.33-1.11c-4.26-3.54-6.62-8.71-7.18-14.22-.66-6.48-4.97-12.47-12.09-14.71-6.36-2-13.32-.07-17.73,4.92-4.21,4.76-5.29,10.81-3.81,16.15,1.21,4.36.84,9.01-1.74,12.73l-17,24.53c-2.54,3.67-6.5,6.19-10.93,6.66-5.55.59-10.72,4.13-12.97,10.23-1.95,5.3-.71,11.47,3.13,15.61,7.15,7.7,18.99,6.39,24.47-1.76,2.58-3.84,3.2-8.4,2.12-12.54-1.1-4.21,0-8.69,2.48-12.26l16.69-24.07c2.76-3.97,7.23-6.12,12.03-6.64.05,0,.42.02.47.02,5.64-.65,10.91,1.57,15.28,5.19l1.23,1.02c3.7,3.07,6.09,7.58,6.01,12.38-.11,6.19,2.86,12.41,8.87,16.19,6.09,3.82,13.9,3.72,19.88-.27,5.31-3.55,8.1-9,8.41-14.56.34-6.08,2.49-11.92,6.89-16.12l7.91-7.55c4.89-4.67,11.46-7.52,18.2-6.97,5.77.47,11.7-1.38,16.28-5.66,9.9-9.25,9.09-25.67-2.96-33.73Z"/>
              <path class="cls-8" d="m21.71,132.91c-2.6.02-5.01,1.32-6.45,3.48-2.39,3.58-1.42,8.45,2.17,10.84,3.48,2.32,8.54,1.29,10.84-2.17,2.39-3.58,1.42-8.45-2.17-10.84-1.31-.87-2.83-1.33-4.4-1.31Z"/>
              <path class="cls-8" d="m66.21,67.31c-3.35.03-6.47,1.85-8.14,4.76-1.26,2.19-1.58,4.74-.92,7.18.66,2.44,2.23,4.47,4.43,5.73,4.39,2.52,10.41.84,12.9-3.51,1.26-2.19,1.58-4.74.92-7.18-.67-2.44-2.23-4.47-4.43-5.73-1.46-.83-3.11-1.26-4.77-1.25Z"/>
              <path class="cls-8" d="m109.39,101.74c-2.93.03-5.67,1.19-7.72,3.28-4.23,4.31-4.17,11.26.14,15.49,4.19,4.11,11.4,4.03,15.49-.14,2.05-2.08,3.16-4.85,3.14-7.77-.03-2.93-1.2-5.67-3.28-7.71-2.09-2.05-4.84-3.16-7.77-3.14Z"/>
              <path class="cls-8" d="m162.65,49.04c-3.23.03-6.31,1.27-8.66,3.48-2.48,2.34-3.9,5.51-4,8.92-.1,3.41,1.14,6.66,3.48,9.14,4.69,4.97,13.1,5.21,18.07.52,2.48-2.34,3.9-5.51,4-8.92.1-3.41-1.14-6.66-3.48-9.14-2.47-2.62-5.81-4.04-9.41-4.01Z"/>
            </g>
          </g>
        </g>
      </g>
    </g>
  </g>
</svg>