<?xml version="1.0" encoding="UTF-8"?>
<svg xmlns="http://www.w3.org/2000/svg" xmlns:xlink="http://www.w3.org/1999/xlink" viewBox="0 0 797.27 182.17">
  <defs>
    <style>
      .cls-1 {
        fill: url(#linear-gradient);
      }

      .cls-1, .cls-2, .cls-3, .cls-4, .cls-5, .cls-6, .cls-7, .cls-8, .cls-9 {
        stroke-width: 0px;
      }

      .cls-2 {
        fill: url(#linear-gradient-2);
      }

      .cls-2, .cls-3, .cls-4 {
        mix-blend-mode: multiply;
        opacity: .6;
      }

      .cls-3 {
        fill: url(#linear-gradient-4);
      }

      .cls-4 {
        fill: url(#linear-gradient-6);
      }

      .cls-5 {
        fill: url(#linear-gradient-3);
      }

      .cls-6 {
        fill: url(#linear-gradient-5);
      }

      .cls-10 {
        isolation: isolate;
      }

      .cls-7 {
        fill: #bfd730;
      }

      .cls-8 {
        fill: #fff;
      }

      .cls-9 {
        fill: #00377b;
      }
    </style>
    <linearGradient id="linear-gradient" x1="-1000.36" y1="-2473.85" x2="-1065.8" y2="-2360.52" gradientTransform="translate(-2557.38 -205.96) rotate(120)" gradientUnits="userSpaceOnUse">
      <stop offset=".4" stop-color="#76b043"/>
      <stop offset=".95" stop-color="#bfd730"/>
    </linearGradient>
    <linearGradient id="linear-gradient-2" x1="-3031.58" y1="-47.06" x2="-2998.87" y2="-103.71" gradientTransform="translate(-1391.56 -2559.78) rotate(-120)" gradientUnits="userSpaceOnUse">
      <stop offset=".5" stop-color="#76b043"/>
      <stop offset=".86" stop-color="#fff"/>
    </linearGradient>
    <linearGradient id="linear-gradient-3" x1="-2645.66" y1="-199.29" x2="-2711.09" y2="-85.96" gradientTransform="translate(-1132.19 -2336.59) rotate(-120)" xlink:href="#linear-gradient"/>
    <linearGradient id="linear-gradient-4" x1="-239.46" y1="240.17" x2="-206.75" y2="183.52" gradientTransform="translate(323.79 -149.65)" xlink:href="#linear-gradient-2"/>
    <linearGradient id="linear-gradient-5" x1="147.25" y1="51.32" x2="81.82" y2="164.65" gradientTransform="matrix(1,0,0,1,0,0)" xlink:href="#linear-gradient"/>
    <linearGradient id="linear-gradient-6" x1="-1418.39" y1="-2304" x2="-1385.68" y2="-2360.65" gradientTransform="translate(-2621.8 166.88) rotate(120)" xlink:href="#linear-gradient-2"/>
  </defs>
  <g class="cls-10">
    <g id="Layer_2" data-name="Layer 2">
      <g id="Layer_1-2" data-name="Layer 1">
        <g>
          <g>
            <path class="cls-8" d="m200.11,143.91v-64.13h-11.7v-14.75h11.7c0-19.24,11.17-28.86,33.51-28.86v16.83c-2.67,0-4.84.19-6.49.56-1.66.38-2.97,1.04-3.93,2s-1.63,2.22-2,3.77c-.38,1.55-.56,3.45-.56,5.69h13.47v14.75h-13.47v64.13h-20.52Z"/>
            <path class="cls-8" d="m284.59,143.91c-.64-2.03-1.07-4.38-1.28-7.05-2.46,2.78-5.72,5-9.78,6.65-4.06,1.66-8.76,2.48-14.11,2.48-9.09,0-15.74-2-19.96-6.01-4.22-4.01-6.33-9.22-6.33-15.63,0-5.66.91-10.18,2.73-13.55,1.82-3.37,4.33-6.01,7.53-7.94,3.21-1.92,7.03-3.34,11.46-4.25,4.43-.91,9.27-1.74,14.51-2.48,5.23-.75,8.76-1.74,10.58-2.97,1.82-1.23,2.73-3.23,2.73-6.01,0-2.57-1.2-4.57-3.61-6.01-2.4-1.44-5.64-2.16-9.7-2.16-4.81,0-8.26,1.07-10.34,3.21-2.08,2.14-3.39,4.97-3.93,8.5h-19.4c.1-4.06.77-7.8,2-11.22,1.23-3.42,3.21-6.36,5.93-8.82,2.72-2.46,6.28-4.35,10.66-5.69,4.38-1.34,9.72-2,16.03-2s11.46.7,15.79,2.08c4.33,1.39,7.8,3.39,10.42,6.01,2.62,2.62,4.51,5.88,5.69,9.78,1.17,3.9,1.76,8.31,1.76,13.23v49.86h-19.4Zm-1.44-38.64c-1.07,1.07-2.62,1.92-4.65,2.57-2.03.64-4.97,1.34-8.82,2.08-5.99,1.18-10.1,2.67-12.34,4.49-2.24,1.82-3.37,4.44-3.37,7.86,0,5.88,3.37,8.82,10.1,8.82,2.67,0,5.16-.45,7.46-1.36,2.3-.91,4.27-2.14,5.93-3.69,1.66-1.55,2.99-3.37,4.01-5.45,1.01-2.08,1.52-4.3,1.52-6.65l.16-8.66Z"/>
            <path class="cls-8" d="m333.17,143.91l-28.22-78.87h23.25l16.51,52.1,16.67-52.1h21.96l-28.38,78.87h-21.8Z"/>
            <path class="cls-8" d="m388.15,143.91V36.18h20.52v39.12c5.88-8.23,13.68-12.34,23.41-12.34,5.13,0,9.7.99,13.71,2.97,4.01,1.98,7.4,4.78,10.18,8.42,2.78,3.63,4.89,7.94,6.33,12.91,1.44,4.97,2.16,10.45,2.16,16.43,0,6.63-.86,12.56-2.57,17.79-1.71,5.24-4.06,9.67-7.05,13.31-2.99,3.63-6.6,6.41-10.82,8.34-4.22,1.92-8.79,2.89-13.71,2.89-9.83,0-17.15-3.9-21.96-11.7l-.16,9.62h-20.04Zm37.35-14.91c5.24,0,9.51-2.22,12.83-6.65,3.31-4.43,4.97-10.18,4.97-17.23,0-16.24-5.99-24.37-17.96-24.37s-17.47,8.55-17.47,25.65c0,6.73,1.68,12.18,5.05,16.35,3.37,4.17,7.56,6.25,12.58,6.25Z"/>
            <path class="cls-8" d="m471.36,143.91v-78.87h19.56v9.46c1.71-2.67,3.5-4.75,5.37-6.25,1.87-1.5,3.79-2.65,5.77-3.45,1.98-.8,3.98-1.31,6.01-1.52,2.03-.21,4.11-.32,6.25-.32h2.73v21.32c-1.92-.32-3.85-.48-5.77-.48-12.72,0-19.08,6.36-19.08,19.08v41.04h-20.84Z"/>
            <path class="cls-8" d="m556.48,145.99c-6.41,0-12.13-1.02-17.15-3.05-5.02-2.03-9.27-4.86-12.75-8.5-3.47-3.63-6.12-8.02-7.94-13.15-1.82-5.13-2.73-10.74-2.73-16.83s.93-11.86,2.81-16.99c1.87-5.13,4.57-9.51,8.1-13.15,3.53-3.63,7.78-6.44,12.75-8.42,4.97-1.98,10.61-2.97,16.91-2.97s11.76.99,16.67,2.97c4.92,1.98,9.11,4.76,12.58,8.34,3.47,3.58,6.14,7.94,8.02,13.07,1.87,5.13,2.81,10.85,2.81,17.15s-.94,12-2.81,17.07c-1.87,5.08-4.54,9.43-8.02,13.07-3.47,3.63-7.7,6.44-12.67,8.42s-10.5,2.97-16.59,2.97Zm0-17.47c12.72,0,19.08-8.02,19.08-24.05s-6.36-23.89-19.08-23.89-19.08,7.96-19.08,23.89,6.36,24.05,19.08,24.05Z"/>
            <path class="cls-8" d="m651.71,143.91l-17.31-35.43-10.1,10.42v25.01h-21V36.18h21v58.83l25.97-29.98h25.49l-26.45,29.02,25.81,49.86h-23.41Z"/>
            <path class="cls-8" d="m690.82,109.92c.32,5.99,2.06,10.74,5.21,14.27,3.15,3.53,7.29,5.29,12.42,5.29,3.42,0,6.44-.77,9.06-2.32,2.62-1.55,4.3-3.71,5.05-6.49h21.48c-2.46,8.12-6.73,14.38-12.83,18.76-6.09,4.38-13.36,6.57-21.8,6.57-26.29,0-39.44-14.32-39.44-42.96,0-6.09.85-11.6,2.57-16.51,1.71-4.91,4.19-9.14,7.46-12.66,3.26-3.53,7.24-6.23,11.94-8.1,4.7-1.87,10.1-2.8,16.19-2.8,12.18,0,21.4,3.9,27.65,11.7,6.25,7.8,9.38,19.56,9.38,35.27h-54.35Zm32.86-13.15c-.11-2.89-.62-5.42-1.52-7.62-.91-2.19-2.11-4.01-3.61-5.45-1.5-1.44-3.21-2.51-5.13-3.21-1.92-.69-3.9-1.04-5.93-1.04-4.17,0-7.78,1.52-10.82,4.57s-4.78,7.29-5.21,12.75h32.22Z"/>
            <path class="cls-8" d="m751.58,143.91v-78.87h19.56v9.46c1.71-2.67,3.5-4.75,5.37-6.25,1.87-1.5,3.79-2.65,5.77-3.45,1.98-.8,3.98-1.31,6.01-1.52,2.03-.21,4.11-.32,6.25-.32h2.73v21.32c-1.92-.32-3.85-.48-5.77-.48-12.72,0-19.08,6.36-19.08,19.08v41.04h-20.84Z"/>
          </g>
          <g>
            <path class="cls-9" d="m0,63.33v55.5c0,12.71,6.78,24.46,17.79,30.82l48.07,27.75c11.01,6.36,24.57,6.36,35.58,0l48.07-27.75c11.01-6.36,17.79-18.1,17.79-30.82v-55.5c0-12.71-6.78-24.46-17.79-30.82L101.44,4.77c-11.01-6.36-24.57-6.36-35.58,0l-48.07,27.75C6.78,38.87,0,50.62,0,63.33Z"/>
            <g>
              <g>
                <path class="cls-1" d="m83.49,165.61v-75.55S18.06,52.29,18.06,52.29v61.18c.01,8.89,4.75,17.11,12.46,21.56l52.98,30.6Z"/>
                <path class="cls-7" d="m83.49,150.4l-52.25-30.17v-60.34c16.81,9.71,52.24,30.17,52.24,30.17v60.33Z"/>
                <path class="cls-2" d="m18.07,113.46c0,4.45,1.19,8.72,3.34,12.45l62.07-35.84L18.06,52.29v61.18Z"/>
              </g>
              <g>
                <path class="cls-5" d="m18.06,52.27l65.43,37.76,65.43-37.76-52.98-30.58c-7.7-4.45-17.19-4.45-24.89,0l-52.98,30.58Z"/>
                <path class="cls-7" d="m31.24,59.88l52.25-30.17,52.25,30.17c-16.81,9.7-52.25,30.16-52.25,30.16l-52.25-30.16Z"/>
                <path class="cls-3" d="m95.94,21.69c-3.85-2.22-8.15-3.33-12.45-3.33v71.68l65.43-37.76-52.98-30.58Z"/>
              </g>
              <g>
                <path class="cls-6" d="m148.92,52.29l-65.42,37.78v75.55s52.96-30.6,52.96-30.6c7.7-4.45,12.44-12.66,12.45-21.56v-61.18Z"/>
                <path class="cls-7" d="m135.74,59.9v60.34l-52.25,30.17c0-19.41,0-60.33,0-60.33l52.24-30.17Z"/>
                <path class="cls-4" d="m136.46,135.02c3.85-2.22,6.96-5.39,9.11-9.11l-62.07-35.84v75.55s52.96-30.6,52.96-30.6Z"/>
              </g>
              <g>
                <path class="cls-9" d="m158.26,39.21c-6.1-4.07-14.17-4.24-20.46-.47-6.52,3.91-9.71,10.53-9.57,17.13.14,6.4-2.9,12.47-7.53,16.89l-7.01,6.7c-3.73,3.56-8.68,5.67-13.83,5.52-1.18-.03-2.35.06-3.51.27-4,.73-9.89-1.23-13.02-3.82l-1.21-1c-3.87-3.21-6-7.9-6.51-12.9-.59-5.88-4.51-11.31-10.96-13.34-5.77-1.82-12.08-.07-16.09,4.46-3.82,4.32-4.8,9.81-3.45,14.65,1.1,3.96.76,8.17-1.58,11.54l-15.42,22.25c-2.31,3.33-5.9,5.62-9.92,6.04-5.04.54-9.73,3.75-11.76,9.28-1.77,4.81-.65,10.41,2.84,14.16,6.48,6.98,17.23,5.8,22.19-1.59,2.34-3.48,2.9-7.62,1.92-11.38-1-3.82,0-7.88,2.25-11.13l15.14-21.84c2.5-3.6,6.56-5.55,10.92-6.02.04,0,.38.02.43.02,5.12-.59,9.9,1.42,13.86,4.71l1.12.93c3.35,2.78,5.53,6.88,5.45,11.23-.1,5.62,2.59,11.26,8.05,14.69,5.52,3.47,12.61,3.37,18.04-.25,4.82-3.22,7.35-8.16,7.63-13.21.3-5.52,2.25-10.81,6.25-14.63l7.17-6.85c4.43-4.23,10.4-6.82,16.51-6.33,5.24.42,10.62-1.26,14.76-5.13,8.98-8.39,8.24-23.29-2.69-30.6Z"/>
                <path class="cls-8" d="m19.69,120.06c-2.35.02-4.54,1.2-5.85,3.16-2.17,3.25-1.29,7.66,1.97,9.83,3.16,2.1,7.74,1.17,9.83-1.97,2.17-3.25,1.29-7.66-1.97-9.83-1.19-.79-2.57-1.2-3.99-1.19Z"/>
                <path class="cls-8" d="m60.06,60.55c-3.04.03-5.87,1.68-7.38,4.31-1.14,1.99-1.43,4.3-.83,6.51.6,2.21,2.03,4.06,4.02,5.2,3.98,2.28,9.45.76,11.71-3.18,1.14-1.99,1.43-4.3.83-6.51-.6-2.21-2.03-4.06-4.02-5.2-1.32-.76-2.82-1.15-4.33-1.13Z"/>
                <path class="cls-8" d="m99.24,91.78c-2.65.02-5.14,1.08-7.01,2.98-3.84,3.91-3.78,10.21.13,14.05,3.8,3.72,10.34,3.65,14.06-.13,1.86-1.89,2.87-4.4,2.84-7.05-.03-2.65-1.09-5.14-2.98-7-1.89-1.86-4.39-2.87-7.05-2.85Z"/>
                <path class="cls-8" d="m147.54,43.97c-2.93.03-5.72,1.15-7.85,3.16-2.25,2.12-3.54,5-3.63,8.1-.09,3.1,1.03,6.04,3.16,8.29,4.25,4.51,11.88,4.73,16.39.48,2.25-2.13,3.54-5,3.63-8.1.09-3.1-1.03-6.04-3.16-8.29-2.24-2.37-5.27-3.67-8.53-3.64Z"/>
              </g>
            </g>
          </g>
        </g>
      </g>
    </g>
  </g>
</svg>