<svg width="356" height="350" viewBox="0 0 356 350" fill="none" xmlns="http://www.w3.org/2000/svg">
<g clip-path="url(#clip0_275_2794)">
<path d="M8.82128 94.9687C2.7617 106.506 -1.61277 123.486 0.570213 155.944C2.5234 184.973 5.29787 187.142 8.05532 191.705C10.817 196.268 19.2085 197.143 19.9234 197.642C20.6383 198.141 54.1234 179.599 54.1234 179.599L50.1021 111.061L8.81702 94.9687H8.82128Z" fill="#E85C00"/>
<path d="M199.455 101.307C199.413 122.112 165.664 149.652 154.587 153.946C110.979 170.849 78.2596 156.016 78.2596 156.016L33.1192 182.737C33.1192 182.737 14.2 116.17 13.4851 115.073C12.766 113.98 8.31064 96.0572 8.31064 96.0572C8.91064 94.6016 10.1191 92.5442 11.8255 90.06C12.4723 89.1209 13.1915 88.1221 13.9745 87.0721C24.034 73.588 44.8766 51.883 63.4894 43.5766C87.3787 32.9183 104.319 29.8749 109.655 30.3188C114.991 30.7627 148.426 58.0466 153.894 65.5719C159.366 73.0886 170.026 53.4538 170.026 53.4538L196.413 63.4932C196.413 63.4932 199.498 80.5072 199.455 101.307Z" fill="#E85C00"/>
<path d="M100 64.6072C99.3872 72.8411 96.1404 81.0536 89.4341 86.1586C83.1617 90.9393 74.8766 92.1174 67.2043 91.8826C57.9277 91.5924 48.7915 89.3002 39.4809 89.7527C38.6085 89.7953 38.2085 89.0953 38.2638 88.4166C38.1106 88.3868 37.9575 88.3611 37.8043 88.3355C33.2128 87.5373 28.6085 86.7946 24.0255 85.9409C20.3575 85.258 18.7489 91.4558 16.1064 88.6301C13.3064 85.6336 1.34894 80.456 17.6383 49.5908C30.6596 24.9235 72.9021 25.9052 81.2128 27.3735C85.1064 28.065 85.1021 28.701 88.3532 31.0145C91.5107 33.2683 93.9489 36.3416 95.6553 39.8203C97.3575 43.2949 98.4085 47.0426 99.0936 50.8372C99.9064 55.366 100.34 60.0101 100 64.6072Z" fill="#E85C00"/>
<path d="M58.6446 135.231C71.1813 122.656 71.1813 102.267 58.6446 89.6921C46.108 77.1167 25.782 77.1167 13.2454 89.6921C0.7087 102.267 0.7087 122.656 13.2454 135.231C25.782 147.807 46.108 147.807 58.6446 135.231Z" fill="#E85C00"/>
<path d="M64.566 136.475C63.5319 131.238 62.5021 126 61.4681 120.763C61.3362 120.084 60.5319 119.7 59.9021 119.871C59.2 120.063 58.8808 120.763 59.0128 121.442C60.0468 126.679 61.0766 131.916 62.1106 137.154C62.2426 137.832 63.0468 138.221 63.6766 138.046C64.3787 137.854 64.6979 137.154 64.566 136.475Z" fill="white"/>
<path d="M109.66 94.7254C127.389 94.7254 141.762 80.3085 141.762 62.5242C141.762 44.74 127.389 30.3231 109.66 30.3231C91.9301 30.3231 77.5574 44.74 77.5574 62.5242C77.5574 80.3085 91.9301 94.7254 109.66 94.7254Z" fill="#E85C00"/>
<path d="M104.03 55.3703C103.298 48.9762 101.068 42.915 98.3362 37.1312C96.9362 34.1689 95.1234 30.2974 91.2596 30.4383C89.6255 30.4981 89.617 33.0506 91.2596 32.9908C93.9447 32.8969 95.1489 36.3373 96.0851 38.3136C97.3362 40.9472 98.4681 43.6364 99.3915 46.4066C101.191 51.7934 102.153 57.4619 101.515 63.1389C101.179 66.1311 100.332 69.0934 98.9702 71.774C98.2298 73.238 100.426 74.5314 101.17 73.063C103.923 67.625 104.715 61.3888 104.03 55.3661V55.3703Z" fill="white"/>
<path d="M145.97 123.644L109.072 160.891C107.774 162.201 105.647 162.146 104.417 160.771C88.3192 142.733 84.9915 116.23 96.4383 94.6614C101.43 85.258 108.894 77.4254 117.987 72.0045C119.574 71.0569 121.626 71.6374 122.472 73.2807L146.536 119.914C147.174 121.151 146.945 122.658 145.966 123.648L145.97 123.644Z" fill="white"/>
<path d="M194.298 62.6523C193.179 67.2238 190.702 71.6374 186.762 74.3222C182.523 77.212 177.047 77.3913 172.196 76.2815C167.817 75.2869 163.719 73.1783 160.281 70.2843C156.885 67.4287 154.217 63.728 152.668 59.5577C151.119 55.3959 150.889 50.7732 151.813 46.4365C152.719 42.1509 154.851 38.0532 158.038 35.0312C160.749 32.453 164.983 30.3273 168.711 31.4115C168.609 30.7072 169.013 29.9346 169.923 29.9816C171.081 30.0371 172.23 30.1651 173.37 30.37C182.796 32.0304 190.779 38.9667 193.736 48.0841C195.255 52.758 195.464 57.8759 194.298 62.6523Z" fill="#FFA895"/>
<path d="M195.162 48.9762C193.149 42.7997 189.226 37.4343 184.081 33.5073C181.255 31.3518 178.077 29.6956 174.706 28.5901C173.145 28.0779 172.477 30.545 174.03 31.053C179.566 32.8671 184.472 36.38 188.072 40.9643C191.932 45.8773 194.043 52.0452 194.179 58.2857C194.26 61.9565 193.668 65.5847 192.43 69.0422C192.196 69.691 192.694 70.4422 193.319 70.613C194.026 70.8093 194.651 70.3739 194.885 69.7209C197.255 63.1005 197.34 55.6606 195.162 48.9762Z" fill="#F76D6D"/>
<path d="M200.792 83.1153C200.566 85.2026 199.919 87.2173 198.626 88.9673C196.481 91.8784 193.239 93.8889 190.022 95.4212C186.839 96.9323 183.451 97.9908 179.966 98.5073C172.992 99.5403 165.728 98.5799 159.477 95.2035C153.877 92.1815 149.396 87.1447 146.856 81.3098C144.83 76.6571 143.958 71.5179 144.622 66.5153C144.587 64.2744 144.851 62.0164 146.132 60.1212C147.724 57.765 150.43 56.668 153.196 57.479C158.085 58.926 160.792 64.0866 163.711 67.8556C165.179 69.7508 166.813 71.535 168.83 72.8411C170.698 74.0619 172.77 74.8943 174.953 75.3467C179.234 76.2388 183.715 75.4534 187.417 73.1186C190.528 71.1636 192.996 68.2312 194.379 64.825C194.456 63.6896 194.664 62.5456 195.413 61.645C196.162 60.7401 197.46 60.1852 198.622 60.5181C199.758 60.8468 200.417 61.8414 200.698 62.9383C201.009 64.1933 201.141 65.5165 201.311 66.8013C201.647 69.3709 201.847 71.9533 201.902 74.54C201.962 77.3444 201.885 80.4945 200.796 83.1153H200.792Z" fill="#1250B3"/>
<path d="M149.077 120.707L174.549 72.713C175.417 71.0782 177.477 70.5233 179.055 71.488C204.911 87.3282 214.434 121.305 200.026 148.448C185.081 176.607 149.685 187.44 121.613 172.45C117.6 170.307 113.851 167.699 110.451 164.681C109.072 163.456 109 161.317 110.298 160.011L148.519 121.459C148.74 121.237 148.928 120.981 149.072 120.703L149.077 120.707Z" fill="#233D4D"/>
<path d="M151.536 97.6109L129.281 54.3288C128.438 52.6855 129.145 50.6708 130.83 49.9238C138.311 46.5944 146.421 44.887 154.626 44.9254C162.834 44.9639 170.928 46.7523 178.374 50.1543C180.051 50.9183 180.74 52.9416 179.881 54.5764L157.209 97.6408C156.004 99.9329 152.723 99.9159 151.54 97.6152L151.536 97.6109Z" fill="#FCCA46"/>
<path d="M103.413 25.8284C102.102 27.937 100.209 29.6316 98.2 31.0572C96.2213 32.4658 93.9362 33.5884 91.5234 33.9897C86.0085 34.8988 80.6596 32.278 75.634 30.3785C72.9447 29.3627 70.2638 28.351 67.5787 27.3351C65.0128 26.3662 62.3787 25.4869 59.8638 24.3899C58.8 23.9246 57.7915 23.263 57.166 22.2557C56.5106 21.2099 56.383 19.9379 56.5277 18.7385C56.6851 17.4451 57.0808 16.2116 57.4383 14.9694C57.7319 13.9365 58.0298 12.9121 58.3234 11.8791C58.0128 12.0071 57.7021 12.1352 57.3957 12.2632C56.7532 12.5279 55.9915 11.9773 55.8255 11.3754C55.6255 10.6498 56.0809 10.0693 56.7149 9.80035C59.2979 8.73751 61.8809 7.6704 64.4638 6.60328C69.0298 4.71663 73.583 2.79156 78.166 0.956125C80.2681 0.115241 82.6681 -0.499416 84.8043 0.589039C85.8681 1.13113 86.7149 2.06592 87.1106 3.15438C90.2468 1.96348 93.9489 2.48423 96.5957 4.60992C99.217 6.71426 100.481 10.3083 99.9702 13.6121C101.991 14.1414 103.66 15.7207 104.451 17.6927C105.515 20.352 104.872 23.4594 103.404 25.8326L103.413 25.8284Z" fill="#233D4D"/>
<path d="M100.983 40.5545C100.579 42.4412 98.1489 47.9475 96.1064 48.0243C94.0425 48.1054 94.4255 40.5204 93.0553 39.1758C90.4723 36.6574 87.8213 34.1561 84.7872 32.1884C83.3362 31.2536 81.8085 30.4255 80.183 29.845C78.4255 29.2133 76.6383 28.9401 74.7915 28.7437C72.8298 28.5346 70.8511 28.2657 69.1021 27.2711C67.5915 26.4132 66.3617 25.0729 65.8936 23.374C65.4553 21.7819 67.9149 21.1117 68.3489 22.6953C68.7532 24.1423 70.0851 25.0857 71.4511 25.5467C72.9574 26.0631 74.5574 26.1741 76.1362 26.3449C76.4894 24.2234 78.0596 22.452 79.9404 21.449C81.9957 20.352 84.4128 19.8355 86.6851 19.4257C89.166 18.9861 91.7106 18.8239 94.1787 19.4214C98.0468 20.3605 101.485 23.5362 101.715 27.6766C101.723 27.8516 101.698 27.9968 101.66 28.1376C102.302 31.514 101.681 37.2764 100.983 40.5631V40.5545Z" fill="#233D4D"/>
<path d="M86.2894 76.1577C85.2383 77.9589 85.1362 81.22 83.8085 82.825C83.2085 83.5506 83.2298 84.1397 82.2808 84.2976C81.0894 84.4897 78.2298 82.5689 77.1957 82.0609C73.1277 80.0633 69.1064 77.9717 65.1319 75.7906C57.2255 71.4496 49.5106 66.7415 42.0255 61.7004C41.7234 61.4955 41.5617 61.2266 41.4894 60.9449C40.783 60.851 40.1574 60.262 40.4426 59.3912C40.7574 58.4479 41.1447 57.5173 41.6085 56.6295C43.4766 53.0269 46.5404 50.1372 50.0043 48.0841C53.6979 45.8986 57.966 44.4132 62.2255 43.9053C66.4723 43.4016 70.4936 44.473 74.0426 46.8206C77.2851 48.9719 80.0723 51.7507 83.0596 54.2178C84.6298 55.5112 86.1489 56.8259 87.3617 58.4735C88.5872 60.1382 91.3957 61.4486 91.6426 63.4932C92.1532 67.7488 88.3957 72.5508 86.2894 76.1619V76.1577Z" fill="#1250B3"/>
<path d="M99.183 34.8177C99.183 50.6537 86.3872 63.4889 70.6 63.4889C54.8128 63.4889 44.5872 50.4403 42.017 34.8177C39.0936 17.0738 54.8128 6.14658 70.6 6.14658C86.3872 6.14658 99.183 18.9818 99.183 34.8177Z" fill="#233D4D"/>
<path d="M65.2681 54.8666C62.4426 58.9985 59.617 63.1304 56.7957 67.2622C56.3872 67.8555 55.6979 68.0604 55.0553 67.7232L51.7872 66.0073L60.5787 51.1616L62.7362 52.0751C63.2553 52.519 63.8255 52.8733 64.5021 52.9885C65.2851 53.1251 65.6979 54.2306 65.2638 54.8666H65.2681Z" fill="#233D4D"/>
<path d="M86.3149 62.0675L76.1702 80.7249L74.9532 82.9616C74.8553 82.9189 74.766 82.8805 74.6681 82.8378C66.034 79.0133 57.8 74.3094 50.1021 68.8415L51.3957 66.6561L51.783 66.003L55.0511 67.7189C55.6936 68.0561 56.383 67.8513 56.7915 67.2579C59.6128 63.1261 62.4383 58.9942 65.2638 54.8624C65.6979 54.2221 65.2851 53.1208 64.5021 52.9842C63.8255 52.8647 63.2553 52.5147 62.7362 52.0708L86.3149 62.0675Z" fill="#FFA895"/>
<path d="M95.5066 63.0527C102.81 55.7265 102.81 43.8485 95.5066 36.5223C88.2029 29.1961 76.3614 29.1961 69.0578 36.5223C61.7541 43.8485 61.7541 55.7265 69.0578 63.0527C76.3614 70.3789 88.2029 70.3789 95.5066 63.0527Z" fill="#FFA895"/>
<path d="M78.983 57.8802C90.5175 57.8802 99.8681 48.5007 99.8681 36.9306C99.8681 25.3605 90.5175 15.9811 78.983 15.9811C67.4485 15.9811 58.0979 25.3605 58.0979 36.9306C58.0979 48.5007 67.4485 57.8802 78.983 57.8802Z" fill="#FFA895"/>
<path d="M67.4681 56.1173C67.4681 60.0528 64.2851 63.2456 60.3617 63.2456C56.4383 63.2456 53.2553 60.0528 53.2553 56.1173C53.2553 52.1818 56.4383 48.989 60.3617 48.989C64.2851 48.989 67.4681 52.1818 67.4681 56.1173Z" fill="#FFA895"/>
<path d="M65.6 53.8081C63.0723 53.2532 60.4766 53.0355 57.8979 53.1934C57.234 53.2361 56.5915 53.7526 56.6255 54.4697C56.6553 55.127 57.1872 55.7929 57.8979 55.7459C59.4255 55.652 60.8894 55.6819 62.3319 55.8399C62.1404 55.985 61.9532 56.1258 61.7575 56.2667C60.7915 56.9582 59.7872 57.5942 58.7532 58.1747C58.1702 58.4991 57.9277 59.3485 58.2979 59.9205C58.6766 60.5095 59.417 60.7272 60.0383 60.3772C62.2426 59.1436 64.2979 57.6454 66.166 55.938C66.8553 55.3063 66.5234 54.0044 65.6043 53.8038L65.6 53.8081Z" fill="#F76D6D"/>
<path d="M254.157 101.231V184.986C254.157 185.379 254.132 185.763 254.077 186.139C253.834 187.94 253.017 189.566 251.826 190.817C250.294 192.422 248.14 193.416 245.749 193.416H153.162C150.523 193.416 148.179 192.2 146.634 190.3C145.46 188.849 144.753 186.996 144.753 184.982V101.226H254.153L254.157 101.231Z" fill="#EDEDED"/>
<path d="M254.157 117.92V115.662H254.077V100.782H251.826V115.662H236.06V100.782H233.804V115.662H218.038V100.782H215.787V115.662H200.021V100.782H197.766V115.662H182V100.782H179.749V115.662H163.987V100.782H161.732V115.662H145.966V101.231H144.749V184.986C144.749 186.996 145.451 188.853 146.63 190.305H161.732V193.421H163.987V190.305H179.749V193.421H182V190.305H197.766V193.421H200.021V190.305H215.787V193.421H218.038V190.305H233.804V193.421H236.06V190.305H251.826V190.821C253.017 189.57 253.83 187.944 254.077 186.143V172.236H254.157V169.88H254.077V154.065H254.157V151.807H254.077V135.989H254.157V133.73H254.077V117.916H254.157V117.92ZM161.736 188.047H145.97V172.232H161.736V188.047ZM161.736 169.88H145.97V154.065H161.736V169.88ZM161.736 151.812H145.97V135.993H161.736V151.812ZM161.736 133.735H145.97V117.92H161.736V133.735ZM179.757 188.047H163.996V172.232H179.757V188.047ZM179.757 169.88H163.996V154.065H179.757V169.88ZM179.757 151.812H163.996V135.993H179.757V151.812ZM179.757 133.735H163.996V117.92H179.757V133.735ZM197.77 188.047H182.004V172.232H197.77V188.047ZM197.77 169.88H182.004V154.065H197.77V169.88ZM197.77 151.812H182.004V135.993H197.77V151.812ZM197.77 133.735H182.004V117.92H197.77V133.735ZM215.791 188.047H200.026V172.232H215.791V188.047ZM215.791 169.88H200.026V154.065H215.791V169.88ZM215.791 151.812H200.026V135.993H215.791V151.812ZM215.791 133.735H200.026V117.92H215.791V133.735ZM233.804 188.047H218.038V172.232H233.804V188.047ZM233.804 169.88H218.038V154.065H233.804V169.88ZM233.804 151.812H218.038V135.993H233.804V151.812ZM233.804 133.735H218.038V117.92H233.804V133.735ZM251.826 188.047H236.06V172.232H251.826V188.047ZM251.826 169.88H236.06V154.065H251.826V169.88ZM251.826 151.812H236.06V135.993H251.826V151.812ZM251.826 133.735H236.06V117.92H251.826V133.735Z" fill="#E0E0E0"/>
<path d="M254.157 108.709V112.7L237.17 121.147H223.119L219.298 127.17L217.034 130.747L202.226 154.1L186.851 140.014L156.634 171.835L144.757 163.558V159.209L156.157 167.152L186.677 135.015L201.494 148.589L212.809 130.747L215.072 127.17L221.157 117.574H236.336L254.157 108.709Z" fill="#1250B3"/>
<path d="M254.157 127.17V130.747H184.562L168.821 148.444H155.906L144.757 140.936V136.625L156.991 144.867H167.221L182.966 127.17H254.157Z" fill="#E85C00"/>
<path d="M254.157 99.1006V101.231H144.757V99.1006C144.757 94.4437 148.519 90.6661 153.162 90.6661H245.749C250.391 90.6661 254.153 94.4394 254.153 99.1006H254.157Z" fill="#FCCA46"/>
<path d="M272.119 91.1442C271.357 94.5035 267.872 96.3218 264.928 97.3975C261.809 98.5371 258.562 99.186 255.715 100.974C253.017 102.66 250.736 104.906 248.264 106.895C245.877 108.816 243.089 110.954 239.898 111.061C238.272 111.112 236.736 110.446 235.779 109.114C234.719 107.637 234.668 105.661 235.132 103.967C235.596 102.272 236.472 100.641 237.345 99.1305C238.196 97.6664 239.157 96.2663 240.187 94.9175C241.404 93.3126 242.706 91.7802 244.047 90.2862C235.464 90.0728 226.545 91.1741 219.149 95.8694C217.37 96.9962 215.809 98.5201 213.885 99.4036C212.026 100.257 209.685 100.518 207.923 99.2671C206.336 98.1402 205.494 96.1468 205.609 94.2089C205.732 92.0064 206.83 90.0856 208.157 88.391C213.549 81.506 222.664 79.6023 230.885 78.8596C238.762 78.151 246.74 77.8437 254.613 78.6931C254.894 78.1937 255.477 77.9931 256.06 78.087C256.881 78.2236 257.617 78.6291 258.243 79.1712C258.511 79.2139 258.783 79.2523 259.051 79.2993C259.728 79.4102 260.106 80.2554 259.936 80.8658C259.885 81.0493 259.804 81.203 259.698 81.331C259.826 81.6682 259.923 82.014 259.983 82.3683C260.387 82.4024 260.791 82.4536 261.2 82.5091C263.149 82.778 265.187 83.1238 267.047 83.7982C270.106 84.908 272.923 87.6099 272.115 91.1527L272.119 91.1442Z" fill="#FFA895"/>
<path d="M248.451 78.5309C248.013 79.4059 247.077 79.6749 246.217 79.9651C245.396 80.2426 244.566 80.4944 243.732 80.7206C242.6 81.0237 241.46 81.2585 240.311 81.4548C239.996 81.8091 239.643 82.1249 239.255 82.4067C237.698 83.5165 235.698 83.8451 233.826 83.9092C231.77 83.9775 229.723 83.7171 227.681 83.461C224.149 83.0213 220.379 82.5305 216.983 83.9262C215.515 84.5238 214.255 85.5184 213.4 86.8629C212.757 87.8703 212.315 88.9673 211.932 90.0899C212.013 90.3759 211.987 90.696 211.783 91.0289C211.685 91.1869 211.579 91.3448 211.481 91.5027C211.455 91.5796 211.43 91.6607 211.404 91.7375C211.298 92.096 211.085 92.3308 210.83 92.4717C210.668 92.7022 210.502 92.9369 210.328 93.1632C209.345 94.4181 208.047 95.6047 206.443 95.9462C204.634 96.3303 202.821 95.6944 201.54 94.3882C198.906 91.7119 199.132 87.2087 200.234 83.8836C202.596 76.768 209.255 72.3502 216.37 71.0184C220.409 70.2672 224.502 70.391 228.553 70.9502C230.626 71.2361 232.677 71.6416 234.715 72.1026C235.97 72.3843 237.298 72.6703 238.489 73.2167C238.715 73.1441 238.962 73.1356 239.204 73.1911C241.068 73.6393 242.906 74.1558 244.728 74.7491C245.587 75.0308 246.523 75.2698 247.336 75.6839C248.353 76.2089 249.017 77.4254 248.455 78.5266L248.451 78.5309Z" fill="#FFA895"/>
<path d="M229.689 85.2922C228.762 86.466 227.438 87.1916 226.06 87.7081C224.753 88.1947 223.374 88.4551 222.017 88.7411C220.298 89.1039 218.57 89.4667 216.843 89.8253C213.477 90.5338 210.111 91.2381 206.74 91.9509C205.021 92.3138 203.294 92.6766 201.566 93.0394C199.911 93.3851 198.243 93.7309 196.549 93.4449C195.162 93.2144 193.864 92.493 193.043 91.3448C192.157 90.1155 192.038 88.4508 192.498 87.0294C193.46 84.0757 196.357 82.5774 198.957 81.3097C201.843 79.9011 204.864 78.7358 207.953 77.8565C213.464 76.2943 219.23 75.6113 224.953 75.8461C225.234 75.8418 225.519 75.8546 225.791 75.8888C226.106 75.9101 226.417 75.9144 226.732 75.94C227.145 75.9699 227.515 76.1577 227.749 76.465C229.362 77.2504 230.6 78.7529 230.889 80.6822C231.14 82.3469 230.728 83.9817 229.677 85.3007L229.689 85.2922Z" fill="#FFA895"/>
<path d="M299.843 103.032C297.715 107.744 292.094 109.511 287.289 109.251C281.66 108.944 276.553 106.34 271.804 103.489C269.443 102.067 267.115 100.586 264.689 99.2756C262.315 97.9865 259.872 96.834 257.455 95.6303C255.119 94.465 252.796 93.2485 250.608 91.8143C248.294 90.299 246.17 88.5191 244.213 86.5642C242.319 84.6647 240.57 82.6244 238.834 80.5798C237.417 78.9108 235.881 77.0711 235.545 74.8686C234.447 74.7832 233.345 74.7021 232.238 74.6125C231.549 74.5613 230.966 74.0704 230.966 73.3362C230.966 72.6832 231.557 72.0087 232.238 72.06C233.694 72.1709 235.145 72.2862 236.6 72.3972C248.413 73.3234 260.234 74.3436 271.966 76.0894C274.868 76.5205 277.766 76.9943 280.651 77.5278C282.928 77.9504 285.2 78.437 287.396 79.1669C291.974 80.6822 296.136 83.3201 298.396 87.7252C299.583 90.0387 300.264 92.5741 300.617 95.148C300.983 97.803 300.957 100.548 299.834 103.028L299.843 103.032Z" fill="#FFA895"/>
<path d="M158.519 251.386L186.817 298.514C168.843 310.982 148.532 322.55 137.54 321.167C137.468 321.158 137.404 321.145 137.328 321.137C136.906 321.154 136.481 321.167 136.055 321.167C120.153 321.167 107.26 308.233 107.26 292.286C107.26 276.339 120.153 263.397 136.055 263.397C138.489 263.397 140.847 263.705 143.102 264.277C147.77 260.38 153.17 255.876 158.519 251.39V251.386Z" fill="#FFA895"/>
<path d="M270.37 218.297C270.37 218.297 271.987 213.277 277.549 203.033C281.145 196.417 300.553 161.467 308.864 144.478C307.783 142.413 305.562 136.385 304.991 134.016C301.255 118.509 305.089 116.477 320.545 112.725C328.37 110.826 336.762 112.346 343.434 116.866C364.357 131.037 354.396 157.472 347.421 176.193C339.272 198.073 329.285 219.309 318.745 240.122C315.821 245.893 312.847 251.646 309.719 257.311C309.094 258.442 307.026 263.794 305.583 264.144C303.821 264.571 270.366 218.293 270.366 218.293L270.37 218.297Z" fill="#FFA895"/>
<path d="M181.66 197.023C180.796 198.321 179.149 199.025 177.851 199.798C174.723 201.646 171.591 203.494 168.468 205.351C165.515 207.097 162.579 208.894 159.455 210.336C158.115 210.955 156.689 211.587 155.226 212.022C154.57 213.158 153.898 214.285 153.2 215.394V277.475C153.2 279.122 121.06 321.282 111.715 307.712C104.86 297.776 101.515 278.384 104.468 247.182C105.6 235.179 107.289 225.656 108.94 218.463C110.136 210.183 112.255 202.073 115.234 194.274C115.132 193.839 115.068 193.399 115.043 192.968C114.932 191.043 115.519 189.152 116.264 187.406C116.953 185.78 117.757 184.192 118.613 182.647C120.004 180.116 121.66 177.678 123.745 175.672C123.945 174.874 124.174 174.089 124.464 173.329C125.502 170.593 127.2 168.113 129.698 166.529C130.506 166.017 131.43 165.603 132.396 165.351C132.311 163.029 132.264 160.699 132.294 158.377C132.336 155.692 132.715 152.883 134.604 150.834C136.332 148.965 138.983 148.29 141.277 149.502C143.557 150.706 144.702 153.242 145.064 155.687C145.481 158.513 145.494 161.403 145.791 164.241C146.102 167.118 146.528 169.978 147.068 172.825C147.898 177.175 150.311 186.843 153.902 189.259C154.983 189.984 156.447 190.663 157.97 191.188C159.966 191.547 162.004 191.606 164.013 191.376C166.136 191.137 168.115 190.437 170.123 189.733C172.026 189.062 173.987 188.589 176.009 188.96C177.596 189.254 179.123 190.172 179.957 191.581C180.502 191.892 181.004 192.323 181.451 192.93C182.323 194.129 182.506 195.768 181.664 197.036L181.66 197.023Z" fill="#FFA895"/>
<path d="M288.443 179.185C288.443 195.661 275.128 209.022 258.698 209.022C242.268 209.022 230.545 180.974 230.545 164.493C230.545 148.013 243.098 147.01 259.494 148.017C273.387 148.871 288.443 162.705 288.443 179.185Z" fill="#233D4D"/>
<path d="M306.387 328.146C306.387 328.146 234.63 328.402 234.06 328.146C233.74 327.996 224.102 315.003 215.668 303.359C208.877 301.933 202.872 298.339 198.417 293.328C197.855 292.7 197.319 292.047 196.809 291.373C193.604 293.716 190.255 296.132 186.817 298.514L158.519 251.386C166.03 245.094 173.796 238.914 180.983 232.268C186.609 227.069 192.306 221.665 199.247 218.259C206.451 214.724 214.323 214.532 222.192 214.225C226.187 217.046 233.017 219.842 244.664 221.114C262.247 223.035 275.128 219.006 282.2 215.796C283.685 216.022 284.885 216.265 285.728 216.53C299.596 218.451 310.604 229.254 312.868 243.02C313.081 243.647 313.234 244.241 313.302 244.787C314.268 252.53 306.387 328.141 306.387 328.141V328.146Z" fill="#E85C00"/>
<path d="M235.953 194.786L237.328 219.33L271.047 217.439L264.872 192.921L235.953 194.786Z" fill="#FFA895"/>
<path d="M282.2 215.8C275.128 219.006 262.247 223.039 244.664 221.118C233.013 219.846 226.187 217.046 222.192 214.229C241.289 213.482 270.592 214.037 282.2 215.804V215.8Z" fill="#FFA895"/>
<path d="M339.591 250.396C338.672 253.187 336.983 255.326 335.443 257.661C334.757 258.706 334.068 259.85 333.698 261.11C333.255 262.621 333.323 264.144 333.621 265.69C333.949 267.388 334.451 269.028 334.715 270.743C334.945 272.284 334.983 273.808 334.8 275.358C334.455 278.324 333.357 281.082 331.723 283.365C329.979 285.798 327.566 287.433 324.94 288.163C322.043 288.97 319.043 288.795 316.102 288.487C314.77 288.342 313.345 288.163 311.898 288.048C308.885 290.131 306.409 293.452 303.221 295.185C299.209 297.361 294.57 297.771 290.319 296.329C288.196 295.611 286.226 294.433 284.477 292.858C282.677 291.232 281.085 289.234 279.06 287.988C276.974 286.707 274.549 286.567 272.243 286.464C269.966 286.362 267.689 286.255 265.468 285.623C257.477 283.335 250.711 275.699 248.617 266.338C247.468 261.182 247.736 255.475 245.796 250.571C243.843 245.624 239.515 242.461 238.745 236.818C237.783 229.783 244.443 218.122 244.817 211.22C245.345 201.526 241.506 197.941 246.243 189.408C250.323 182.049 256.579 176.116 263.638 173.167C267.681 171.476 272.277 170.495 276.566 171.139C279.868 171.634 283.064 173.325 285.055 176.355C285.2 176.283 285.362 176.24 285.54 176.24C286.174 176.24 286.911 176.94 286.821 177.742C286.685 179.108 286.668 180.491 286.8 181.866C287.328 187.167 290.098 192.217 293.923 195.068C298.949 198.799 304.945 197.446 310.536 198.415C313.166 198.867 315.753 199.883 317.855 201.834C320.004 203.831 321.217 206.768 321.792 209.863C322.353 212.902 322.362 216.026 322.792 219.082C323.17 221.784 323.847 224.653 325.613 226.582C327.587 228.738 330.592 228.977 332.953 230.308C334.962 231.44 336.638 233.292 337.889 235.443C340.362 239.69 341.179 245.551 339.587 250.404L339.591 250.396Z" fill="#233D4D"/>
<path d="M293.877 188.166C302.727 188.166 309.902 180.969 309.902 172.091C309.902 163.213 302.727 156.016 293.877 156.016C285.026 156.016 277.851 163.213 277.851 172.091C277.851 180.969 285.026 188.166 293.877 188.166Z" fill="#233D4D"/>
<path d="M251.077 200.054C240.485 198.389 232.123 188.251 232.123 177.153C232.123 169.807 235.677 163.298 241.149 159.252C244.345 156.887 248.451 156.298 252.638 155.944C251.698 157.216 250.83 158.543 250.051 159.922C246.974 165.334 245.2 171.464 244.932 177.73C244.604 185.579 246.826 193.459 251.072 200.049L251.077 200.054Z" fill="#FFA895"/>
<path d="M253.183 203.016C251.051 203.707 248.774 204.079 246.413 204.079C234.17 204.079 224.247 194.129 224.247 181.853C224.247 171.301 231.574 162.47 241.404 160.191C243.013 159.824 244.689 159.623 246.409 159.623C247.647 159.623 248.864 159.725 250.051 159.926C246.974 165.338 245.2 171.468 244.932 177.734C244.604 185.584 246.826 193.463 251.072 200.054C251.238 200.318 251.413 200.579 251.591 200.839C252.094 201.586 252.63 202.312 253.179 203.016H253.183Z" fill="#FFA895"/>
<path d="M254.187 154.155C249.264 157.356 245.447 162.018 243.196 167.447C240.855 173.098 240.502 179.458 242.03 185.374C242.902 188.742 244.387 191.965 246.409 194.791C246.809 195.35 247.519 195.619 248.149 195.247C248.698 194.923 249.009 194.065 248.604 193.502C245.243 188.806 243.485 183.091 243.647 177.307C243.796 171.916 245.728 166.7 248.962 162.41C250.753 160.037 252.979 157.975 255.468 156.358C256.838 155.465 255.562 153.254 254.183 154.151L254.187 154.155Z" fill="#233D4D"/>
<path d="M241.379 161.591C241.315 161.441 241.23 161.317 241.136 161.219C241.102 161.142 241.055 161.07 241.009 161.002C240.574 160.434 239.783 160.361 239.221 160.758C239.038 160.882 238.86 161.014 238.677 161.138C237.311 161.377 235.894 161.309 234.545 160.946C233.736 160.733 232.911 160.229 232.051 160.037C230.953 159.789 229.868 160.37 229.54 161.471C229.481 161.667 229.438 161.872 229.4 162.077C229.383 162.116 229.362 162.154 229.345 162.193C228.255 164.869 227.455 167.648 226.953 170.495C226.843 171.118 227.068 171.75 227.689 172.001C228.272 172.236 228.949 172.04 229.281 171.481C229.945 170.354 230.77 169.308 231.706 168.399C231.83 168.399 231.953 168.399 232.077 168.382C233.128 168.271 234 167.566 234.834 166.977C236.477 165.816 238.115 164.664 239.757 163.503C240.068 163.43 240.383 163.358 240.694 163.264C241.353 163.063 241.626 162.184 241.379 161.595V161.591Z" fill="#FFA895"/>
<path d="M249.604 206.414C253.654 206.414 256.936 203.121 256.936 199.059C256.936 194.997 253.654 191.705 249.604 191.705C245.555 191.705 242.272 194.997 242.272 199.059C242.272 203.121 245.555 206.414 249.604 206.414Z" fill="#FFA895"/>
<path d="M240.489 165.428C240.549 164.873 240.277 164.472 239.306 164.489C236.694 164.54 235.63 169.927 238.591 168.672C238.783 168.557 238.936 168.407 239.047 168.215C239.357 167.686 240.387 166.346 240.489 165.424V165.428Z" fill="#233D4D"/>
<path d="M246.847 162.837C246.766 161.714 245.034 156.895 243.204 158.897C242.2 159.994 242.54 161.898 242.753 163.221C242.919 164.246 242.953 166.755 244.055 167.221C244.498 167.409 245.111 167.34 245.447 166.956C246.434 165.829 246.957 164.34 246.851 162.837H246.847Z" fill="#233D4D"/>
<path d="M230.706 173.461C230.681 173.453 230.651 173.44 230.626 173.431C230.557 173.397 230.489 173.367 230.421 173.329C230.255 173.239 230.094 173.133 229.94 173.026C229.834 172.936 229.762 172.872 229.694 172.804C229.557 172.672 229.434 172.531 229.315 172.386C229.298 172.364 229.285 172.343 229.268 172.322C229.213 172.24 229.162 172.159 229.111 172.074C229.017 171.92 228.94 171.762 228.868 171.6C228.86 171.575 228.851 171.553 228.843 171.528C228.809 171.438 228.783 171.344 228.753 171.25C228.711 171.097 228.681 170.934 228.655 170.776C228.638 170.589 228.63 170.401 228.638 170.213C228.664 169.543 228.034 168.907 227.366 168.937C226.651 168.971 226.123 169.496 226.094 170.213C225.992 172.748 227.694 175.079 230.038 175.92C230.668 176.146 231.46 175.668 231.604 175.028C231.766 174.311 231.387 173.696 230.715 173.457L230.706 173.461Z" fill="#F76D6D"/>
<path d="M253.268 196.818C250.826 196.613 248.379 196.541 245.928 196.596C245.417 196.609 244.962 196.908 244.766 197.382C244.553 197.881 244.694 198.372 245.03 198.777C246.357 200.382 247.83 201.851 249.438 203.17C249.953 203.592 250.74 203.712 251.238 203.17C251.668 202.7 251.787 201.817 251.238 201.364C250.391 200.668 249.583 199.93 248.809 199.149C250.298 199.179 251.783 199.247 253.268 199.371C253.932 199.426 254.57 198.743 254.54 198.094C254.506 197.356 253.979 196.878 253.268 196.818Z" fill="#F76D6D"/>
<path d="M271.974 76.0894C279.26 75.957 300.481 81.7024 315.277 90.6661C351.864 112.832 354.434 131.08 354.434 131.08L310.464 146.408C310.464 146.408 284.472 114.595 275.962 105.823C267.451 97.0475 267.421 90.6704 267.421 90.6704L271.97 76.0936L271.974 76.0894Z" fill="#FFA895"/>
<path d="M99.3277 14.47C98.8766 13.5438 98 12.8267 97.2213 12.1779C96.4341 11.5248 95.6085 10.9144 94.7362 10.3681C91.2213 8.15701 87.1362 6.9405 83.0085 6.64598C78.7149 6.33438 74.3489 7.11551 70.3447 8.65642C66.3745 10.1845 62.5192 12.3742 59.3532 15.2469C57.8809 16.5787 56.5489 18.1665 55.7192 19.9849C54.7447 22.1148 54.4809 24.4283 54.6128 26.7504C54.7447 29.145 55.1787 31.531 55.5234 33.9C55.8851 36.3757 56.2426 38.86 56.6043 41.3357C56.7447 42.3217 56.8894 43.3034 57.034 44.2894C56.8809 44.7376 56.9404 45.2925 57.3234 45.5956C59.6043 47.4566 61.8894 49.3177 64.1787 51.1787C64.583 51.5117 65.0596 51.6696 65.5702 51.4434C65.9958 51.2555 66.3958 50.786 66.3489 50.2781C65.9064 45.2712 65.4638 40.2686 65.017 35.2659C64.9149 34.0964 64.7787 32.9268 64.7149 31.7573C64.6681 30.9847 64.6426 30.1139 65.3575 29.6444C66.034 29.1962 66.983 29.1535 67.7702 29.0639C68.9192 28.9358 70.0766 28.7779 71.2213 28.5943C80.0043 27.1943 88.5362 24.0655 96.166 19.4727C97.0468 18.9434 98.0638 18.4312 98.8 17.697C99.6766 16.8177 99.8766 15.5884 99.3362 14.47H99.3277Z" fill="#233D4D"/>
<path d="M80.7745 37.5837C80.234 36.7343 79.217 36.4056 78.2553 36.4056C76.6298 36.4056 74.9447 36.8666 73.4596 37.4941C71.7787 38.2026 70.2553 39.1972 68.9404 40.4649C68.3702 40.6869 68.0511 41.404 68.2128 41.9802C68.4043 42.6845 69.1021 43.0089 69.7787 42.8723C71.6426 42.4924 73.5106 42.1125 75.3745 41.7326C76.3234 41.5406 77.2723 41.3485 78.2213 41.1521C79.0723 40.9771 80.0468 40.9131 80.6638 40.2259C81.3192 39.496 81.2851 38.3776 80.7745 37.5794V37.5837Z" fill="#233D4D"/>
<path d="M79.8638 46.2657C79.8468 46.0779 79.8255 45.8773 79.7787 45.6937C79.7447 45.57 79.6936 45.4462 79.6383 45.3267C79.617 45.2797 79.6 45.2285 79.5745 45.1815C79.5404 45.1047 79.4979 45.0364 79.4511 44.9681C79.2255 44.6522 78.9872 44.3961 78.6511 44.1955C77.9575 43.7857 76.9787 44.1571 76.783 44.9596C76.7149 45.237 76.6766 45.523 76.6638 45.809C76.6511 46.095 76.6936 46.381 76.7404 46.6627C76.7702 46.8377 76.817 47.0127 76.8809 47.1749C76.983 47.4438 77.0936 47.7127 77.2511 47.9517C77.3192 48.0371 77.383 48.1225 77.4511 48.2121C77.566 48.3359 77.7021 48.4255 77.8596 48.4768C77.9575 48.5365 78.0681 48.5621 78.183 48.5621C78.3532 48.6006 78.5192 48.592 78.6894 48.5408C78.8979 48.4725 79.0894 48.3615 79.2511 48.2121C79.3745 48.0969 79.4638 47.9603 79.5149 47.8024C79.5702 47.6999 79.5958 47.5889 79.6085 47.4737C79.7575 47.1621 79.8298 46.8633 79.8638 46.509C79.8723 46.4279 79.8723 46.3425 79.8638 46.2614V46.2657Z" fill="#233D4D"/>
<path d="M94.5702 41.8479C94.5234 41.5704 94.4085 41.3143 94.2936 41.0582C94.1787 40.8661 94.0298 40.7125 93.8383 40.6015C93.6383 40.4862 93.4255 40.4265 93.1958 40.4265C93.1277 40.4265 93.0638 40.4436 93 40.4521C92.9745 40.4521 92.9447 40.4436 92.9192 40.4436C92.5915 40.4564 92.2468 40.5673 92.017 40.8192C91.8 41.0539 91.6128 41.3912 91.6426 41.7241L91.6894 42.2192C91.617 42.676 91.6341 43.1498 91.7447 43.6065C91.766 43.7004 91.8085 43.79 91.8553 43.8754C91.8596 43.9095 91.8638 43.9437 91.8681 43.9778C91.9064 44.1443 91.983 44.2894 92.0979 44.4132C92.2596 44.6224 92.4936 44.8102 92.7575 44.8699C92.983 44.9212 93.2085 44.9212 93.4341 44.8699C93.6 44.8315 93.7447 44.7547 93.8681 44.6394C94.0085 44.5498 94.1149 44.4303 94.1958 44.2809C94.4724 43.7815 94.6128 43.2479 94.6383 42.6802C94.6511 42.4028 94.6085 42.1211 94.5617 41.8479H94.5702Z" fill="#233D4D"/>
<path d="M90.9404 56.2624C90.7149 55.5624 90.0766 55.238 89.3745 55.3703C89.2766 55.3874 89.1745 55.4002 89.0766 55.4215C89.4723 55.3276 89.1489 55.4087 89.0426 55.4173C88.8426 55.4344 88.6426 55.4386 88.4426 55.4301C88.2851 55.4258 88.1192 55.3959 87.9617 55.3917C87.9362 55.3874 87.9106 55.3831 87.8851 55.3789C87.7872 55.3618 87.6894 55.3404 87.5915 55.3191C87.3957 55.2722 87.2043 55.2167 87.0128 55.1526C86.9404 55.127 86.8723 55.1014 86.8 55.0758C86.3915 54.888 86.0468 54.6788 85.7277 54.4398C85.4809 54.2563 85.0298 54.2306 84.7447 54.3117C84.4511 54.3928 84.1277 54.6233 83.983 54.8965C83.8255 55.191 83.7489 55.5539 83.8553 55.8825C83.9617 56.2197 84.1617 56.4374 84.4383 56.6466C86.0383 57.8375 88.1149 58.2088 90.0468 57.8418C90.7021 57.718 91.1362 56.8899 90.9362 56.271L90.9404 56.2624Z" fill="#F76D6D"/>
<path d="M94.8894 48.8481C94.7404 47.192 93.6 46.0608 92.817 44.6821C91.4468 42.2662 91.749 39.2057 93.3532 36.9861C93.7575 36.427 93.4468 35.5647 92.8979 35.2403C92.2553 34.8647 91.5617 35.1379 91.1575 35.697C89.4766 38.0234 88.9915 41.1479 89.7617 43.901C90.1617 45.3309 90.9532 46.445 91.7489 47.6658C92.0511 48.1268 92.366 48.6731 92.3575 49.1683C92.3575 49.3091 92.3362 49.4927 92.2936 49.5951C92.2809 49.625 92.1958 49.753 92.1617 49.8043C92.1362 49.8043 92 49.9024 92.0809 49.8768C91.4298 50.0988 91 50.7519 91.1915 51.4476C91.366 52.0836 92.1064 52.566 92.7575 52.3397C94.2213 51.8361 95.0255 50.3762 94.8851 48.8481H94.8894Z" fill="#F76D6D"/>
<path d="M98.6553 31.3048C98.4638 31.006 98.1106 30.767 97.7404 30.6901C97.5277 30.5066 97.2681 30.3956 96.9745 30.434C94.8042 30.7243 92.7574 31.7018 91.3064 33.3793C90.8936 33.8531 90.4979 34.3482 90.2766 34.9415C89.9702 35.7525 90.2766 36.6873 91.0425 37.1056C91.8255 37.5282 92.6638 37.1953 93.3191 36.7044C93.8128 36.333 94.3106 35.9659 94.8042 35.5946C95.9362 34.7494 97.0723 33.9 98.2042 33.0549C98.4808 32.85 98.6936 32.6366 98.7872 32.2908C98.8723 31.9835 98.834 31.578 98.6596 31.3048H98.6553Z" fill="#233D4D"/>
<path d="M86.9702 86.2056C86.7958 86.8373 86.0553 87.3239 85.4 87.0934C81.8681 85.8556 78.3787 84.4726 74.9532 82.9616C74.8553 82.9189 74.766 82.8805 74.6681 82.8378C66.034 79.0133 57.8 74.3094 50.1021 68.8415C46.7404 66.4597 43.4894 63.9328 40.3404 61.2693C39.8128 60.8254 39.8894 59.9205 40.3404 59.468C40.8553 58.9515 41.617 59.0241 42.1447 59.468C45 61.8882 47.9532 64.1975 51 66.3786C51.1319 66.4725 51.2638 66.5665 51.3957 66.6604C59.1574 72.1752 67.4723 76.8961 76.1702 80.7249C77.9234 81.4889 79.6894 82.2274 81.4723 82.9231C82.2723 83.239 83.0809 83.5463 83.8894 83.8409C84.617 84.1098 85.3447 84.3787 86.0766 84.6305C86.7277 84.861 87.1617 85.497 86.966 86.2056H86.9702Z" fill="white"/>
<path d="M87.5192 69.5074C85.9787 74.3393 83.8723 78.9535 81.2511 83.2902C80.4 84.6988 82.6 85.9836 83.4511 84.5793C86.183 80.059 88.3702 75.2186 89.9745 70.1861C90.4766 68.6153 88.017 67.9452 87.5192 69.5074Z" fill="#1250B3"/>
<path d="M190.268 48.5194C192.421 48.417 186.851 51.3537 183.847 50.5683C182.583 50.2396 181.336 49.7146 180.021 49.6164C178.813 49.5311 177.63 49.7103 176.498 50.1372C174.047 51.072 172.745 53.5349 170.426 54.6404C169.238 55.2081 167.821 55.4941 166.545 55.0374C165.349 54.6191 164.472 53.6843 164.077 52.4848C163.796 51.6269 163.766 50.739 163.902 49.8597C163.426 50.4317 162.877 50.9354 162.217 51.2854C160.872 51.994 159.332 51.9598 157.987 51.2683C156.451 50.4829 155.587 49.1384 155.17 47.6145C154.072 49.2408 152.715 50.7006 150.634 50.8073C148.06 50.9354 146.277 48.7969 145.485 46.509C144.57 47.1792 143.681 47.9048 142.715 48.5024C141.617 49.1853 140.328 49.753 139.009 49.6933C137.609 49.6378 136.374 48.9164 135.583 47.7725C133.915 45.3565 134.809 42.343 136.183 40.038C138.791 35.68 142.821 32.1969 147.481 30.2121C151.102 28.6712 155.072 28.0608 158.979 28.3852C160.532 27.8986 162.119 27.5443 163.728 27.3479C168.979 26.7034 171.204 28.223 174.221 32.739C174.83 33.6524 180.366 34.9842 181.226 35.7611C184.294 38.5185 185.54 39.5344 187.494 43.7302C188.434 45.745 188.872 48.5877 190.264 48.5194H190.268Z" fill="#FFA895"/>
<path d="M187.962 50.4573C184.647 49.7488 181.226 49.0914 177.83 49.561C176.157 49.7915 174.523 50.3165 173.085 51.2214C171.723 52.0794 170.566 53.3087 169.077 53.9617C167.83 54.5081 166.426 54.4611 165.728 53.1593C165.111 52.0111 165.349 50.6323 165.898 49.5012C167.217 46.7822 169.617 44.4474 172.077 42.7613C174.889 40.832 178.145 39.513 181.536 39.0905C182.217 39.0051 182.809 38.5654 182.809 37.8142C182.809 37.191 182.221 36.4526 181.536 36.5379C174.651 37.3959 168.004 41.2332 164.272 47.192C163.323 48.7073 162.643 50.5043 162.868 52.3141C163.077 53.9959 163.979 55.6734 165.562 56.4118C167.379 57.257 169.443 56.7704 171.094 55.7716C172.66 54.824 173.953 53.4538 175.664 52.741C179.323 51.2086 183.566 52.122 187.285 52.9202C188.885 53.2617 189.566 50.7988 187.962 50.4573Z" fill="#F76D6D"/>
<path d="M174.566 29.0682C168.638 29.717 163.017 32.3164 158.762 36.5294C156.621 38.6466 154.613 41.2845 154.055 44.3193C153.545 47.0981 154.26 50.2482 156.545 52.0666C158.821 53.8721 162.591 53.8977 164.506 51.5159C164.936 50.9781 165.03 50.2354 164.506 49.7104C164.06 49.2622 163.579 49.0573 163.145 49.5951C162.068 50.9312 159.604 51.1915 158.213 50.1586C156.477 48.8695 156.136 46.3426 156.643 44.3748C157.272 41.9461 158.94 39.91 160.702 38.1941C162.455 36.4867 164.468 35.0781 166.651 33.9811C169.111 32.7433 171.821 31.9237 174.557 31.625C175.243 31.5524 175.83 31.0914 175.83 30.3487C175.83 29.717 175.247 28.9956 174.557 29.0724L174.566 29.0682Z" fill="#F76D6D"/>
<path d="M175.536 28.4321C168.183 24.518 159.038 25.2778 152.485 30.4298C149.545 32.7433 147.289 35.8422 145.881 39.3039C144.37 43.0217 143.626 47.8322 146.434 51.1275C147.804 52.7324 150.068 53.7142 152.157 53.108C154.221 52.5105 156.472 50.6878 156.196 48.4426C156.111 47.7597 155.643 46.6926 154.894 46.6926C154.272 46.6926 154.132 47.2219 154.217 47.9133C154.37 49.1512 152.383 50.564 151.136 50.7305C149.872 50.897 148.66 49.9921 147.992 48.9933C146.187 46.2871 147.272 42.3217 148.506 39.5941C151.153 33.7421 156.617 29.448 163.017 28.6242C166.855 28.1291 170.826 28.8206 174.247 30.6389C175.694 31.4072 176.983 29.2047 175.532 28.4321H175.536Z" fill="#F76D6D"/>
<path d="M161.983 26.6693C153.447 25.9522 146.421 28.3937 141.728 32.453C139.464 34.4122 137.532 36.8154 136.149 39.4746C134.536 42.5863 133.523 46.5346 136.072 49.4585C137.332 50.9012 139.294 51.486 141.136 50.961C142.983 50.436 144.83 49.1298 146.115 47.7639C147.238 46.5688 145.843 44.5327 144.715 45.7321C143.26 47.2816 139.826 49.9921 137.877 47.6529C136.043 45.4547 137.511 42.2235 138.711 40.0978C141.243 35.6117 145.438 32.0731 150.234 30.2377C152.966 29.1919 155.838 28.6754 158.762 28.7608C160.4 28.8077 163.617 26.8058 161.983 26.6693Z" fill="#F76D6D"/>
<path d="M87.7617 153.079C87.1192 156.844 85.2 160.28 83.0894 163.396C80.8936 166.64 78.5021 169.76 76.1277 172.876C72.3489 177.832 68.4383 182.694 64.2553 187.317C63.2511 185.656 62.1021 183.731 60.8596 181.635C55.8128 173.12 49.2681 161.825 44.9489 154.347C43.3404 151.56 42.0426 149.302 41.2468 147.919C47.783 142.908 54.4596 138.033 61.2809 133.415C67.783 129.022 75.6851 125.048 83.6936 127.473C85.2553 127.947 84.583 130.414 83.017 129.936C81.2894 129.415 79.5277 129.232 77.7319 129.321C77.2638 129.347 76.8043 129.389 76.3447 129.449C77.2723 130.337 78.1872 131.233 79.0851 132.151C84.4809 137.73 89.1447 144.961 87.7617 153.079Z" fill="#FFA895"/>
<path d="M122.336 171.498C121.74 172.061 119.051 172.142 118.281 172.458C106.906 177.141 95.1872 171.669 87.0979 164.186C81.1021 158.641 76.8085 151.867 72.6213 145.196C72.3957 144.837 72.3617 144.483 72.4426 144.171C69.8851 142.489 67.7277 140.27 66.8596 137.517C66.5149 136.437 66.4213 135.293 66.566 134.179C66.5277 133.906 66.566 133.624 66.7234 133.346C67.2128 131.323 68.5192 129.475 70.6 128.404C71.2085 128.092 71.7915 128.16 72.2426 128.421C74.2766 126.927 76.5106 125.689 79.0979 125.006C81.5021 124.374 84.0936 124.314 86.4979 124.972C88.8383 125.608 90.8723 126.794 92.766 128.135C96.5872 130.824 100.081 133.923 103.677 136.838C107.366 139.822 111.132 142.75 114.749 145.806C116.234 147.057 117.677 148.568 118.06 150.412C118.443 152.294 117.872 154.309 116.064 155.461C114.277 156.601 111.949 156.37 109.949 155.88C107.583 155.308 105.251 154.603 102.915 153.963C101.136 153.476 99.2511 152.776 97.4511 152.567C100.689 157.578 107.651 160.938 113.702 162.039C116.881 162.615 120.962 161.996 123.234 164.506C125.149 166.619 124.34 169.611 122.332 171.506L122.336 171.498Z" fill="#FFA895"/>
<path d="M115.17 145.588C112.549 143.249 109.847 140.991 107.111 138.789C104.332 136.552 101.506 134.371 98.634 132.258C95.9319 130.273 93.217 128.237 90.3404 126.508C87.4638 124.784 84.2511 123.525 80.8468 123.747C77.3149 123.977 74.0426 125.437 70.8894 126.944C64.0638 130.205 57.6383 134.234 51.6766 138.895C51.1319 139.318 51.234 140.257 51.6766 140.701C52.2128 141.239 52.9319 141.128 53.4766 140.701C58.3532 136.893 63.5958 133.543 69.0851 130.691C71.8681 129.244 74.7319 127.767 77.7532 126.892C80.6851 126.043 83.5787 126.103 86.4 127.319C89.217 128.536 91.7319 130.435 94.2255 132.202C96.8681 134.081 99.4766 136.01 102.038 137.999C104.6 139.988 107.119 142.033 109.596 144.124C110.817 145.157 112.026 146.194 113.221 147.253C114.243 148.158 115.374 149.135 115.923 150.424C116.306 151.321 116.383 152.606 115.651 153.357C114.732 154.296 113.026 153.929 111.885 153.741C108.111 153.122 104.345 152.443 100.591 151.709C99.9192 151.577 99.217 151.901 99.0255 152.601C98.8553 153.229 99.2383 154.04 99.9149 154.172C103.506 154.872 107.106 155.525 110.719 156.123C112.268 156.379 113.894 156.712 115.447 156.302C116.949 155.905 118.106 154.765 118.54 153.271C119.443 150.164 117.349 147.522 115.179 145.588H115.17Z" fill="#F76D6D"/>
<path d="M116.187 173.991C114.698 175.245 113.111 176.436 111.477 177.529C108.306 179.65 104.157 182.886 100.119 182.732C92.1617 182.429 86.617 174.097 83.1106 168.232C79.983 162.995 78.0511 157.275 76.383 151.526C76.2426 151.308 76.1532 151.065 76.1532 150.834C76.1532 150.809 76.1575 150.787 76.1575 150.757C75.8979 149.848 75.6426 148.935 75.383 148.017C74.9149 146.348 77.7447 145.644 78.2085 147.304C78.4085 148.017 78.6085 148.721 78.8128 149.434C82.8085 149.451 86.4723 151.795 89.017 154.471C91.9489 157.553 93.9149 161.356 97.2681 164.109C99.8681 166.248 103.362 167.515 106.851 167.682C107.843 167.724 108.851 167.707 109.83 167.584C110.851 167.451 111.847 167.182 112.872 167.063C114.753 166.845 116.97 167.315 117.906 169.001C118.945 170.862 117.689 172.714 116.187 173.978V173.991Z" fill="#FFA895"/>
<path d="M64.2511 187.317C63.0426 188.661 61.8128 189.984 60.5489 191.286C58.834 193.062 57.0723 194.821 55.2468 196.494C50.166 203.178 42.1447 207.494 33.1191 207.494C17.7574 207.494 5.30638 195.004 5.30638 179.595C5.30638 164.186 17.7574 151.696 33.1191 151.696C34.1532 151.696 35.166 151.752 36.1702 151.863C37.8511 150.531 39.5404 149.212 41.2425 147.91C42.0383 149.293 43.3362 151.551 44.9447 154.339C49.2638 161.817 55.8085 173.115 60.8553 181.627C62.0979 183.723 63.2468 185.648 64.2511 187.308V187.317Z" fill="#E85C00"/>
<path d="M125.409 165.462C124.945 162.918 122.506 161.236 120.145 160.656C117.523 160.016 114.779 160.28 112.145 159.67C107.064 158.488 102.46 155.389 99.5447 151.039C98.6341 149.682 96.4298 150.958 97.3447 152.328C99.9319 156.187 103.6 159.17 107.872 160.959C110.017 161.86 112.268 162.41 114.583 162.632C116.923 162.854 119.651 162.594 121.638 164.101C122.336 164.63 122.906 165.39 122.953 166.286C123.009 167.306 122.438 168.245 121.723 168.92C120.128 170.426 117.574 170.687 115.485 170.845C110.987 171.19 106.477 170.503 102.255 168.928C97.5192 167.161 93.2511 164.216 89.9149 160.408C89.4596 159.892 88.5787 159.943 88.1149 160.408C87.6043 160.925 87.6596 161.693 88.1149 162.214C94.5958 169.607 104.506 173.833 114.306 173.466C116.843 173.372 119.57 173.107 121.851 171.912C124.174 170.7 125.902 168.156 125.409 165.462Z" fill="#F76D6D"/>
<path d="M115.392 172.275C114.749 171.899 114.051 172.172 113.651 172.731C111.421 175.852 107.37 177.094 103.689 176.774C99.2638 176.389 95.2638 173.871 92.034 170.968C90.0553 169.193 88.2638 167.221 86.4979 165.24C85.4043 164.011 83.6085 165.825 84.6979 167.046C88.0553 170.815 91.6043 174.605 96.1106 176.995C100.298 179.215 105.319 180.21 109.877 178.515C112.289 177.614 114.349 176.125 115.855 174.02C116.255 173.461 115.953 172.599 115.4 172.275H115.392Z" fill="#F76D6D"/>
<path d="M84.2681 167.08C83.6511 166.329 83.034 165.582 82.4213 164.83C82.017 164.34 81.0213 164.327 80.6213 164.83C76.8808 169.517 73.1404 174.204 69.4 178.891C68.9702 179.429 68.8766 180.171 69.4 180.696C69.8468 181.144 70.766 181.238 71.2 180.696C74.6468 176.381 78.0894 172.065 81.5362 167.75C81.8468 168.13 82.1574 168.51 82.4723 168.885C82.9106 169.419 83.8213 169.342 84.2723 168.885C84.7957 168.36 84.7106 167.613 84.2723 167.08H84.2681Z" fill="#F76D6D"/>
<path d="M45.2 144.777C44.8213 144.128 44.0894 144.035 43.4596 144.321C35.6128 147.872 27.766 151.419 19.9234 154.97C19.2979 155.252 19.1447 156.165 19.4681 156.716C19.8468 157.365 20.5787 157.459 21.2085 157.173C29.0553 153.621 36.9021 150.074 44.7447 146.523C45.3702 146.241 45.5234 145.328 45.2 144.777Z" fill="white"/>
<path d="M73.4468 179.983C72.634 182.374 70.5106 184.124 68.834 185.857C66.9234 187.842 65.017 189.822 63.1064 191.807C61.4766 193.497 59.7277 195.286 57.4638 196.003C55.1404 196.737 52.8809 195.853 51.2255 194.112C49.5957 192.396 48.3575 190.206 47.1021 188.2C43.2596 182.092 40.1192 175.544 37.1404 168.949C35.1234 164.489 28.7362 155.359 31.234 150.39C32.234 148.405 34.0043 146.941 35.7404 145.691C37.8809 144.154 40.0936 142.724 42.2723 141.251C43.434 140.466 44.5957 139.681 45.7532 138.891C47.7915 137.508 49.5702 135.566 52.2851 136.505C55.5234 137.623 56.1702 142.592 57.2723 145.405C58.2085 147.786 59.2085 150.138 60.2681 152.46C62.4255 157.207 64.8298 161.83 67.4638 166.312C68.7872 168.57 70.1745 170.789 71.6128 172.975C72.966 175.028 74.3234 177.414 73.4511 179.979L73.4468 179.983Z" fill="#1250B3"/>
<path d="M109.14 177.563C108.506 177.192 107.796 177.457 107.4 178.02C105.37 180.922 101.409 181.96 98.0681 181.251C94.0724 180.402 90.7745 177.632 88.3745 174.417C86.8851 172.424 85.6468 170.251 84.4766 168.057C83.7021 166.606 81.5064 167.895 82.2766 169.346C84.5575 173.628 87.1787 177.811 91.1021 180.76C94.6851 183.454 99.366 184.824 103.749 183.492C106.119 182.771 108.166 181.345 109.592 179.309C109.987 178.746 109.694 177.892 109.136 177.563H109.14Z" fill="#F76D6D"/>
<path d="M234.06 328.146H306.387C306.387 328.146 315.46 332.884 321.472 338.339C327.485 343.794 330.477 350 330.477 350H209.306C209.306 350 215.136 342.479 221.14 337.178C227.145 331.876 234.064 328.146 234.064 328.146H234.06Z" fill="#233D4D"/>
<path d="M153.162 93.0351C151.345 93.0351 149.872 94.512 149.872 96.3346C149.872 98.1573 151.345 99.6341 153.162 99.6341C154.979 99.6341 156.451 98.1573 156.451 96.3346C156.451 94.512 154.979 93.0351 153.162 93.0351Z" fill="white"/>
<path d="M162.217 93.0351C160.4 93.0351 158.928 94.512 158.928 96.3346C158.928 98.1573 160.4 99.6341 162.217 99.6341C164.034 99.6341 165.506 98.1573 165.506 96.3346C165.506 94.512 164.034 93.0351 162.217 93.0351Z" fill="white"/>
<path d="M171.311 93.0351C169.494 93.0351 168.021 94.512 168.021 96.3346C168.021 98.1573 169.494 99.6341 171.311 99.6341C173.128 99.6341 174.6 98.1573 174.6 96.3346C174.6 94.512 173.128 93.0351 171.311 93.0351Z" fill="white"/>
<path d="M60.017 97.2011C56.417 96.0486 52.766 95.0754 49.0894 94.2217C42.6596 92.7235 36.1447 91.4601 29.6383 90.3417C23.766 89.3344 17.6766 88.7069 11.8255 90.06C12.4723 89.1209 13.1915 88.1221 13.9745 87.0721C16.2723 86.752 18.6085 86.6666 20.9234 86.769C27.6298 87.0593 34.2809 88.5703 40.8426 89.8637C47.5277 91.1826 54.1915 92.651 60.6894 94.7382C62.2468 95.2334 61.5745 97.7005 60.0128 97.2011H60.017Z" fill="white"/>
<path d="M183.455 193.945C183.251 191.585 181.732 189.626 179.728 188.456C174.621 185.477 169.004 188.691 163.94 189.997C161.536 190.616 159.017 190.753 156.749 189.592C154.821 188.606 153.26 187.022 152.115 185.195C149.298 180.696 148.962 175.032 148.294 169.901C147.911 166.948 147.523 163.994 147.14 161.036C146.957 159.623 146.77 158.206 146.587 156.793C146.4 155.363 146.251 153.912 145.864 152.52C145.196 150.121 143.719 147.851 141.302 146.963C138.987 146.118 136.447 147.099 134.779 148.781C132.894 150.681 132.243 153.318 131.987 155.905C131.719 158.671 131.723 161.488 131.706 164.267C131.672 170.093 131.987 175.928 132.945 181.682C133.179 183.099 133.46 184.508 133.779 185.908C134.145 187.509 136.6 186.83 136.234 185.229C134.996 179.808 134.447 174.268 134.298 168.71C134.221 165.91 134.243 163.11 134.323 160.314C134.396 157.817 134.34 155.188 135.2 152.806C135.826 151.073 137.379 149.285 139.34 149.204C141.468 149.114 142.804 151.159 143.345 152.973C143.715 154.215 143.877 155.508 144.043 156.789C144.226 158.202 144.413 159.619 144.596 161.031C144.966 163.861 145.332 166.691 145.702 169.521C146.387 174.784 146.762 180.329 149.17 185.148C151.183 189.173 154.906 192.528 159.506 192.981C162.289 193.258 165.055 192.4 167.655 191.508C170.2 190.633 172.834 189.634 175.57 189.801C177.464 189.916 179.426 190.859 180.413 192.541C181.323 194.091 180.906 195.819 179.723 197.091C178.353 198.564 176.481 199.473 174.685 200.314C172.081 201.531 169.477 202.743 166.868 203.955C164.311 205.146 161.74 206.307 159.2 207.532C156.97 208.612 154.702 210.029 153.574 212.334C153.03 213.448 152.723 214.686 152.889 215.928C153.213 226.002 153.06 236.079 152.417 246.132C152.234 248.996 152.009 251.86 151.749 254.715C151.685 255.403 152.379 255.992 153.021 255.992C153.762 255.992 154.23 255.403 154.294 254.715C155.213 244.625 155.651 234.496 155.596 224.362C155.579 221.494 155.523 218.621 155.43 215.753C155.43 215.685 155.417 215.629 155.404 215.565C155.294 213.252 157.115 211.574 159.009 210.499C161.489 209.086 164.183 208.002 166.77 206.798C169.451 205.547 172.132 204.301 174.817 203.05C176.906 202.077 179 201.125 180.766 199.614C182.396 198.218 183.638 196.161 183.451 193.941L183.455 193.945Z" fill="#F76D6D"/>
<path d="M131.757 164.958C127.77 166.175 125.004 169.577 123.626 173.41C121.94 178.097 122.557 183.245 123.157 188.072C123.243 188.755 123.681 189.348 124.43 189.348C125.051 189.348 125.787 188.759 125.702 188.072C125.153 183.65 124.519 178.959 125.898 174.627C126.906 171.451 129.149 168.424 132.434 167.426C133.996 166.952 133.332 164.485 131.757 164.963V164.958Z" fill="#F76D6D"/>
<path d="M123.366 173.892C117.779 180.082 114.311 187.931 113.43 196.229C113.357 196.916 114.068 197.505 114.702 197.505C115.451 197.505 115.902 196.916 115.974 196.229C116.779 188.644 120.064 181.354 125.166 175.698C126.264 174.481 124.468 172.672 123.366 173.892Z" fill="#F76D6D"/>
<path d="M265.847 97.4444C262.081 97.4658 258.362 98.3963 255.009 100.121C253.34 100.979 251.787 102.054 250.37 103.284C249.009 104.47 247.804 105.823 246.468 107.04C245.315 108.09 244.017 109.08 242.515 109.464C241.379 109.755 240.026 109.729 239.004 109.268C237.791 108.722 237.149 107.663 237.234 106.237C237.345 104.415 238.468 102.703 239.362 101.175C241.655 97.2524 244.302 93.5431 247.264 90.1027C247.715 89.5819 247.774 88.8094 247.264 88.2971C246.804 87.8362 245.915 87.7721 245.464 88.2971C242.638 91.5796 240.068 95.084 237.817 98.789C235.851 102.029 233.021 106.562 235.94 110.109C238.043 112.661 242.085 112.653 244.834 111.308C248.336 109.601 250.523 106.131 253.664 103.924C257.23 101.414 261.485 100.031 265.843 100.005C267.481 99.997 267.485 97.4402 265.843 97.453L265.847 97.4444Z" fill="#F76D6D"/>
<path d="M245.247 89.5435C239.796 88.6685 234.196 89.0484 228.923 90.7131C226.323 91.5369 223.8 92.6552 221.46 94.0553C219.149 95.4383 217.089 97.3377 214.596 98.4048C212.562 99.2756 210.247 99.1177 208.928 97.1584C207.672 95.2974 207.694 92.9882 208.566 90.9735C209.592 88.6045 211.511 86.6538 213.519 85.0915C215.549 83.5122 217.868 82.2616 220.272 81.3567C226.579 78.9749 233.396 78.7828 240.043 79.2779C240.728 79.3291 241.315 78.6547 241.315 78.0017C241.315 77.2675 240.732 76.7766 240.043 76.7254C233.677 76.2559 227.111 76.4095 220.987 78.4072C215.685 80.1359 210.349 83.2817 207.255 88.0667C205.753 90.393 204.957 93.2357 205.651 95.9761C206.281 98.4603 208.119 100.735 210.685 101.32C213.621 101.995 216.383 100.548 218.749 98.9512C221.128 97.3463 223.413 95.7243 226.034 94.5291C231.766 91.9168 238.349 91.0033 244.566 92.0022C245.243 92.1131 245.936 91.8272 246.132 91.1101C246.298 90.5039 245.923 89.6502 245.243 89.5393L245.247 89.5435Z" fill="#F76D6D"/>
<path d="M241.728 72.2905C232.877 69.4733 223.255 67.3263 214.111 70.1007C206.243 72.4911 199.37 78.962 198.672 87.516C198.472 89.9576 198.911 92.5613 200.506 94.4907C201.945 96.2322 204.396 97.167 206.591 96.4968C208.153 96.0188 207.489 93.5516 205.915 94.0339C204.519 94.4608 203.043 93.7309 202.226 92.5656C201.187 91.0844 201.068 89.1636 201.226 87.4178C201.523 84.0458 203.166 80.8316 205.413 78.3474C210.757 72.4399 219.064 70.8349 226.694 71.5008C231.596 71.9276 236.379 73.2594 241.055 74.7491C242.621 75.2485 243.289 72.7813 241.732 72.2862L241.728 72.2905Z" fill="#F76D6D"/>
<path d="M201.072 79.709C197.434 80.5456 193.911 82.6115 191.66 85.6379C190.489 87.2129 189.889 89.2063 190.298 91.157C190.694 93.0564 192.166 94.401 193.936 95.0327C196.162 95.8267 198.566 95.2547 200.762 94.6785C202.345 94.2644 201.672 91.7972 200.085 92.2156C198.277 92.6894 196.191 93.304 194.387 92.4802C192.766 91.7375 192.37 90.0045 192.987 88.4124C193.621 86.7776 195.106 85.4543 196.506 84.4811C198.102 83.3756 199.855 82.6115 201.745 82.1762C203.34 81.8091 202.664 79.3462 201.068 79.7133L201.072 79.709Z" fill="#F76D6D"/>
<path d="M153.2 252.543V255.719C147.719 259.88 142.238 264.042 136.757 268.199C136.209 268.618 135.332 268.281 135.017 267.738C134.638 267.094 134.923 266.411 135.477 265.993L153.2 252.539V252.543Z" fill="#F76D6D"/>
<path d="M219.549 275.989C212.506 281.769 205.46 287.553 198.417 293.328C197.855 292.7 197.319 292.047 196.809 291.373C203.787 285.64 210.766 279.912 217.745 274.18C218.281 273.74 219.017 273.655 219.549 274.18C219.996 274.632 220.077 275.55 219.549 275.989Z" fill="white"/>
<path d="M307.719 167.123C307.332 166.555 306.6 166.299 305.979 166.666C305.417 166.995 305.132 167.84 305.523 168.412C308.945 173.423 308.787 180.739 304.889 185.473C301.021 190.168 294.068 191.747 288.485 189.434C285.54 188.213 282.064 185.191 282.677 181.618C282.792 180.94 282.498 180.244 281.787 180.047C281.175 179.877 280.34 180.257 280.221 180.94C279.515 185.063 282.179 188.776 285.587 190.817C288.634 192.639 292.34 193.335 295.847 192.917C299.464 192.481 302.932 191.009 305.587 188.473C308.226 185.951 309.838 182.476 310.328 178.878C310.881 174.806 310.055 170.546 307.723 167.131L307.719 167.123Z" fill="#233D4D"/>
<path d="M325.706 229.122C323.136 225.208 323.153 220.389 323.332 215.873C323.502 211.566 323.783 207.25 322.643 203.037C321.519 198.871 318.949 195.307 314.8 193.809C309.898 192.038 304.711 193.536 299.719 193.903C297.123 194.095 294.434 193.988 292.094 192.738C290.204 191.726 288.702 190.147 288.323 187.978C288.204 187.3 287.374 186.915 286.757 187.086C286.043 187.282 285.749 187.974 285.868 188.657C286.66 193.156 291.17 195.824 295.37 196.37C300.643 197.057 305.826 195.107 311.102 195.593C313.209 195.789 315.323 196.498 316.911 197.932C318.281 199.17 319.23 200.788 319.826 202.525C321.196 206.49 321.021 210.682 320.834 214.81C320.596 220.094 320.489 225.805 323.511 230.407C324.409 231.773 326.613 230.496 325.711 229.118L325.706 229.122Z" fill="#233D4D"/>
<path d="M343.498 236.685C342.911 232.861 340.855 229.284 337.647 227.094C333.932 224.559 329.311 224.273 325.247 222.57C323.277 221.746 321.374 220.512 320.349 218.579C319.455 216.897 319.302 214.852 320.443 213.26C320.843 212.701 320.54 211.839 319.987 211.514C319.345 211.139 318.647 211.412 318.247 211.971C315.834 215.343 317.438 220.12 320.374 222.587C323.792 225.455 328.238 226.057 332.34 227.402C334.226 228.021 336.081 228.861 337.536 230.249C338.783 231.435 339.74 232.929 340.328 234.547C341.57 237.962 341.43 241.765 339.915 245.069C338.085 249.064 334.783 252.159 330.962 254.229C329.519 255.01 330.804 257.217 332.247 256.436C335.843 254.485 339.034 251.668 341.166 248.146C343.26 244.685 344.111 240.689 343.498 236.681V236.685Z" fill="#233D4D"/>
</g>
<defs>
<clipPath id="clip0_275_2794">
<rect width="356" height="350" fill="white"/>
</clipPath>
</defs>
</svg>
