<svg width="382" height="340" viewBox="0 0 382 340" fill="none" xmlns="http://www.w3.org/2000/svg">
<g clip-path="url(#clip0_275_2959)">
<path d="M275.026 168.679C275.026 168.679 265.767 164.31 266.808 158.014C267.743 152.378 271.892 151.474 271.892 151.474C271.892 151.474 270.801 142.888 277.781 141.331C284.142 139.912 291.932 143.293 297.394 146.238C304.498 150.064 318.528 157.223 321.738 164.59C324.133 170.098 331.081 186.844 316.677 198.367C307.574 205.65 299.361 209.067 296.241 208.533C279.846 205.725 275.03 168.683 275.03 168.683L275.026 168.679Z" fill="#233D4D"/>
<path d="M298.951 196.027C298.511 196.623 298.043 197.197 297.549 197.744C293.401 202.38 287.365 205.294 280.652 205.294C268.126 205.294 257.973 195.146 257.973 182.631C257.973 175.926 260.884 169.907 265.509 165.765C268.905 162.721 273.214 160.688 277.977 160.128C278.337 163.335 278.987 166.512 279.909 169.604C281.947 176.473 285.308 182.902 289.759 188.512C291.242 190.385 296.067 193.784 298.951 196.022V196.027Z" fill="#FFA895"/>
<path d="M268.545 167.517C267.686 168.425 266.831 169.342 265.972 170.249L264.708 171.588C264.294 172.024 263.902 172.518 263.426 172.887C262.745 173.417 261.885 173.559 261.098 173.145C260.47 172.816 260.029 172.189 259.865 171.513C259.718 170.885 259.749 170.236 259.749 169.604V167.762C259.749 167.13 260.345 166.396 261.031 166.481C261.587 166.548 262.139 166.556 262.696 166.516C262.789 166.508 262.874 166.494 262.963 166.485C262.989 166.481 263.221 166.445 263.261 166.441C263.528 166.387 263.791 166.33 264.049 166.249C264.311 166.178 264.561 166.085 264.814 165.991C264.903 165.951 264.952 165.929 265.006 165.902C265.135 165.845 265.264 165.778 265.393 165.711C265.616 165.591 265.829 165.466 266.039 165.324C266.159 165.248 266.275 165.164 266.395 165.084C266.47 165.022 266.515 164.986 266.559 164.95C267.107 164.492 267.824 164.448 268.371 164.95C268.629 165.186 268.758 165.564 268.741 165.938C269.039 166.427 268.941 167.104 268.549 167.517H268.545Z" fill="#FFA895"/>
<path d="M298.951 196.027C298.511 196.623 298.043 197.197 297.549 197.744C294.006 197.766 289.016 196.796 286.586 196.796C274.064 196.796 263.911 186.648 263.911 174.133C263.911 171.175 264.476 168.354 265.509 165.765C267.734 160.163 272.132 155.661 277.661 153.299C277.616 155.576 277.723 157.863 277.981 160.132C278.342 163.34 278.992 166.516 279.913 169.609C281.952 176.478 285.313 182.907 289.764 188.517C291.246 190.39 296.071 193.789 298.956 196.027H298.951Z" fill="#FFA895"/>
<path d="M155.133 232.628C157.132 235.649 160.724 237.082 164.045 238.123C167.7 239.271 171.505 239.938 175.325 240.16C181.828 240.539 188.363 239.555 194.465 237.322C194.492 237.335 194.528 237.353 194.559 237.366C195.258 237.642 196.068 237.651 196.78 237.42C198.325 236.917 199.486 235.538 199.66 233.927C199.851 232.228 198.961 230.515 197.684 229.434C194.706 226.92 190.219 227.427 186.631 227.846C182.794 228.291 178.877 229.082 175.004 228.598C173.13 228.366 171.372 227.748 169.752 226.8C168.118 225.848 166.613 224.691 164.931 223.81C162.095 222.316 158.183 221.657 155.619 224.046C153.273 226.226 153.473 230.106 155.133 232.624V232.628Z" fill="#F76D6D"/>
<path d="M223.626 43.2708V169.066C223.626 178.813 216.45 186.71 207.597 186.71H35.2278C26.3741 186.71 19.1986 178.809 19.1986 169.066V43.2708C19.1986 42.995 19.2031 42.7147 19.212 42.4433C19.6081 33.0826 26.6234 25.6172 35.2234 25.6172H207.592C216.192 25.6172 223.208 33.0782 223.604 42.4433C223.613 42.7147 223.617 42.9905 223.617 43.2708H223.626Z" fill="#EDEDED"/>
<path d="M223.608 42.4433H19.212C19.6081 33.0826 26.6234 25.6172 35.2234 25.6172H207.592C216.192 25.6172 223.208 33.0782 223.604 42.4433H223.608Z" fill="#E0E0E0"/>
<path d="M176.811 69.7244C176.322 73.8264 175.632 77.9506 173.905 81.7367C172.258 85.3759 169.484 88.2856 165.799 89.8828C161.824 91.6001 157.435 92.0628 153.179 92.5966C148.474 93.1884 143.747 93.5977 139.002 93.611C134.266 93.6199 129.516 93.2328 124.878 92.2496C122.247 91.6935 119.265 91.0128 116.99 89.4379C114.186 90.0385 111.35 90.5145 108.506 90.7815C103.832 91.2219 99.0199 91.0084 94.5151 89.6069C90.5713 88.379 86.8099 86.3013 83.9521 83.2938C81.1567 80.353 79.434 76.6915 79.0156 72.6608C78.6417 68.9815 79.4652 65.0085 81.6641 61.9876C84.4284 58.2016 88.7907 56.6222 93.0239 55.0428C95.4633 54.1352 97.9026 53.2187 100.337 52.3111C102.305 51.577 104.344 50.8563 105.519 49.0055C106.681 47.177 107.099 44.9392 107.46 42.8392C107.86 40.4679 108.065 38.0744 108.292 35.6853C108.737 30.9516 109.28 26.2 111.194 21.8045C112.726 18.2987 115.076 15.1354 117.907 12.5684C122.425 8.46196 128.243 5.72584 134.315 5.06739C134.426 4.85384 134.595 4.66253 134.804 4.51127C136.678 3.17657 139.077 3.67931 141.143 4.17759C143.609 4.76931 146.084 5.33433 148.537 5.95274C150.856 6.54445 153.086 7.34972 154.973 8.86682C156.714 10.2727 158.018 12.1591 159.327 13.952C160.675 15.8028 162.006 17.7025 162.932 19.8069C163.925 22.0758 164.383 24.4472 164.205 26.9252C164.049 29.1097 163.56 31.263 163.026 33.3896C164.018 33.9769 164.966 34.622 165.874 35.3338C168.808 37.6384 171.229 40.6192 173.023 43.8847C177.319 51.7105 177.84 61.0089 176.807 69.7066L176.811 69.7244Z" fill="#233D4D"/>
<path d="M174.541 79.4588C172.369 80.6867 170.152 81.8212 167.94 82.9023C162.625 85.505 157.177 87.8763 151.479 89.509C145.861 91.1196 140.092 91.8892 134.252 91.6001C122.456 91.0084 111.23 86.5327 101.099 80.7045C95.9529 77.7415 91.0298 74.4181 86.1956 70.979C85.5591 70.5252 84.927 70.0759 84.2904 69.6132C92.7747 69.1461 110.037 69.1772 137.773 73.4571C154.239 75.9975 166.146 77.9906 174.537 79.4632L174.541 79.4588Z" fill="#FFA895"/>
<path d="M92.5833 98.714C92.0892 109.076 88.7996 119.153 84.0055 128.3C81.5306 133.029 78.6773 137.634 75.134 141.638C63.3914 154.9 48.0477 166.134 33.4829 176.082C27.9455 179.863 20.6052 184.344 13.5988 182.288C7.44263 180.477 4.43798 173.857 2.45268 168.318C0.356105 162.468 -0.387268 156.146 0.191405 149.962C1.16625 139.565 5.533 129.901 11.7782 121.617C15.0856 117.231 18.6689 113.044 22.2478 108.88C25.8088 104.733 29.4545 100.658 33.2337 96.7075C36.9639 92.8013 40.8187 89.0197 44.8427 85.4249C48.5106 82.146 52.3566 79.0272 56.5453 76.4379C60.6583 73.8887 65.1631 71.8555 69.9171 70.8812C74.7557 69.889 80.2264 69.8446 84.3616 72.9277C87.9405 75.5926 89.997 79.7257 91.1455 83.9478C92.4453 88.7171 92.8192 93.789 92.5833 98.714Z" fill="#E85C00"/>
<path d="M212.079 111.536C212.079 128.451 198.369 142.158 181.45 142.158C180.11 142.158 178.788 142.056 177.497 141.896L177.435 142.158L158.129 186.71H63.2757C60.3156 172.572 52.0183 124.812 48.702 109.965C48.2079 108.395 47.8518 106.767 47.6115 105.098C47.4156 104.217 47.3088 103.732 47.3088 103.732L47.4379 103.59C47.3577 102.678 47.3088 101.753 47.3088 100.818C47.3088 83.9122 61.0189 70.2049 77.9428 70.2049C77.9428 70.2049 78.7263 70.067 80.3555 69.9068C81.3481 69.8045 82.6568 69.6977 84.2949 69.6043C84.9314 70.067 85.5635 70.5163 86.2001 70.9701C91.0342 74.4092 95.9574 77.7415 101.103 80.6956C111.234 86.5282 122.461 91.0039 134.257 91.6001C140.097 91.8892 145.861 91.1196 151.483 89.5046C157.177 87.8763 162.629 85.5005 167.944 82.8979C170.152 81.8168 172.373 80.6867 174.546 79.4543C175.961 79.7079 177.279 79.9437 178.498 80.1617C180.092 80.4509 181.525 80.709 182.803 80.9537C186.035 81.096 189.142 81.7322 192.035 82.8C203.737 87.111 212.079 98.3492 212.079 111.531V111.536Z" fill="#E85C00"/>
<path d="M188.229 81.0782C187.601 83.1337 186.302 85.2825 184.054 86.2079C181.877 87.111 179.206 86.9464 177.199 85.7585C175.796 84.9266 174.733 83.712 174.092 82.3328C172.249 83.2849 169.881 83.2716 167.833 82.5241C164.762 81.4119 162.781 78.8982 161.539 76.2377C160.373 73.7374 159.776 71.0547 159.193 68.4075C158.525 65.4134 157.978 62.397 157.591 59.3672C156.829 53.3566 156.789 47.2571 158.036 41.2999C158.663 38.328 159.629 35.4272 160.956 32.6511C162.211 30.0395 163.92 27.4769 166.395 25.6484C168.826 23.8554 171.977 22.632 175.182 22.9389C176.878 23.0991 178.436 23.6597 179.651 24.7541C180.666 25.6706 181.365 26.8096 182.011 27.9485C182.353 28.122 182.598 28.4423 182.576 28.905C182.344 34.6887 182.086 40.4724 181.877 46.2561C181.703 51.1143 181.672 56.0661 183.204 60.782C184.668 65.3066 187.437 69.4486 188.376 74.12C188.843 76.4201 188.923 78.8003 188.238 81.0649L188.229 81.0782Z" fill="#233D4D"/>
<path d="M150.148 67.5756C162.671 67.5756 172.823 57.4289 172.823 44.9125C172.823 32.396 162.671 22.2494 150.148 22.2494C137.625 22.2494 127.473 32.396 127.473 44.9125C127.473 57.4289 137.625 67.5756 150.148 67.5756Z" fill="#FFA895"/>
<path d="M169.357 50.3139C178.212 41.4634 178.212 27.1139 169.357 18.2634C160.501 9.41295 146.144 9.41295 137.289 18.2634C128.434 27.1139 128.434 41.4634 137.289 50.3139C146.144 59.1644 160.501 59.1644 169.357 50.3139Z" fill="#FFA895"/>
<path d="M159.536 50.0688L145.283 79.9304L112.659 77.2877L132.062 41.0596L159.536 50.0688Z" fill="#FFA895"/>
<path d="M128.577 44.472C132.876 44.472 136.362 40.9882 136.362 36.6907C136.362 32.3933 132.876 28.9095 128.577 28.9095C124.277 28.9095 120.791 32.3933 120.791 36.6907C120.791 40.9882 124.277 44.472 128.577 44.472Z" fill="#FFA895"/>
<path d="M130.584 36.8821C130.486 36.8465 130.388 36.8109 130.291 36.7708C130.259 36.7575 130.228 36.7441 130.197 36.7263C129.979 36.6285 129.77 36.5172 129.565 36.3971C129.369 36.2859 129.178 36.1658 128.991 36.0367C128.915 35.9834 128.733 35.8988 128.688 35.8187C128.701 35.841 128.924 36.0056 128.786 35.8944C128.733 35.8499 128.679 35.8098 128.626 35.7654C128.278 35.4762 127.954 35.1558 127.655 34.8133C127.589 34.7332 127.522 34.6531 127.455 34.573C127.428 34.533 127.397 34.4974 127.37 34.4574C127.232 34.2616 127.103 34.0614 126.983 33.8567C126.64 33.2784 125.812 33.0203 125.225 33.3941C124.642 33.7678 124.397 34.533 124.766 35.1514C125.933 37.1179 127.758 38.5771 129.903 39.3468C130.535 39.5737 131.337 39.0887 131.483 38.4525C131.648 37.7318 131.265 37.1178 130.589 36.8732L130.584 36.8821Z" fill="#F76D6D"/>
<path d="M153.589 43.8625C153.495 43.6 153.375 43.3464 153.237 43.1017C153.17 43.0172 153.104 42.9282 153.037 42.8437C152.921 42.7191 152.783 42.6301 152.623 42.5767C152.52 42.5189 152.414 42.4878 152.298 42.4878C152.209 42.47 152.124 42.4611 152.035 42.4655C151.92 42.4789 151.804 42.4967 151.688 42.51C151.55 42.5501 151.43 42.6123 151.314 42.688C151.154 42.7903 151.047 42.8748 150.949 42.9594C150.927 42.9772 150.909 42.995 150.891 43.0172C150.807 43.1151 150.722 43.2218 150.651 43.3286C150.584 43.4309 150.535 43.4843 150.495 43.5422C150.424 43.6445 150.384 43.7557 150.335 43.8714C150.29 43.9737 150.246 44.0716 150.224 44.1784C150.197 44.3207 150.157 44.521 150.17 44.6811C150.197 45.0192 150.255 45.3129 150.433 45.6109C150.513 45.7444 150.606 45.8734 150.718 45.9802C150.807 46.0647 150.918 46.1493 151.025 46.2205C151.047 46.2383 151.074 46.2516 151.096 46.2605C151.372 46.3984 151.559 46.4429 151.866 46.4652C152.035 46.4785 152.218 46.4518 152.378 46.3984C152.52 46.3495 152.69 46.2872 152.819 46.1938C152.948 46.1003 153.09 46.0069 153.193 45.8779C153.295 45.7489 153.406 45.6243 153.477 45.4775C153.544 45.3307 153.629 45.1616 153.656 44.9925C153.682 44.8057 153.718 44.6233 153.696 44.4364C153.673 44.2407 153.656 44.0405 153.589 43.8581V43.8625Z" fill="#233D4D"/>
<path d="M168.843 45.5531C168.835 45.4152 168.812 45.2728 168.79 45.1349C168.786 45.0993 168.777 45.0637 168.763 45.0326C168.701 44.8724 168.657 44.7567 168.603 44.6455C168.59 44.6144 168.425 44.4053 168.398 44.3786C168.407 44.3919 168.225 44.2184 168.127 44.1695C168.016 44.1116 167.895 44.0627 167.78 44.0227C167.748 44.0093 167.713 44.0004 167.677 43.996C167.557 43.9737 167.428 43.9559 167.308 43.947C167.067 43.947 166.876 43.9648 166.707 44.0271C166.596 44.0672 166.475 44.1205 166.364 44.1695C166.182 44.2852 166.075 44.3652 165.986 44.4453C165.919 44.5032 165.87 44.5743 165.817 44.6455C165.763 44.7167 165.701 44.7834 165.661 44.868C165.612 44.9747 165.558 45.0949 165.518 45.2016C165.465 45.393 165.452 45.5442 165.443 45.691C165.443 45.7266 165.443 45.7622 165.443 45.7978C165.456 45.9224 165.469 46.0514 165.496 46.176C165.55 46.3673 165.612 46.4963 165.67 46.6209C165.683 46.6476 165.701 46.6698 165.714 46.6921C165.741 46.83 165.785 46.959 165.857 47.0836C165.937 47.2348 166.048 47.355 166.186 47.4439C166.311 47.5596 166.458 47.6352 166.622 47.6753C166.849 47.7376 167.076 47.7376 167.303 47.6753C167.335 47.6664 167.366 47.6575 167.397 47.6441C167.526 47.5952 167.664 47.5463 167.789 47.4751C167.935 47.3905 168.073 47.2793 168.198 47.1636C168.323 47.0435 168.43 46.8967 168.523 46.7543C168.616 46.612 168.683 46.4296 168.741 46.2827C168.768 46.2205 168.786 46.1537 168.795 46.0914C168.817 45.9491 168.844 45.8067 168.848 45.6643C168.848 45.6287 168.848 45.5932 168.848 45.5576L168.843 45.5531Z" fill="#233D4D"/>
<path d="M165.897 44.2496C166.079 43.8847 166.248 43.6445 166.511 43.4621C167.081 43.0706 167.339 42.3365 166.969 41.7047C166.64 41.1397 165.785 40.8505 165.211 41.242C163.404 42.4878 162.977 44.6322 162.705 46.6787C162.545 47.8933 162.585 49.1167 163.195 50.2156C163.453 50.6783 163.827 51.0743 164.054 51.5548C164.098 51.6883 164.121 51.7995 164.13 51.844C162.901 52.9963 164.722 54.807 165.928 53.6814C166.774 52.8939 166.858 51.6393 166.435 50.6161C166.061 49.7218 165.225 49.0367 165.185 48.0312C165.149 47.1147 165.336 46.1626 165.554 45.2773C165.647 44.8902 165.759 44.5165 165.897 44.2451V44.2496Z" fill="#F76D6D"/>
<path d="M158.65 57.2984C158.552 57.2895 158.45 57.2806 158.352 57.2717C158.209 57.2584 158.214 57.2539 158.249 57.2584C157.956 57.2094 157.711 57.1561 157.47 57.0938C157.243 57.0359 157.016 56.9648 156.794 56.8891C156.682 56.8491 156.571 56.809 156.464 56.7645C156.402 56.7379 156.331 56.7067 156.322 56.7023C155.895 56.5065 155.481 56.2752 155.089 56.0127C154.991 55.9459 154.893 55.8792 154.8 55.808C154.768 55.7813 154.559 55.6301 154.719 55.7502C154.866 55.857 154.706 55.7368 154.675 55.7146C154.484 55.5544 154.297 55.3898 154.118 55.2119C153.638 54.7447 152.774 54.6958 152.302 55.2119C151.835 55.719 151.786 56.5243 152.302 57.027C154.021 58.6999 156.264 59.6786 158.65 59.861C159.322 59.9144 159.963 59.2337 159.932 58.5797C159.901 57.8412 159.367 57.3518 158.65 57.2984Z" fill="#F76D6D"/>
<path d="M158.351 57.2672C158.32 57.2628 158.276 57.2539 158.249 57.2539C158.325 57.2672 158.338 57.2672 158.351 57.2672Z" fill="#F76D6D"/>
<path d="M157.697 35.1158C157.105 34.791 156.46 34.6976 155.801 34.6086C155.076 34.5107 154.35 34.4351 153.615 34.4129C151.973 34.3595 150.321 34.5374 148.719 34.8845C148.042 35.0313 147.646 35.8187 147.824 36.4638C147.864 36.6062 147.931 36.7308 148.007 36.8465C148.118 37.4515 148.612 37.9454 149.267 37.9365C150.633 37.9187 151.879 38.0432 153.188 38.3591C154.537 38.6839 155.988 39.3112 157.368 38.7729C158.187 38.4525 158.837 37.8386 158.859 36.9043C158.877 36.1435 158.334 35.4717 157.697 35.1203V35.1158Z" fill="#233D4D"/>
<path d="M174.029 39.9919C172.778 38.6038 170.775 37.843 168.933 38.0477C168.34 38.1144 167.735 38.2167 167.205 38.5148C166.458 38.9375 166.044 39.7516 166.213 40.6014C166.355 41.3266 166.996 41.9361 167.695 42.1318C168.007 42.2164 168.349 42.2475 168.674 42.2208C168.875 42.203 169.071 42.1719 169.271 42.1452C169.373 42.1363 169.467 42.123 169.56 42.1141C170.206 42.0518 170.855 42.0473 171.501 42.1007C171.626 42.1096 171.746 42.123 171.87 42.1363C171.884 42.1363 172.124 42.1719 172.182 42.1808C172.373 42.2164 172.565 42.2653 172.756 42.3098C172.952 42.4077 173.175 42.4522 173.406 42.4388C173.998 42.4878 174.63 42.1141 174.768 41.509C174.911 40.8906 174.617 40.2366 174.029 39.9919Z" fill="#233D4D"/>
<path d="M184.445 26.2712C184.966 27.7661 185.202 29.252 184.806 30.5022C184.797 30.5334 184.784 30.5645 184.775 30.5956C183.417 34.5997 177.987 33.8612 174.875 32.2284C174.328 32.9847 173.5 33.572 172.596 33.919C170.953 34.5597 169.151 34.3105 167.544 33.6788C164.868 32.6199 162.54 30.8047 160.626 28.7404C159.153 29.9194 157.181 30.4444 155.214 30.3065C152.845 30.1463 150.584 29.2832 148.47 28.3267C146.596 27.4814 144.824 26.4447 143.168 25.2524C139.758 22.8055 136.883 19.7668 134.742 16.2566C134.408 15.7182 134.568 15.2066 134.929 14.8596C134.826 14.4458 134.653 14.0276 134.528 13.6539C134.288 12.9243 134.096 12.1724 134.119 11.4027C134.163 9.85894 134.933 8.47086 135.993 7.32747C136.531 6.73576 137.159 6.21523 137.827 5.73918C137.324 5.39661 136.856 5.0051 136.451 4.56465C135.801 3.85282 135.316 3.08759 134.933 2.22004C134.831 1.98425 134.898 1.65947 135 1.43257C135.089 1.23237 135.214 1.07665 135.396 0.952082C135.801 0.654 136.371 0.60951 136.821 0.854204C137.497 1.22792 138.129 1.66392 138.721 2.14441C138.793 1.73065 138.877 1.31245 138.984 0.907592C139.122 0.373714 139.661 0.0400407 140.217 0.0133469C140.497 0.0044489 140.782 0.115673 140.996 0.275837C141.192 0.418204 141.41 0.654 141.454 0.907592C141.615 1.86857 141.655 2.8251 141.579 3.78163C142.429 3.44351 143.297 3.14988 144.152 2.91408C149.694 1.36584 155.819 1.744 161.205 3.64371C166.422 5.48114 171.034 8.58208 174.893 12.337C175.667 12.5817 176.469 12.7641 177.252 12.9332C179.095 13.3336 180.996 13.7651 182.611 14.7795C184.419 15.914 185.545 17.6625 185.843 19.7802C186.141 21.9246 185.834 24.3003 184.583 26.1244C184.548 26.1823 184.503 26.2267 184.459 26.2846L184.445 26.2712Z" fill="#233D4D"/>
<path d="M141.802 27.5525C142.839 33.3985 143.782 39.2623 144.628 45.1394C146.24 56.3819 147.508 67.669 148.416 78.9872C148.585 81.1005 148.906 83.5608 147.691 85.456C147.014 86.5149 145.986 87.1466 144.806 87.5248C143.538 87.9252 142.144 88.2055 140.809 88.1877C138.307 88.1477 136.237 86.8219 134.831 84.8109C133.803 83.3472 133.282 81.6477 132.926 79.9126C132.294 80.4331 131.617 80.878 130.86 81.2028C129.347 81.8434 127.678 81.7901 126.226 80.9803C123.373 79.3965 122.109 75.7439 121.624 72.7097C120.582 66.1296 122.701 59.7854 124.143 53.4412C125.603 47.0257 125.674 40.3122 127.7 34.0258C128.706 30.916 130.17 27.9752 131.728 25.1056C133.264 22.2671 134.844 19.4376 136.732 16.8171C138.405 14.4814 140.413 11.6875 143.346 10.9045C145.082 10.4418 147.174 10.9445 148.403 12.2525C148.639 12.297 148.861 12.4127 149.008 12.5951C149.939 13.7207 150.691 14.953 150.816 16.439C150.86 16.9729 150.789 17.5379 150.611 18.0495C149.467 22.4362 146.057 26.071 141.793 27.557L141.802 27.5525Z" fill="#233D4D"/>
<path d="M150.433 134.279L166.849 91.0706C167.642 88.9885 170.045 87.2979 172.218 87.2979H239.206C242.175 87.2979 246.083 90.2609 244.997 93.353C244.952 93.5799 244.89 93.8023 244.806 94.0337L228.389 137.242C227.597 139.324 225.193 141.015 223.021 141.015H156.033C154.15 141.015 153.059 139.747 153.313 138.052H152.939C150.762 138.052 149.645 136.361 150.433 134.279Z" fill="white"/>
<path d="M152.485 136.33L168.901 93.1216C169.694 91.0395 172.097 89.3489 174.27 89.3489H241.258C244.227 89.3489 248.135 92.3119 247.049 95.4039C247.004 95.6308 246.942 95.8533 246.858 96.0846L230.441 139.293C229.649 141.375 227.245 143.066 225.073 143.066H158.085C156.202 143.066 155.111 141.798 155.365 140.103H154.991C152.814 140.103 151.697 138.412 152.485 136.33Z" fill="#233D4D"/>
<path d="M125.991 149.926H223.466C224.316 149.926 225.006 149.237 225.006 148.387V139.533C225.006 138.683 224.316 137.994 223.466 137.994H125.991C125.14 137.994 124.45 138.683 124.45 139.533V148.387C124.45 149.237 125.14 149.926 125.991 149.926Z" fill="#233D4D"/>
<path d="M200.176 119.215C199.673 122.067 201.579 124.38 204.432 124.38C207.285 124.38 210.009 122.067 210.512 119.215C211.015 116.363 209.11 114.05 206.257 114.05C203.404 114.05 200.679 116.363 200.176 119.215Z" fill="#FCCA46"/>
<path d="M243.221 274.845L234.83 279.316L232.863 280.361L232.364 280.628L230.303 281.727L210.058 292.507C203.715 275.997 197.305 258.188 197.305 258.188L217.866 234.323C217.866 234.323 224.08 243.244 232.591 256.995C233.232 258.028 233.886 259.091 234.55 260.172C235.222 261.271 235.876 262.343 236.53 263.437C237.002 264.225 237.479 265.017 237.964 265.822C239.811 268.914 241.569 271.922 243.216 274.84L243.221 274.845Z" fill="#FFA895"/>
<path d="M243.225 274.845C259.989 304.417 266.572 324.994 256.277 331.578C244.961 338.812 231.029 338.301 220.434 317.573C218.133 313.07 214.114 303.056 210.063 292.512L243.225 274.849V274.845Z" fill="#E85C00"/>
<path d="M266.114 292.009C276.076 302.829 275.377 319.673 264.552 329.629C253.726 339.586 236.873 338.888 226.911 328.068C216.949 317.248 217.648 300.404 228.474 290.447C239.299 280.49 256.152 281.189 266.114 292.009Z" fill="#E85C00"/>
<path d="M358.101 319.508C358.11 320.264 357.451 320.918 356.703 320.905C350.52 320.843 344.337 320.932 338.159 321.172C327.182 321.599 315.502 321.328 304.547 322.106C287.654 323.299 279.014 322.329 271.518 321.506C269.43 324.482 259.806 327.681 259.744 327.774C259.286 328.526 229.462 325.995 229.462 325.995L233.61 266.614C235.996 242.376 254.545 222.849 278.649 219.21C285.384 218.196 292.105 219.815 298.845 220.153C306.59 220.54 314.366 220.34 322.081 221.274C331.767 222.449 342.156 225.897 348.824 233.376C356.356 241.82 356.08 256.012 356.249 266.703C356.529 284.437 357.843 301.881 358.101 319.508Z" fill="#E85C00"/>
<path d="M273.178 195.764L279.962 226.756H309.261L298.925 190.305L273.178 195.764Z" fill="#FFA895"/>
<path d="M344.818 229.065C341.876 233.749 337.042 237.126 331.713 238.554C328.949 239.288 325.891 239.627 323.073 238.977C321.578 238.634 320.398 237.9 319.161 237.042C318.707 236.73 318.239 236.379 317.687 236.615C317.193 236.824 316.788 237.295 316.405 237.66C312.185 241.726 306.109 243.577 300.345 242.403C295.43 241.402 291.019 238.132 288.531 233.785C284.333 236.463 278.653 236.223 274.865 232.784C271.585 229.808 270.352 225.101 271.669 220.892C272.706 217.591 274.999 214.868 277.385 212.439C281.498 208.261 285.086 204.391 287.779 199.096C289.248 196.205 290.507 193.21 291.553 190.141C292.51 187.324 292.987 184.802 295.337 182.751C298.702 179.81 303.474 178.871 307.792 178.453C309.265 178.311 310.81 178.177 312.261 178.564C313.761 178.969 314.941 179.979 315.893 181.167C316.832 182.341 317.669 183.596 318.609 184.771C319.579 185.985 320.594 187.164 321.658 188.299C323.772 190.572 326.069 192.681 328.508 194.612C330.814 196.436 333.307 197.997 335.737 199.644C338.154 201.272 340.554 202.989 342.557 205.116C344.56 207.247 346.078 209.738 346.955 212.537C348.655 217.987 347.858 224.224 344.818 229.065Z" fill="#233D4D"/>
<path d="M348.651 207.06C347.11 203.372 344.319 200.471 341.061 198.229C337.745 195.942 334.015 194.474 330.422 192.708C326.937 190.995 322.913 188.281 322.828 183.952C322.797 182.301 320.229 182.297 320.26 183.952C320.336 187.827 322.864 191.004 325.944 193.112C329.158 195.31 332.933 196.552 336.352 198.389C339.606 200.137 342.766 202.317 344.858 205.423C346.799 208.301 347.738 211.745 346.799 215.153C345.788 218.805 343.064 221.826 340.037 223.988C339.472 224.389 339.205 225.105 339.579 225.746C339.904 226.302 340.767 226.613 341.337 226.204C344.306 224.082 346.995 221.346 348.49 217.973C350.048 214.459 350.137 210.624 348.651 207.064V207.06Z" fill="#233D4D"/>
<path d="M281.431 190.305C281.431 194.767 285.05 198.389 289.519 198.389C293.988 198.389 297.607 194.772 297.607 190.305C297.607 185.838 293.988 182.226 289.519 182.226C285.05 182.226 281.431 185.843 281.431 190.305Z" fill="#FFA895"/>
<path d="M345.303 176.976C345.161 171.811 343.318 166.832 340.073 162.819C339.637 162.281 338.711 162.366 338.257 162.819C337.723 163.353 337.821 164.092 338.257 164.635C340.705 167.66 342.245 171.495 342.632 175.361C343.02 179.223 342.499 183.623 340.238 186.884C338.088 189.985 334.219 190.679 330.689 190.483C328.793 190.381 326.924 190.029 325.081 189.589C323.029 189.095 320.95 188.548 319.014 187.689C315.043 185.932 311.242 182.395 311.829 177.67C311.914 176.98 311.179 176.389 310.547 176.389C309.782 176.389 309.35 176.98 309.265 177.67C308.682 182.373 311.914 186.626 315.778 188.908C317.892 190.158 320.256 190.968 322.619 191.609C324.765 192.187 326.933 192.663 329.145 192.917C333.311 193.397 337.883 192.903 341.043 189.878C344.373 186.688 345.441 181.416 345.317 176.976H345.303Z" fill="#233D4D"/>
<path d="M339.092 183.474C346.301 176.268 346.301 164.587 339.092 157.381C331.883 150.176 320.195 150.176 312.986 157.381C305.777 164.587 305.777 176.268 312.986 183.474C320.195 190.679 331.883 190.679 339.092 183.474Z" fill="#233D4D"/>
<path d="M274.977 169.715C274.986 169.649 274.994 169.577 274.999 169.511C275.026 169.244 274.986 168.954 274.914 168.696C274.87 168.594 274.83 168.492 274.785 168.389C274.705 168.238 274.594 168.118 274.456 168.029C274.247 167.869 273.948 167.727 273.677 167.753C273.512 167.771 273.343 167.784 273.183 167.824C273.031 167.864 272.867 167.94 272.733 168.002C272.542 168.087 272.373 168.225 272.217 168.358C271.874 168.643 271.674 169.03 271.509 169.435C271.469 169.537 271.433 169.644 271.416 169.755C271.38 169.969 271.335 170.205 271.358 170.427C271.38 170.636 271.398 170.863 271.473 171.063C271.531 171.21 271.589 171.37 271.669 171.508C271.754 171.646 271.861 171.771 271.963 171.895C272.048 171.962 272.137 172.029 272.221 172.095C272.368 172.189 272.528 172.238 272.698 172.247C272.813 172.278 272.925 172.278 273.04 172.247C273.209 172.238 273.37 172.189 273.517 172.095C273.81 171.944 274.077 171.766 274.327 171.548C274.483 171.41 274.616 171.232 274.727 171.063C274.807 170.934 274.861 170.787 274.914 170.645C274.932 170.601 274.945 170.556 274.954 170.512C275.008 170.245 275.012 169.973 274.972 169.715H274.977Z" fill="#233D4D"/>
<path d="M281.062 167.144C280.412 165.493 279.339 164.11 277.866 163.113C276.459 162.161 274.291 161.596 272.974 163.015C272.435 163.593 272.475 164.63 273.232 165.03C273.739 165.297 274.238 165.587 274.718 165.898C274.959 166.054 275.199 166.214 275.431 166.379C275.555 166.468 275.68 166.556 275.8 166.645C275.854 166.686 275.916 166.721 275.96 166.766C276.895 167.504 277.741 168.309 278.511 169.181C278.956 169.684 279.878 169.671 280.327 169.181C280.541 168.95 280.652 168.679 280.679 168.407C281.026 168.087 281.244 167.606 281.057 167.144H281.062Z" fill="#233D4D"/>
<path d="M265.188 178.551C264.627 178.035 263.937 178.106 263.372 178.551C263.652 178.333 263.323 178.582 263.265 178.622C263.163 178.689 263.06 178.756 262.958 178.818C262.749 178.942 262.531 179.049 262.313 179.156C262.273 179.169 262.237 179.187 262.197 179.201C262.081 179.245 261.965 179.281 261.85 179.321C261.632 179.387 261.409 179.445 261.182 179.49C261.093 179.507 260.955 179.561 260.866 179.543C261.057 179.521 261.08 179.516 260.933 179.534C260.87 179.539 260.812 179.548 260.75 179.552C260.505 179.57 260.261 179.579 260.02 179.57C259.9 179.57 259.775 179.561 259.655 179.548C259.615 179.548 259.575 179.539 259.539 179.534C259.299 179.49 259.063 179.441 258.832 179.374C258.186 179.192 257.407 179.596 257.251 180.268C257.096 180.949 257.456 181.652 258.146 181.848C259.361 182.19 260.63 182.208 261.867 181.959C263.1 181.71 264.213 181.131 265.193 180.357C265.722 179.939 265.664 178.974 265.193 178.542L265.188 178.551Z" fill="#F76D6D"/>
<path d="M130.13 106.664C129.587 103.724 125.372 100.418 122.839 99.1411C112.556 93.9714 102.465 94.3584 93.5091 101.561C88.7151 105.419 84.829 110.748 80.8317 115.393C75.8685 121.159 71.9647 128.834 67.3041 134.844C67.1038 135.102 67.0771 135.431 67.1528 135.734C66.6097 136.406 66.1112 137.104 65.6883 137.861C64.4508 140.076 63.8366 142.821 64.5799 145.304C65.2921 147.666 66.9302 149.139 68.9378 149.993C71.2035 151.412 73.8432 152.217 76.5852 152.364C81.2146 152.618 85.6347 150.785 89.2002 147.92C89.3471 147.8 89.494 147.675 89.6365 147.55C89.73 147.475 89.8234 147.395 89.9169 147.315C89.9525 147.284 89.9881 147.252 90.0237 147.217C90.1884 147.07 90.3531 146.923 90.5089 146.767C91.742 145.606 92.8414 144.312 93.8163 142.928C95.3876 143.702 96.95 144.494 98.6682 144.85C101.299 145.397 104.428 144.561 105.474 141.816C105.75 141.082 105.795 140.383 105.675 139.729C106.823 140.365 108.038 140.868 109.343 141.126C112.258 141.696 113.807 141.073 114.956 138.034C115.258 137.229 115.859 135.979 115.797 135.182C117.026 135 119.42 134.617 120.208 133.594C122.238 130.947 121.615 126.925 120.471 124.06C119.233 120.959 117.003 118.258 114.528 116.056C112.147 113.929 109.832 111.509 106.912 110.219C105.35 109.525 104.286 108.956 102.625 108.577C103.948 107.554 102.955 108.306 103.017 108.275C104.602 107.461 105.051 107.71 106.814 107.398C108.443 107.109 110.104 107.123 111.737 107.332C114.769 107.714 117.729 108.818 120.409 110.268C122.955 111.647 125.056 112.51 128.056 111.015C130.406 109.841 130.584 109.111 130.13 106.655V106.664Z" fill="#FFA895"/>
<path d="M61.9581 174.422C75.6415 164.225 88.1453 149.076 88.1453 149.076L80.9564 121.889C80.9564 121.889 65.261 127.65 48.4528 134.186L61.9626 174.422H61.9581Z" fill="#FFA895"/>
<path d="M246.159 159.95V218.458C246.159 225.474 241.32 231.156 235.355 231.156H123.458C117.497 231.156 112.659 225.474 112.659 218.458V159.95C112.659 154.549 116.38 150.166 120.978 150.166H237.844C242.442 150.166 246.163 154.549 246.163 159.95H246.159Z" fill="#233D4D"/>
<path d="M246.159 195.724V199.479L240.973 193.936L239.566 192.441L233.103 185.531L228.816 195.404L227.935 197.428L220.96 213.489L191.763 202.598L178.36 203.354L175.285 203.532L169.618 203.852L161.735 182.924H152.614L132.289 212.764L131.092 214.525L124.566 224.104L112.654 210.214V206.273L124.335 219.891L129.365 212.501L130.562 210.744L151.261 180.357H163.511L171.358 201.183L178.009 200.805L181.085 200.631L192.16 200.004L219.571 210.232L225.981 195.479L226.867 193.455L232.311 180.922L241.382 190.621L242.789 192.12L246.159 195.724Z" fill="#FCCA46"/>
<path d="M222.255 246.665C220.537 250.682 215.907 252.048 211.861 251.679C207.049 251.243 202.731 248.872 198.618 246.509C195.267 244.583 191.438 242.198 190.562 238.127C190.535 237.998 190.535 237.878 190.553 237.767C190.473 237.736 190.397 237.696 190.317 237.665C186.342 235.992 182.122 234.853 178.356 232.713C176.478 231.645 175.485 229.647 174.176 227.903C172.894 226.191 172.4 224.447 173.495 222.471C174.408 220.821 175.267 220.109 177.065 219.9C179.197 219.655 181.236 220.487 183.066 221.501C185.064 222.609 186.947 223.868 189.07 224.731C191.18 225.586 193.384 226.195 195.609 226.671C200.105 227.632 204.695 228.064 209.217 228.896C213.192 229.625 218.022 232.415 220.684 235.792C222.108 237.593 222.669 237.927 222.918 240.165C223.159 242.336 223.127 244.618 222.251 246.66L222.255 246.665Z" fill="#FFA895"/>
<path d="M221.984 247.021C221.227 250.829 219.94 254.531 218.2 258.001C217.795 258.811 217.363 259.634 216.602 260.163C215.872 260.67 214.95 260.728 214.087 260.808C211.964 261.008 209.845 261.164 207.717 261.271C204.196 261.449 203.564 263.442 200.176 262.134C196.175 260.586 190.562 254.949 187.917 251.772C186.279 249.797 184.45 247.746 182.091 246.692C174.804 247.194 167.343 246.073 160.631 243.168C157.319 241.731 154.216 239.818 151.488 237.451C150.09 236.236 148.764 234.902 147.651 233.416C146.511 231.908 145.603 230.012 145.964 228.081C146.293 226.333 147.82 225.123 149.516 224.834C151.408 224.513 153.193 225.114 154.768 226.151C156.42 227.227 157.858 228.571 159.545 229.599C161.134 230.568 162.83 231.351 164.588 231.957C171.532 234.337 179.046 234.212 186.306 233.896C186.355 233.861 186.408 233.821 186.466 233.794C187.245 233.438 188.033 233.296 188.888 233.416C190.018 233.571 191.096 234.168 191.884 235.004C194.737 233.7 197.853 232.922 200.978 232.593C204.873 232.183 208.843 232.375 212.711 232.922C215.654 233.331 218.903 234.221 220.831 236.646C223.185 239.604 222.673 243.559 221.984 247.012V247.021Z" fill="#FFA895"/>
<path d="M214.292 230.284C208.919 228.055 202.959 227.574 197.35 226.164C194.603 225.474 191.959 224.558 189.409 223.33C186.898 222.124 184.423 220.781 181.752 219.94C179.384 219.197 175.939 218.454 173.776 220.078C171.768 221.586 171.621 224.464 172.462 226.649C174.862 232.873 181.85 234.35 186.894 237.656C188.278 238.563 189.569 236.343 188.189 235.44C185.905 233.941 183.368 232.926 180.969 231.641C179.055 230.613 177.096 229.349 175.828 227.539C174.902 226.222 173.851 223.935 174.977 222.44C175.578 221.639 176.754 221.693 177.648 221.742C178.814 221.804 179.954 222.062 181.067 222.413C183.453 223.165 185.665 224.367 187.913 225.452C190.294 226.604 192.743 227.565 195.293 228.277C200.47 229.719 205.865 230.275 211.007 231.836C215.667 233.251 221 236.45 221.151 241.927C221.196 243.573 223.764 243.582 223.72 241.927C223.568 236.339 219.139 232.304 214.287 230.288L214.292 230.284Z" fill="#F76D6D"/>
<path d="M246.159 159.954V163.629H112.659V159.954C112.659 154.553 116.385 150.171 120.978 150.171H237.844C242.437 150.171 246.163 154.553 246.163 159.954H246.159Z" fill="#1250B3"/>
<path d="M237.608 154.028C239.459 154.028 240.96 155.527 240.96 157.378C240.96 159.229 239.459 160.728 237.608 160.728C235.756 160.728 234.256 159.229 234.256 157.378C234.256 155.527 235.756 154.028 237.608 154.028Z" fill="white"/>
<path d="M227.574 154.028C229.426 154.028 230.926 155.527 230.926 157.378C230.926 159.229 229.426 160.728 227.574 160.728C225.723 160.728 224.223 159.229 224.223 157.378C224.223 155.527 225.723 154.028 227.574 154.028Z" fill="white"/>
<path d="M217.541 154.028C219.393 154.028 220.893 155.527 220.893 157.378C220.893 159.229 219.393 160.728 217.541 160.728C215.689 160.728 214.189 159.229 214.189 157.378C214.189 155.527 215.689 154.028 217.541 154.028Z" fill="white"/>
<path d="M53.83 32.2729C55.6817 32.2729 57.1818 33.7722 57.1818 35.623C57.1818 37.4738 55.6817 38.9731 53.83 38.9731C51.9782 38.9731 50.4781 37.4738 50.4781 35.623C50.4781 33.7722 51.9782 32.2729 53.83 32.2729Z" fill="white"/>
<path d="M43.7967 32.2729C45.6484 32.2729 47.1485 33.7722 47.1485 35.623C47.1485 37.4738 45.6484 38.9731 43.7967 38.9731C41.9449 38.9731 40.4448 37.4738 40.4448 35.623C40.4448 33.7722 41.9449 32.2729 43.7967 32.2729Z" fill="white"/>
<path d="M33.7634 32.2729C35.6151 32.2729 37.1152 33.7722 37.1152 35.623C37.1152 37.4738 35.6151 38.9731 33.7634 38.9731C31.9116 38.9731 30.4115 37.4738 30.4115 35.623C30.4115 33.7722 31.9116 32.2729 33.7634 32.2729Z" fill="white"/>
<path d="M14.636 185.296C25.337 192.481 41.6422 187.587 57.075 177.804C58.7086 176.771 60.3423 175.628 61.9626 174.422L48.4528 134.186C34.5869 139.578 19.9598 145.495 12.7531 149.134C1.93188 154.607 0.333853 175.686 14.636 185.291V185.296Z" fill="#E85C00"/>
<path d="M271.518 321.51L277.02 305.32L357.593 302.522L382 340H265.233L271.518 321.51Z" fill="#233D4D"/>
<path d="M292.599 186.426C289.786 186.706 287.013 187.24 284.307 188.054C283.813 188.205 283.456 188.61 283.385 189.122C283.314 189.665 283.568 190.087 283.999 190.399C285.909 191.787 287.877 193.259 289.697 194.67C290.227 195.079 291.001 195.226 291.513 194.67C291.936 194.211 292.079 193.295 291.513 192.854C290.2 191.84 288.878 190.839 287.552 189.851C287.983 189.749 288.415 189.642 288.856 189.558C290.173 189.291 291.317 189.122 292.604 188.993C293.272 188.926 293.921 188.45 293.886 187.711C293.859 187.075 293.316 186.354 292.604 186.43L292.599 186.426Z" fill="#F76D6D"/>
<path d="M103.347 134.101C101.179 130.827 98.6504 127.775 95.5211 125.372C92.0357 122.698 87.7313 120.977 83.2933 121.079C81.6419 121.115 81.6374 123.682 83.2933 123.646C90.3843 123.486 96.1532 128.411 100.075 133.865C101.749 136.197 104.237 139.449 102.946 142.483C102.43 143.698 101.335 144.356 100.026 144.272C98.5124 144.174 97.2349 143.271 96.2111 142.225C93.5715 139.524 91.8488 135.783 87.9005 134.737C86.3024 134.315 85.6169 136.788 87.2194 137.211C90.7671 138.145 92.3473 142.172 94.8579 144.481C96.2734 145.784 97.9961 146.687 99.9369 146.83C101.798 146.963 103.542 146.14 104.646 144.65C107.108 141.322 105.363 137.14 103.351 134.101H103.347Z" fill="#F76D6D"/>
<path d="M114.965 131.828C113.246 128.335 110.856 125.079 108.328 122.129C105.777 119.157 102.897 116.341 99.6119 114.183C95.9752 111.794 91.5906 110.286 87.2506 111.394C85.6525 111.803 86.3291 114.277 87.9316 113.867C94.5018 112.19 100.654 117.658 104.798 122.044C107.17 124.554 109.28 127.294 111.101 130.235C111.92 131.556 112.77 132.913 113.282 134.386C113.687 135.556 114.025 137.002 113.371 138.145C112.703 139.311 111.243 139.676 109.984 139.493C108.181 139.231 106.694 137.941 105.439 136.713C104.259 135.556 102.443 137.367 103.623 138.528C106.227 141.082 109.975 143.297 113.598 141.371C115.241 140.494 116.166 138.795 116.282 136.975C116.398 135.191 115.739 133.403 114.96 131.828H114.965Z" fill="#F76D6D"/>
<path d="M120.76 122.178C117.836 116.061 112.592 111.242 106.605 108.177C103.008 106.335 99.1445 105.058 95.1873 104.244C94.5107 104.106 93.7985 104.44 93.6071 105.138C93.4335 105.775 93.8207 106.575 94.5018 106.718C100.582 107.968 106.574 110.326 111.363 114.352C113.571 116.207 115.525 118.365 117.066 120.803C118.557 123.166 119.963 126.008 120.208 128.829C120.333 130.262 120.155 131.814 119.069 132.855C118.25 133.638 117.039 134.057 116.086 133.536C114.635 132.744 113.34 134.96 114.791 135.752C117.742 137.362 121.205 135.347 122.327 132.442C123.614 129.109 122.211 125.221 120.756 122.173L120.76 122.178Z" fill="#F76D6D"/>
<path d="M78.0319 122.872C77.3018 124.002 76.5896 125.141 75.873 126.275C74.6088 126.685 73.3535 127.098 72.0893 127.508C71.11 127.828 70.1218 128.148 69.1426 128.469C54.4131 133.274 39.6836 138.074 24.9542 142.87C23.3784 143.391 22.7107 140.908 24.2776 140.396C28.4262 139.048 32.5749 137.692 36.728 136.343C49.2139 132.273 61.691 128.202 74.177 124.131C75.459 123.708 76.7499 123.29 78.0319 122.872Z" fill="white"/>
<path d="M130.691 110.53C129.716 112.105 127.927 112.875 126.12 112.928C124.139 112.991 122.283 112.114 120.569 111.22C118.855 110.326 117.132 109.432 115.298 108.795C111.938 107.63 108.114 107.305 105.016 109.343C103.627 110.255 102.345 108.035 103.721 107.127C107.175 104.849 111.604 104.925 115.428 106.135C117.453 106.776 119.38 107.705 121.263 108.684C122.861 109.516 124.624 110.566 126.502 110.339C127.896 110.166 128.848 109.209 128.862 107.79C128.871 106.228 127.878 104.929 126.823 103.879C124.553 101.61 121.691 99.9286 118.664 98.8964C112.472 96.7831 105.67 97.2636 99.7232 99.933C96.6518 101.308 93.8074 103.167 91.3057 105.41C88.5904 107.843 86.3381 110.708 84.2281 113.663C82.0692 116.67 80.0216 119.753 78.0274 122.872C77.2974 124.002 76.5852 125.141 75.8685 126.275C74.2438 128.878 72.6547 131.49 71.0566 134.101C70.1975 135.512 67.9808 134.221 68.8443 132.807C69.4052 131.886 69.966 130.969 70.5225 130.048C71.0433 129.203 71.5596 128.349 72.0849 127.503C72.7748 126.373 73.4648 125.252 74.1681 124.127C77.4087 118.921 80.7783 113.774 84.5531 108.947C89.129 103.101 95.1428 98.4159 102.318 96.2315C109.156 94.1582 116.718 94.6832 123.075 98.0066C124.624 98.8208 126.08 99.8129 127.419 100.947C128.813 102.122 130.139 103.492 130.865 105.187C131.59 106.869 131.675 108.92 130.687 110.526L130.691 110.53Z" fill="#F76D6D"/>
<path d="M92.5877 142.016C90.4244 145.802 87.2817 148.898 83.458 151.012C82.8526 151.345 82.6523 152.177 82.9995 152.769C83.3556 153.379 84.148 153.565 84.7578 153.227C88.9332 150.918 92.4408 147.457 94.8089 143.311C95.628 141.874 93.4112 140.579 92.5922 142.016H92.5877Z" fill="#F76D6D"/>
<path d="M234.554 260.176C234.518 260.337 234.492 260.501 234.461 260.657C233.294 267.166 233.063 273.759 232.863 280.361C232.653 287.413 232.471 294.474 231.216 301.432C231.091 302.113 230.259 302.5 229.64 302.326C228.928 302.13 228.616 301.432 228.741 300.751C229.413 297.036 229.769 293.272 229.987 289.5C230.134 286.928 230.227 284.33 230.307 281.727C230.561 273.425 230.73 265.039 232.6 256.995C233.241 258.028 233.895 259.091 234.559 260.172L234.554 260.176Z" fill="white"/>
<path d="M132.267 261.017H128.399C129.841 255.945 132.53 251.229 136.215 247.461C136.981 246.683 136.22 245.17 135.102 245.553C132.191 246.54 129.347 247.75 126.618 249.174C121.842 251.674 117.404 254.855 113.491 258.561C112.654 259.353 111.844 260.172 111.052 261.013H47.1441C41.1837 261.013 35.7798 263.429 31.8671 267.335C27.9588 271.241 25.5417 276.638 25.5417 282.599C25.5417 294.523 35.2189 304.19 47.1485 304.19H132.271C138.241 304.19 143.636 301.774 147.544 297.868C151.452 293.962 153.869 288.565 153.869 282.604C153.869 270.68 144.201 261.013 132.267 261.013V261.017Z" fill="#1250B3"/>
<path d="M133.206 280.219C131.555 281.171 129.908 282.119 128.256 283.071C128.007 282.221 127.758 281.367 127.508 280.517C127.286 279.761 126.329 279.285 125.621 279.752C123.306 281.282 120.987 282.808 118.673 284.339C118.69 283.316 118.704 282.297 118.721 281.273C118.735 280.317 117.613 279.65 116.79 280.166C113.91 281.963 111.034 283.756 108.154 285.553C108.172 284.988 108.279 284.41 108.328 283.894C108.417 282.942 108.35 281.976 107.989 281.078C107.602 280.121 106.908 279.267 105.879 278.969C104.691 278.622 103.556 279.107 102.541 279.694C102.39 279.783 102.243 279.876 102.091 279.97C101.851 278.702 101.246 277.581 100.088 276.967C98.6104 276.188 96.8966 276.727 95.5568 277.532C95.263 277.705 94.9781 277.897 94.6932 278.092C94.6398 277.514 94.5107 276.945 94.2659 276.397C93.8519 275.481 93.0551 274.765 92.0714 274.507C90.8829 274.191 89.6854 274.56 88.5726 274.974C86.6229 275.703 84.7178 276.562 82.8883 277.563C81.2012 278.488 79.572 279.534 78.014 280.677C78.0764 280.539 78.1387 280.401 78.1921 280.264C78.704 278.996 78.8999 277.483 78.1565 276.264C77.2796 274.827 75.548 274.48 74.0123 274.88C72.6101 275.245 71.386 276.113 70.2465 276.967C69.8503 277.265 69.4586 277.572 69.0758 277.888C69.0758 277.207 68.9467 276.544 68.4659 276.024C67.6424 275.125 66.3916 275.196 65.35 275.632C63.4092 276.442 61.6153 277.599 59.9683 278.893C58.0721 280.388 56.434 282.159 55.0363 284.125C54.6356 284.69 54.9383 285.553 55.4948 285.883C56.1402 286.261 56.848 285.989 57.253 285.42C58.5172 283.645 60.0618 282.043 61.7845 280.708C62.6347 280.054 63.5339 279.463 64.4686 278.933C64.9538 278.657 65.4479 278.399 65.9465 278.159C66.1156 278.079 66.3382 278.021 66.5029 277.928C66.4584 278.155 66.4806 278.431 66.4584 278.657C66.4139 279.138 66.3248 279.614 66.218 280.09C66.169 280.308 66.1112 280.526 66.0533 280.744C64.0636 282.928 62.3988 285.411 61.1569 288.089C60.5292 289.442 62.0249 290.567 63.1733 289.646C65.6304 287.676 67.4021 284.979 68.3369 282.003C69.8325 280.41 71.524 279.013 73.3847 277.923C73.9722 277.581 75.2498 276.869 75.8685 277.496C76.4205 278.061 75.8819 279.249 75.5614 279.881C74.9204 281.144 74.0969 282.332 73.3446 283.529C72.6324 284.659 71.9068 285.785 71.1768 286.901C68.6841 289.704 66.5385 292.823 64.8559 296.173C64.1081 297.664 66.1201 298.807 67.0727 297.468C69.1203 294.603 71.11 291.697 73.0375 288.748C73.1042 288.645 73.1665 288.543 73.2333 288.441C75.6949 285.7 78.517 283.284 81.6285 281.287C83.2043 280.277 84.8513 279.369 86.5473 278.573C87.3396 278.204 88.1453 277.861 88.9643 277.55C89.6632 277.283 90.7404 276.704 91.4971 277.011C91.9467 277.194 92.0892 277.794 92.1292 278.31C92.1826 278.978 92.0847 279.596 91.9512 280.232C91.9245 280.255 91.8978 280.277 91.8666 280.304C89.6498 282.212 87.6912 284.401 85.9908 286.777C84.0545 289.491 82.5232 292.472 81.3971 295.608C81.0231 296.649 82.3764 297.659 83.2844 297.058C86.7654 294.754 89.6765 291.64 91.7152 287.996C92.7302 286.185 93.5447 284.236 94.1012 282.234C94.1546 282.039 94.208 281.843 94.257 281.643C94.3771 281.54 94.4973 281.434 94.6175 281.336C95.5167 280.615 96.5049 279.783 97.5866 279.347C98.5703 278.951 99.2113 279.187 99.4784 280.228C99.6075 280.731 99.6475 281.265 99.6253 281.798C97.2705 283.894 95.4633 286.577 94.3905 289.562C93.9765 290.71 95.3564 291.453 96.2779 291.012C98.8151 289.793 100.698 287.498 101.624 284.864C101.806 284.343 101.958 283.738 102.065 283.102C102.47 282.786 102.884 282.488 103.315 282.212C103.765 281.927 104.726 281.26 105.149 281.416C105.501 281.545 105.71 282.181 105.777 282.666C105.888 283.458 105.684 284.348 105.626 285.166C105.55 286.239 105.679 287.271 106.195 288.227C106.52 288.823 107.379 289.046 107.954 288.685C110.673 286.99 113.393 285.291 116.113 283.596C116.095 284.641 116.077 285.687 116.064 286.732C116.051 287.671 117.181 288.378 117.996 287.84L125.523 282.871L126.244 285.326C126.476 286.123 127.402 286.514 128.132 286.092C130.255 284.868 132.378 283.645 134.501 282.421C135.935 281.598 134.639 279.378 133.206 280.206V280.219ZM86.1911 291.244C87.255 289.357 88.5058 287.582 89.908 285.932C88.9109 287.862 87.6601 289.651 86.1911 291.244Z" fill="white"/>
<path d="M334.682 69.3908C334.682 80.4865 325.686 89.4868 314.58 89.4868H286.247C280.897 95.1592 274.585 99.9108 266.84 101.695C265.567 101.988 264.725 100.511 265.584 99.5548C268.705 96.1024 271.442 92.3163 273.757 88.2811C269.893 86.8797 266.586 84.3304 264.244 81.0426C261.903 77.7593 260.523 73.733 260.523 69.3908C260.523 58.2994 269.519 49.2992 280.625 49.2992H314.58C320.131 49.2992 325.152 51.5459 328.793 55.1852C332.43 58.82 334.678 63.8429 334.678 69.3863L334.682 69.3908Z" fill="#FCCA46"/>
<path d="M324.502 43.4977C323.968 42.9638 323.229 43.0617 322.686 43.4977C313.285 51.0876 304.502 59.4384 296.468 68.4609C294.683 70.4674 292.947 72.5139 291.237 74.5827C290.231 71.6241 289.221 68.6611 288.215 65.7025C287.685 64.1454 285.206 64.8172 285.74 66.3832C287 70.0892 288.264 73.7952 289.524 77.4968C289.804 78.3199 291.015 78.8671 291.669 78.0618C299.281 68.6789 307.654 59.9189 316.699 51.9063C319.25 49.6462 321.854 47.4484 324.507 45.3084C325.045 44.8724 324.961 43.947 324.507 43.4932L324.502 43.4977Z" fill="white"/>
<path d="M246.159 179.961V182.862L242.789 186.234L240.973 188.05L232.702 196.311L219.838 183.454H192.387L178.36 197.468L170.375 205.458L162.104 194.296H152.44L136.398 214.855L131.092 208.639L129.365 206.615L123.974 200.302H112.583L110.82 198.251H124.922L130.562 204.858L132.289 206.878L136.327 211.607L151.434 192.245H163.141L170.606 202.322L175.285 197.646L178.009 194.919L191.536 181.398H220.693L226.867 187.569L228.816 189.518L232.702 193.411L239.566 186.55L241.382 184.735L246.159 179.961Z" fill="#E85C00"/>
</g>
<defs>
<clipPath id="clip0_275_2959">
<rect width="382" height="340" fill="white"/>
</clipPath>
</defs>
</svg>
