<svg width="352" height="380" viewBox="0 0 352 380" fill="none" xmlns="http://www.w3.org/2000/svg">
<g clip-path="url(#clip0_275_2723)">
<path d="M8.49524 32.2794V315.118C8.49524 324.187 15.8488 331.54 24.9194 331.54H170.97C180.041 331.54 187.394 324.187 187.394 315.118V32.2794C187.394 23.2096 180.041 15.8566 170.97 15.8566H134.904C131.51 20.3556 125.415 23.2185 118.691 23.2185H75.6796C68.9598 23.2185 62.8693 20.3556 59.4667 15.8566H24.9194C15.8488 15.8566 8.49524 23.2096 8.49524 32.2794Z" fill="#E0E0E0"/>
<path d="M186.639 32.2794V315.118C186.639 324.187 179.286 331.54 170.22 331.54H24.1688C16.9815 331.54 10.873 326.929 8.64358 320.502C8.37839 319.756 8.17612 318.992 8.02779 318.201C7.83451 317.203 7.73563 316.169 7.73563 315.118V32.2794C7.73563 23.2096 15.0892 15.8566 24.1643 15.8566H58.7116C62.1097 20.3556 68.2002 23.2185 74.9245 23.2185H117.936C124.664 23.2185 130.75 20.3556 134.149 15.8566H170.22C179.286 15.8566 186.639 23.2096 186.639 32.2794Z" fill="#EDEDED"/>
<path d="M162.817 196.733C153.108 208.805 144.118 221.43 135.537 234.316C126.876 247.323 118.623 260.608 110.416 273.912C102.199 287.243 94.0276 300.609 85.5548 313.778C81.7162 319.747 77.8057 325.675 73.7963 331.54H76.5516C78.7811 328.246 80.9656 324.934 83.1411 321.617C91.7757 308.47 100.024 295.081 108.267 281.692C116.547 268.249 124.804 254.802 133.434 241.588C142.023 228.432 150.964 215.488 160.628 203.097C168.741 192.688 177.375 182.665 186.635 173.258V170.044C178.207 178.485 170.287 187.434 162.812 196.728L162.817 196.733ZM68.0384 174.795C62.6716 171.644 56.6754 174.161 52.1491 177.618C46.7508 181.744 42.4942 187.402 38.1747 192.589C37.6488 193.214 37.1319 193.852 36.6105 194.49C38.2691 190.975 39.8468 187.429 41.3346 183.847C44.1708 177.002 46.6744 170.026 48.8634 162.952C49.1466 162.04 48.0274 161.141 47.2048 161.68C33.4191 170.705 21.6561 182.625 12.8103 196.53C12.0327 197.762 13.9834 198.895 14.7611 197.668C22.8248 184.989 33.3877 173.986 45.7125 165.406C41.5503 178.265 36.2913 190.751 30.0165 202.71C23.7193 210.756 17.7007 219.021 11.9967 227.498C10.5584 229.641 9.13801 231.79 7.74011 233.961V241.075C16.9186 229.471 25.0003 217.034 31.8909 203.955C33.4596 201.955 35.0418 199.964 36.6464 197.991C40.8491 192.832 45.0428 187.492 49.7264 182.768C53.6954 178.773 60.078 173.73 65.9438 176.274C56.2215 194.746 46.7598 213.349 37.5769 232.091C28.277 251.049 19.2604 270.141 10.5224 289.364C9.59199 291.409 8.66155 293.463 7.74461 295.517V300.996C13.1114 289.009 18.5952 277.072 24.1822 265.188C33.1629 246.082 42.4223 227.102 51.9649 208.266C57.3721 197.582 62.8693 186.944 68.4519 176.346C68.7396 175.811 68.5913 175.123 68.0474 174.809L68.0384 174.795ZM12.6485 230.855C12.0731 231.655 11.4888 232.432 10.9045 233.223C14.0688 228.392 17.3231 223.614 20.6763 218.913C18.1232 222.972 15.4443 226.958 12.6485 230.855ZM140.72 175.469C125.411 193.614 110.106 211.758 94.8007 229.902C87.1774 238.945 79.5497 247.988 71.9174 257.026C64.6133 265.687 57.498 274.559 49.9332 282.991C44.6607 288.856 38.2376 294.978 30.4975 296.991C36.7678 289.256 42.7954 281.323 48.5623 273.202C63.6245 251.992 76.9247 229.529 88.2742 206.117C94.6074 193.052 100.329 179.699 105.431 166.103C105.849 164.993 104.303 164.283 103.548 165.002C88.6607 179.2 75.2931 194.957 63.6784 211.929C52.1312 228.792 42.3459 246.833 34.4799 265.696C30.021 276.384 26.2094 287.337 23.045 298.474C22.8383 299.212 23.4136 299.868 24.1328 299.908C24.4879 299.926 24.843 299.931 25.1936 299.931C21.4674 304.475 17.6782 309.014 13.6104 313.243C11.9248 314.992 10.0639 316.745 8.02778 318.201C8.17611 318.992 8.37838 319.756 8.64358 320.502C9.85718 319.684 11.0169 318.776 12.1046 317.819C16.7972 313.711 20.7482 308.695 24.7576 303.944C25.9307 302.546 27.0994 301.144 28.2546 299.733C35.8553 298.699 42.4313 293.845 47.8251 288.492C51.4569 284.883 54.6977 280.928 57.9969 277.022C61.858 272.438 65.7281 267.854 69.5891 263.269C85.0559 244.941 100.518 226.608 115.98 208.275C123.19 199.726 130.409 191.173 137.623 182.625C128.296 204.135 116.664 224.567 104.856 244.792C91.9375 266.923 78.7047 288.937 67.8586 312.192C64.8965 318.547 62.1142 324.996 59.5791 331.54H62.0153C68.6227 314.655 76.8573 298.412 85.6582 282.555C98.1404 260.074 111.769 238.248 123.963 215.605C130.804 202.904 137.169 189.933 142.599 176.561C143.021 175.523 141.421 174.633 140.715 175.469H140.72ZM27.2297 297.454C27.1893 297.499 27.1578 297.549 27.1174 297.594C26.6274 297.638 26.1285 297.661 25.6296 297.674C31.1537 278.573 38.6287 260.051 47.897 242.46C57.3991 224.441 68.7441 207.385 81.7387 191.699C87.9506 184.193 94.5445 177.011 101.48 170.166C92.8634 192.387 82.5433 213.933 70.6409 234.59C57.916 256.676 43.3887 277.737 27.2297 297.454ZM169.42 247.354C159.657 258.563 150.141 269.979 140.54 281.323C130.944 292.65 121.248 303.908 111.139 314.785C105.827 320.493 100.401 326.093 94.8232 331.54H98.037C101.718 327.913 105.328 324.223 108.879 320.479C119.05 309.76 128.768 298.627 138.347 287.378C147.939 276.114 157.4 264.73 167.06 253.516C173.46 246.078 179.955 238.716 186.644 231.52V228.199C180.778 234.468 175.061 240.873 169.424 247.35L169.42 247.354ZM144.5 236.891C136.176 249.3 127.856 261.71 119.531 274.114C111.661 285.858 103.642 297.513 96.0368 309.432C91.4475 316.628 87.0651 323.967 83.1546 331.545H85.6852C88.7506 325.68 92.1083 319.958 95.6098 314.345C103.053 302.394 111.063 290.793 118.907 279.099C135.367 254.55 151.831 230.005 168.296 205.457C174.413 196.342 180.526 187.222 186.639 178.108V174.076C172.593 195.011 158.547 215.956 144.5 236.891ZM148.86 307.032C143.507 314.92 138.54 323.073 134.193 331.545H136.747C146.015 313.796 157.944 297.513 170.345 281.818C175.721 275.018 181.201 268.294 186.635 261.53V257.939C173.717 274.051 160.452 289.926 148.856 307.032H148.86ZM185.911 285.346C172.791 296.438 160.628 308.61 148.86 321.109C145.606 324.565 142.383 328.044 139.178 331.545H142.239C149.979 323.122 157.832 314.794 165.972 306.749C172.638 300.164 179.497 293.751 186.639 287.679V284.735C186.397 284.937 186.154 285.139 185.911 285.342V285.346Z" fill="#E0E0E0"/>
<path d="M186.639 32.2794V101.126L173.051 93.9258L158.479 149.248L132.881 145.042L90.7374 185.564L48.9623 187.622L35.1137 168.759L21.2651 180.265L7.74011 155.046V32.2794C7.74011 23.2096 15.0937 15.8566 24.1688 15.8566H58.7161C62.1142 20.3556 68.2047 23.2185 74.929 23.2185H117.94C124.669 23.2185 130.755 20.3556 134.153 15.8566H170.224C179.29 15.8566 186.644 23.2096 186.644 32.2794H186.639Z" fill="white"/>
<path d="M194.379 22.3511V319.877C194.379 324.659 192.339 328.965 189.075 331.958L183.906 325.23C186.095 322.439 187.394 318.924 187.394 315.113V32.2794C187.394 27.6411 185.466 23.4433 182.369 20.4634L191.071 12.4677C193.152 15.2183 194.379 18.6431 194.379 22.3511Z" fill="#E0E0E0"/>
<path d="M6.54449 205.821L4.07233 203.51L20.8516 185.586L48.2746 197.928L75.6976 151.855H104.546L145.745 118.965L172.957 122.084L199.427 116.066L235.238 61.7588L238.06 63.624L201.504 119.063L173.146 125.513L146.761 122.488L105.732 155.24H77.6214L49.641 202.256L21.6696 189.663L6.54449 205.821Z" fill="#E85C00"/>
<path d="M48.1353 189.357L34.8081 171.204L20.8156 182.831L3.85208 154.129L6.76474 152.408L21.7056 177.694L35.4104 166.305L49.7849 185.888L90.0227 183.905L132.319 143.235L157.239 147.329L171.937 91.5123L199.427 104.798L235.233 50.172L238.065 52.0282L200.632 109.135L174.162 96.3438L159.729 151.163L133.443 146.848L91.4565 187.222L48.1353 189.357Z" fill="#FCCA46"/>
<path d="M233.952 78.0558L200.681 131.994L186.639 146.52V141.653L197.989 129.909L231.075 76.2805L233.952 78.0558Z" fill="#E0E0E0"/>
<path d="M186.639 141.653V146.52L173.375 160.242L146.631 175.222L92.4094 201.065L76.8887 236.54H63.0401L49.8703 256.438H36.0576L7.73562 302.551L6.75125 304.16L3.87006 302.389L7.73562 296.088L34.1653 253.053H48.0543L61.2242 233.156H74.6773L89.8159 198.553L145.129 172.197L171.289 157.536L186.639 141.653Z" fill="white"/>
<path d="M104.109 23.2185L186.639 232.185L190.249 241.327L193.395 240.082L186.639 222.981L107.746 23.2185H104.109Z" fill="#FCCA46"/>
<path d="M170.97 331.545H24.9194C15.8488 331.545 8.49525 324.192 8.49525 315.122V32.2794C8.49525 23.2095 15.8488 15.8565 24.9194 15.8565H59.4712C62.8693 20.3555 68.9599 23.2185 75.6841 23.2185H118.695C125.415 23.2185 131.51 20.3555 134.908 15.8565H170.975C175.407 15.8565 179.425 17.6094 182.378 20.4634L191.08 12.4677C188.087 8.49458 183.327 5.92822 177.964 5.92822H16.4197C7.35356 5.92373 0 13.2767 0 22.3511V319.877C0 328.947 7.35356 336.3 16.4197 336.3H177.955C182.239 336.3 186.149 334.66 189.075 331.958L183.906 325.23C180.908 329.068 176.225 331.54 170.97 331.54V331.545Z" fill="#E0E0E0"/>
<path d="M142.977 103.737C151.856 101.642 157.355 92.7458 155.259 83.8675C153.164 74.9893 144.267 69.4907 135.388 71.5862C126.509 73.6816 121.01 82.5776 123.106 91.4559C125.201 100.334 134.098 105.833 142.977 103.737Z" fill="#233D4D"/>
<path d="M26.8387 128.978C28.2321 133.01 30.1694 137.14 32.8483 141.19C46.5261 161.882 58.9274 164.004 58.9274 164.004C58.9274 164.004 86.8628 154.085 91.6948 129.778C96.5267 105.472 105.004 83.2964 114.87 81.8896C124.732 80.4783 131.249 84.4739 131.249 84.4739H135.749C135.749 84.4739 134.769 81.0806 132.494 77.103C132.877 76.7928 133.074 76.2625 132.746 75.7097C132.252 74.8692 131.708 74.0647 131.115 73.2916C126.292 66.9814 118.641 63.0037 110.699 62.7071C102.127 62.3835 94.3018 66.6668 87.9551 72.0646C81.3162 77.7142 76.1381 84.7661 70.2139 91.1168C64.6313 97.0989 58.1767 102.632 50.0321 104.564C48.369 104.96 46.7374 105.414 45.1372 105.805C42.5617 105.553 40.0985 105.872 37.8421 106.632C37.7297 106.672 37.6263 106.704 37.5274 106.744C28.9693 109.832 23.5305 119.396 26.8387 128.974V128.978ZM74.8166 89.3819C79.6081 83.9256 84.1524 78.2176 89.726 73.5164C95.7986 68.3837 103.3 64.4689 111.423 64.9993C107.633 65.5791 103.336 67.2825 98.482 70.5545C88.7551 77.0985 81.1544 83.6874 74.8166 89.3864V89.3819Z" fill="#233D4D"/>
<path d="M123.801 84.3975C124.894 93.8899 141.952 98.4787 151.503 98.4787C161.055 98.4787 168.799 90.7347 168.799 81.184C168.799 71.6332 163.495 66.6847 154.231 64.3566C147.197 62.5903 142.5 64.406 137.578 67.4488C132.198 70.7792 122.664 74.5726 123.797 84.3975H123.801Z" fill="#233D4D"/>
<path d="M136.355 91.0538C136.355 99.4226 143.138 106.205 151.503 106.205C159.868 106.205 166.655 99.4226 166.655 91.0538C166.655 87.0672 165.118 83.4402 162.596 80.7435C159.832 77.7726 155.886 75.9119 151.503 75.9119C150.101 75.9119 148.739 76.1052 147.453 76.4647L136.355 91.0583V91.0538Z" fill="#FFA895"/>
<path d="M136.355 91.0538L146.307 93.9303L163.904 85.5706C163.904 85.5706 163.482 83.3053 162.592 80.7435C161.702 78.1681 160.335 75.2917 158.466 74.1366C154.739 71.8399 151.503 71.1432 151.503 71.1432L147.453 76.4647L136.355 91.0583V91.0538Z" fill="#FFA895"/>
<path d="M129.393 94.227C129.393 97.463 132.018 100.088 135.254 100.088C138.491 100.088 141.116 97.463 141.116 94.227C141.116 90.9909 138.491 88.3661 135.254 88.3661C132.018 88.3661 129.393 90.9909 129.393 94.227Z" fill="#FFA895"/>
<path d="M162.12 141.801C162.408 142.224 217.582 160.745 217.582 160.745L217.663 160.687C219.33 161.267 221.124 161.577 222.985 161.577C232.028 161.577 239.364 154.242 239.364 145.199C239.364 144.705 239.341 144.21 239.296 143.729L241.454 119.576L220.135 112.313L215.901 130.421L215.541 131.967L214.251 131.347L213.433 130.951L174.189 112.142C174.189 112.142 161.841 141.37 162.12 141.801Z" fill="#E85C00"/>
<path d="M178.832 138.568C185.23 132.17 185.23 121.797 178.832 115.399C172.434 109.002 162.06 109.002 155.662 115.399C149.264 121.797 149.264 132.17 155.662 138.568C162.06 144.965 172.434 144.965 178.832 138.568Z" fill="#E85C00"/>
<path d="M128.081 138.567C134.479 132.17 134.479 121.797 128.081 115.399C121.683 109.001 111.309 109.001 104.911 115.399C98.5126 121.797 98.5126 132.17 104.911 138.567C111.309 144.965 121.683 144.965 128.081 138.567Z" fill="#E85C00"/>
<path d="M222.09 224.486C222.216 224.859 249.248 238.509 286.542 254.748L297.109 223.214L236.474 187.627C236.474 187.627 221.874 223.848 222.09 224.491V224.486Z" fill="#FFA895"/>
<path d="M139.187 207.178L177.816 224.774C188.765 221.205 197.022 218.576 197.162 218.72C197.589 219.142 257.438 241.696 257.438 241.696L270.104 207.362C270.104 207.362 240.609 189.942 230.918 184.674C221.232 179.402 212.831 170.368 197.44 174.961C182.059 179.546 154.205 189.047 154.205 189.047L153.912 186.404C146.667 196.656 139.183 207.182 139.183 207.182L139.187 207.178Z" fill="#1250B3"/>
<path d="M134.679 308.443L168.93 324.232L203.715 249.624L165.316 237.857L134.679 308.443Z" fill="#FFA895"/>
<path d="M111.773 255.858L168.386 241.956C172.373 240.976 174.809 236.954 173.829 232.967C172.849 228.981 168.826 226.545 164.839 227.524L108.227 241.426C104.24 242.406 101.804 246.428 102.784 250.415C103.763 254.402 107.786 256.838 111.773 255.858Z" fill="#FCCA46"/>
<path d="M91.3307 216.207C91.2902 216.792 91.2632 217.385 91.2632 217.983C91.2632 232.149 102.757 243.637 116.924 243.637C118.96 243.637 120.938 243.395 122.84 242.945C124.35 242.59 125.802 242.105 127.182 241.502C136.845 238.284 160.655 230.365 177.816 224.774L139.187 207.178C139.187 207.178 146.671 196.652 153.917 186.4L150.865 158.889L109.697 162.305C109.697 162.305 105.089 168.575 100.127 182.674C96.9987 191.573 94.2928 202.553 92.7196 209.461C92.0364 211.407 91.5734 213.457 91.3846 215.592C91.3037 215.951 91.2677 216.149 91.2677 216.149L91.3352 216.207H91.3307Z" fill="#1250B3"/>
<path d="M105.139 134.534L109.274 163.402H150.865L154.762 156.444C155.387 156.516 156.025 156.561 156.672 156.561C165.716 156.561 173.051 149.226 173.051 140.179C173.051 136.363 171.739 132.848 169.545 130.057L173.051 123.801L167.249 110.609C167.249 118.299 156.016 124.529 142.167 124.529C128.319 124.529 117.091 118.299 117.091 110.609H115.535L105.139 134.538V134.534Z" fill="#E85C00"/>
<path d="M137.839 97.4944L138.028 98.8787L133.02 113.652L149.26 114.911L155.243 97.818L137.839 97.4944Z" fill="#FFA895"/>
<path d="M117.095 110.605C117.095 118.295 128.323 124.524 142.172 124.524C156.02 124.524 167.253 118.295 167.253 110.605H117.1H117.095Z" fill="#FFA895"/>
<path d="M286.542 254.743C288.182 255.458 289.805 256.163 291.414 256.865C292.219 257.215 293.023 257.557 293.81 257.907C295.392 258.595 296.956 259.278 298.493 259.943C299.172 260.235 299.846 260.528 300.512 260.824C301.429 261.224 302.337 261.62 303.235 262.006L312.54 230.059L311.016 230.567L297.105 223.21L286.537 254.743H286.542Z" fill="#E0E0E0"/>
<path d="M342.399 222.67L332.479 263.925L321.435 269.885C316.342 267.629 310.072 264.851 303.11 261.768L312.63 229.889L315.605 228.922L317.74 228.23L320.752 227.25L322.959 226.54L323.957 226.212C323.957 226.212 329.503 219.214 335.54 213.735L342.404 222.67H342.399Z" fill="#1250B3"/>
<path d="M114.96 353.869L180.976 379.995C180.976 379.995 183.142 373.883 178.607 366.135C174.072 358.395 165.626 349.622 165.626 349.622L163.248 336.52L163.217 336.336L168.93 324.232L134.679 308.443L128.193 323.378L114.96 353.869Z" fill="#E0E0E0"/>
<path d="M176.917 363.46L165.109 369.982L125.793 354.031L120.853 340.287L128.193 323.378L163.248 336.52L163.653 338.772L164.057 340.992L165.069 346.561L165.482 348.817L165.63 349.622C165.63 349.622 172.256 356.507 176.917 363.456V363.46Z" fill="#1250B3"/>
<path d="M114.96 353.869L180.976 379.995C180.976 379.995 183.142 373.883 178.607 366.135C178.09 365.249 177.519 364.355 176.917 363.456L165.109 369.977L125.793 354.026L120.853 340.282L114.96 353.865V353.869Z" fill="#E0E0E0"/>
<path d="M321.435 269.885C329.751 273.562 334.938 275.854 334.938 275.854L352 206.94C352 206.94 345.658 205.614 338.587 211.142C337.572 211.938 336.547 212.81 335.535 213.735L342.399 222.67L332.479 263.925L321.435 269.885Z" fill="#E0E0E0"/>
<path d="M214.242 70.8242C214.242 71.5568 214.44 72.2804 214.835 72.9051C216.107 74.9366 221.011 75.5793 220.571 82.5682C220.238 87.7953 222.549 95.818 227.839 98.2046C231.21 99.7282 241.085 102.196 246.146 96.6585C248.223 94.3843 249.612 92.3438 250.453 90.9235C251.212 89.6471 251.54 88.8785 251.54 88.8785C251.54 88.8785 251.877 88.7751 252.385 88.5234C254.116 87.6605 257.766 85.0222 256.395 78.5277C256.026 76.7838 254.804 75.2737 253.167 73.9928C252.21 73.2377 251.109 72.559 249.958 71.9613C248.434 71.1702 246.83 70.514 245.328 69.9702C244.349 69.6241 243.418 69.3275 242.587 69.0848C240.577 68.5005 239.179 68.2129 239.179 68.2129L241 49.6057C241.202 47.4933 239.701 45.5876 237.593 45.291L237.301 45.2505C235.22 44.9584 233.269 46.3427 232.864 48.4056L227.349 76.2535C227.349 76.2535 226.904 72.3703 223.515 69.6241C222.436 68.7522 221.281 67.9926 220.211 67.3724C218.058 66.1274 215.298 67.1252 214.467 69.4713C214.31 69.9118 214.238 70.3657 214.238 70.8197L214.242 70.8242Z" fill="#FFA895"/>
<path d="M220.135 112.313L241.454 119.576L243.742 93.9258L225.96 87.3818L220.135 112.313Z" fill="#FFA895"/>
<path d="M105.777 114.605L63.8312 157.622L88.009 175.478L132.881 136.862L105.777 114.605Z" fill="#E85C00"/>
<path d="M88.9153 174.518C95.0555 168.379 95.0555 158.424 88.9153 152.285C82.7751 146.145 72.8199 146.145 66.6797 152.285C60.5395 158.424 60.5395 168.379 66.6797 174.518C72.8199 180.658 82.7751 180.658 88.9153 174.518Z" fill="#E85C00"/>
<path d="M62.1322 162.094C62.1322 162.094 93.0882 166.903 93.5197 167.226C93.7714 167.42 92.2836 158.898 90.9172 143.527C86.3459 142.646 75.4145 140.552 68.9374 139.316L62.1322 162.094Z" fill="#E85C00"/>
<path d="M68.9374 139.316C75.4144 140.552 86.3459 142.646 90.9172 143.527C91.3846 137.545 91.8026 132.12 92.0454 128.879C92.1397 128.749 92.2252 128.61 92.2926 128.452C93.1421 126.349 93.8927 124.16 93.5197 121.864C93.1736 119.733 91.6543 117.922 90.2384 116.371C87.8741 113.782 84.966 111.693 81.869 110.061C80.1925 109.18 78.3271 108.119 76.5651 109.405C75.7875 109.976 75.2347 110.78 74.6998 111.571C74.1919 112.317 73.7514 113.108 73.4772 113.971C72.8524 115.94 73.3154 118.079 73.9132 119.994C74.0435 120.412 74.1874 120.83 74.3402 121.243L68.9374 139.316Z" fill="#FFA895"/>
<path d="M61.822 160.795C62.2086 158.318 62.9233 155.882 63.6335 153.473C66.9597 142.192 70.2813 130.906 73.6075 119.625C73.7873 119.014 74.102 118.286 74.7402 118.232C75.2526 118.192 75.6841 118.663 75.7875 119.167C75.8909 119.67 75.7471 120.183 75.6032 120.677C73.4547 128.088 71.3062 135.495 69.1576 142.907C67.5709 148.381 65.5393 153.738 64.3796 159.33C63.139 165.316 64.3976 171.591 69.5532 175.388C72.1018 177.267 75.4324 178.242 78.5878 178.166C84.4356 178.027 89.3799 172.35 93.4792 168.791C98.9225 164.062 104.231 159.177 109.391 154.143C111.548 152.035 113.684 149.905 115.792 147.747C116.807 146.709 118.403 148.305 117.387 149.343C110.007 156.894 102.312 164.134 94.3242 171.038C91.3801 173.582 88.5124 176.503 85.0784 178.499C81.1544 180.777 76.7899 180.633 72.5422 179.267C64.8246 176.782 60.6084 168.602 61.8265 160.795H61.822Z" fill="white"/>
<path d="M84.3097 116.277C84.4131 117.589 84.7143 118.87 85.0829 120.133C85.4379 121.347 85.784 122.578 86.3639 123.706C87.2089 125.365 88.6742 126.439 90.2564 127.315C90.1396 127.891 90.4407 128.556 90.9351 128.839C91.6363 129.252 92.4184 128.951 92.8634 128.336C92.9938 128.156 93.1151 127.967 93.2365 127.787C93.3309 127.702 93.4163 127.603 93.4837 127.482C93.5287 127.41 93.5646 127.329 93.5916 127.252C96.0997 123.288 97.3628 118.524 97.1785 113.841C97.0886 111.445 96.5357 109.194 95.8705 106.906C95.5109 105.665 95.2906 104.447 95.2007 103.157C95.0974 101.787 95.0524 100.411 94.8097 99.0585C94.4366 96.9821 92.796 94.7663 90.4182 95.5079C88.0495 96.2405 87.1819 99.2068 86.7145 101.355C86.1886 103.755 86.0942 106.227 85.6897 108.645C85.2626 111.207 84.112 113.639 84.3187 116.281L84.3097 116.277Z" fill="#FFA895"/>
<path d="M113.971 197.991L193.606 176.045C195.598 175.343 197.737 174.957 199.971 174.957C200.268 174.957 200.564 174.966 200.856 174.979C201.149 174.97 201.445 174.957 201.742 174.957C214.656 174.957 225.124 185.425 225.124 198.337C225.124 201.182 224.616 203.906 223.686 206.427C223.686 206.495 223.677 206.553 223.659 206.607L223.367 207.241C223.119 207.843 222.845 208.427 222.549 209.003L180.364 299.98L144.568 285.256L166.961 228.545L127.182 241.502L113.971 197.991Z" fill="#1250B3"/>
<path d="M148.734 81.8491C148.793 81.6738 148.887 81.521 149.026 81.3952C149.121 81.3233 149.215 81.2469 149.31 81.175C149.53 81.0491 149.768 80.9817 150.02 80.9817C150.146 80.9997 150.272 81.0132 150.393 81.0311C150.631 81.0985 150.838 81.2199 151.013 81.3952C151.202 81.6334 151.395 81.8716 151.584 82.1098C151.723 82.2357 151.818 82.3885 151.876 82.5638C151.966 82.73 152.007 82.9143 151.998 83.1076C152.007 83.3009 151.966 83.4806 151.876 83.6514C151.818 83.8267 151.723 83.9795 151.584 84.1054C151.49 84.1773 151.395 84.2537 151.301 84.3256C151.081 84.4514 150.842 84.5189 150.591 84.5189C150.465 84.5009 150.339 84.4874 150.218 84.4694C149.979 84.402 149.773 84.2806 149.597 84.1054C149.409 83.8672 149.215 83.6289 149.026 83.3952C148.887 83.2694 148.793 83.1166 148.734 82.9413C148.644 82.775 148.604 82.5907 148.613 82.3975C148.604 82.2042 148.644 82.0244 148.734 81.8536V81.8491Z" fill="#233D4D"/>
<path d="M158.42 80.1411C158.479 79.9658 158.573 79.813 158.713 79.6872C158.807 79.6153 158.901 79.5389 158.996 79.4669C159.216 79.3411 159.454 79.2737 159.706 79.2737C159.832 79.2917 159.958 79.3051 160.079 79.3231C160.317 79.3905 160.524 79.5119 160.699 79.6872C160.982 80.0198 161.266 80.3524 161.549 80.685C161.688 80.8108 161.783 80.9636 161.841 81.1389C161.931 81.3052 161.971 81.4895 161.962 81.6827C161.971 81.876 161.931 82.0558 161.841 82.2266C161.783 82.4018 161.688 82.5547 161.549 82.6805C161.454 82.7524 161.36 82.8288 161.266 82.9007C161.045 83.0266 160.807 83.094 160.555 83.094C160.43 83.076 160.304 83.0625 160.182 83.0446C159.944 82.9771 159.737 82.8558 159.562 82.6805C159.279 82.3479 158.996 82.0153 158.713 81.6827C158.573 81.5569 158.479 81.4041 158.42 81.2288C158.331 81.0625 158.29 80.8782 158.299 80.685C158.29 80.4917 158.331 80.3119 158.42 80.1411Z" fill="#233D4D"/>
<path d="M144.954 79.9839C146.181 77.8355 148.541 76.4602 151.009 76.4108C151.746 76.3973 152.452 77.0715 152.42 77.8221C152.384 78.5996 151.8 79.2153 151.009 79.2333C150.856 79.2333 150.703 79.2513 150.55 79.2693C150.204 79.3277 149.867 79.4131 149.539 79.5345C149.4 79.5929 149.323 79.6333 149.242 79.6693C149.049 79.7682 148.86 79.8805 148.676 80.0019C148.608 80.0468 148.541 80.0963 148.474 80.1412C148.253 80.3255 148.105 80.4693 147.961 80.6176C147.894 80.6895 147.831 80.7615 147.768 80.8334C147.611 81.0446 147.494 81.2244 147.386 81.4087C147.022 82.0514 146.091 82.3255 145.458 81.9165C144.81 81.4985 144.559 80.6716 144.95 79.9884L144.954 79.9839Z" fill="#233D4D"/>
<path d="M156.816 81.912C157.239 82.6177 157.836 83.166 158.479 83.6649C159.23 84.2492 159.98 84.8335 160.983 84.829C161.617 84.829 162.084 84.3121 162.111 83.7009C162.138 83.0941 161.572 82.5727 160.983 82.5727C160.857 82.5593 160.816 82.5458 160.776 82.5323C159.463 82.1098 158.317 80.5233 158.371 79.1614C158.371 79.085 158.385 79.0086 158.385 78.9322C158.416 78.7839 158.443 78.649 158.484 78.5187C158.502 78.4603 158.52 78.4019 158.538 78.3434C158.573 78.2356 158.605 78.1771 158.538 78.3165C158.789 77.7367 158.695 77.1344 158.133 76.7749C157.661 76.4737 156.825 76.6355 156.591 77.1794C155.926 78.703 155.944 80.4558 156.812 81.9076L156.816 81.912Z" fill="#F76D6D"/>
<path d="M157.005 76.0108C157.355 75.7366 157.693 75.4894 158.102 75.3096C158.506 75.1343 158.906 74.9815 159.347 74.9141C160.219 74.7838 161.118 74.7973 161.954 75.1254C162.309 75.2647 162.596 75.4355 162.794 75.7726C162.969 76.0737 163.046 76.5187 162.938 76.8602C162.826 77.2018 162.614 77.5299 162.291 77.7007C161.976 77.867 161.554 77.9794 161.203 77.8445C161.001 77.7636 160.789 77.7097 160.578 77.6692C160.371 77.6513 160.165 77.6513 159.953 77.6692C159.747 77.7097 159.549 77.7636 159.351 77.831C159.144 77.9344 158.942 78.0513 158.753 78.1906C158.83 78.1322 158.911 78.0693 158.987 78.0108C158.681 78.249 158.403 78.4198 157.998 78.4198C157.652 78.4198 157.239 78.267 157 78.0063C156.753 77.7367 156.569 77.3861 156.587 77.0086C156.6 76.6625 156.713 76.2355 157 76.0108H157.005Z" fill="#233D4D"/>
<path d="M153.04 87.9347C153.355 87.4448 154.056 87.1841 154.582 87.5302C154.789 87.665 155 87.7954 155.22 87.9077C155.333 87.9661 155.445 88.0156 155.553 88.0695C156.083 88.2628 156.537 88.3976 157.014 88.4785C157.045 88.483 157.077 88.4875 157.104 88.492C157.252 88.5055 157.373 88.519 157.499 88.5235C157.733 88.5369 157.962 88.5369 158.196 88.528C158.304 88.5235 158.412 88.5145 158.52 88.5055C158.574 88.501 158.627 88.4965 158.681 88.4875C158.924 88.4426 159.167 88.3976 159.41 88.3302C159.98 88.1774 160.659 88.519 160.798 89.1167C160.933 89.71 160.619 90.3392 160.012 90.5055C157.805 91.0943 155.36 90.7303 153.445 89.4718C152.95 89.1482 152.699 88.4605 153.04 87.9302V87.9347Z" fill="#F76D6D"/>
<path d="M132.225 91.9033C132.409 91.3325 133.007 90.9325 133.614 91.1168C135.16 91.5797 136.711 92.0426 138.257 92.5056C138.9 92.6988 139.367 93.5483 138.931 94.164C138.131 95.2832 137.219 96.3079 136.171 97.1978C135.722 97.5798 135.012 97.6742 134.576 97.1978C134.189 96.7798 134.095 96.0113 134.576 95.6023C135.052 95.1978 135.506 94.7708 135.929 94.3124C135.964 94.2764 135.996 94.236 136.027 94.1955C135.021 93.8944 134.018 93.5932 133.011 93.2966C132.445 93.1258 132.031 92.4966 132.225 91.9078V91.9033Z" fill="#F76D6D"/>
<path d="M231.992 80.757C232.154 85.1661 235.943 87.5122 239.62 89.0223C239.966 89.1617 240.312 89.2965 240.663 89.4224C241.733 89.8134 242.838 90.128 243.962 90.3707C246.088 90.8201 248.277 91.0134 250.453 90.9235C251.212 89.6471 251.54 88.8785 251.54 88.8785C251.54 88.8785 251.877 88.7751 252.385 88.5235C252.358 88.5235 252.322 88.5235 252.295 88.5279C250.569 88.7257 248.821 88.7437 247.104 88.5684C245.989 88.4605 244.892 88.2808 243.805 88.0156C242.789 87.7729 241.791 87.4628 240.816 87.0852C239.98 86.7661 239.171 86.3931 238.375 85.9706C236.496 84.9593 234.725 83.6469 234.325 81.5031C233.907 79.2648 234.9 76.8962 235.763 74.8782C236.002 74.3164 235.939 73.6737 235.359 73.3321C234.878 73.0579 234.055 73.1748 233.813 73.7366C232.869 75.9479 231.907 78.303 231.992 80.757Z" fill="#F76D6D"/>
<path d="M237.561 87.6425C237.894 88.2044 238.55 88.2897 239.108 88.0426C239.71 87.7774 240.281 87.4583 240.816 87.0852C243.292 85.3998 245.054 82.7346 245.85 79.8581C246.758 76.5861 246.403 73.1523 245.333 69.9747C244.353 69.6286 243.423 69.332 242.591 69.0893C243.984 72.2579 244.609 75.885 243.674 79.2603C242.879 82.1368 240.991 84.6222 238.307 85.9346C238.195 85.9976 238.083 86.047 237.97 86.0964C237.413 86.3436 237.287 87.1571 237.566 87.6425H237.561Z" fill="#F76D6D"/>
<path d="M240.663 89.4223C241.733 89.8134 242.838 90.128 243.962 90.3707C245.095 90.0021 246.151 89.3235 247.104 88.5684C247.522 88.2358 247.917 87.8897 248.295 87.5526C249.963 86.0425 251.41 84.1997 252.327 82.1323C253.473 79.5569 253.806 76.658 253.172 73.9928C252.215 73.2377 251.113 72.559 249.963 71.9612C251.648 74.6894 251.626 78.303 250.286 81.1929C249.468 82.9593 248.286 84.4919 246.861 85.8088C245.989 86.6133 244.955 87.5167 243.805 88.0156C243.148 88.3032 242.461 88.4605 241.746 88.3976C241.022 88.3347 240.663 88.865 240.663 89.4223Z" fill="#F76D6D"/>
<path d="M233.17 99.6159C237.449 96.3124 236.532 90.4066 234.496 86.1009C233.88 84.7975 235.822 83.6514 236.442 84.9638C237.777 87.7864 238.784 90.928 238.442 94.0876C238.146 96.8158 236.977 99.5035 234.766 101.211C234.285 101.584 233.642 101.679 233.17 101.211C232.783 100.825 232.684 99.9934 233.17 99.6159Z" fill="#F76D6D"/>
<path d="M88.6158 164.017C90.3733 152.804 91.2857 141.469 91.3756 130.12C91.3891 128.668 93.641 128.664 93.6321 130.12C93.5377 141.671 92.5803 153.204 90.7913 164.62C90.6969 165.222 89.9418 165.554 89.4024 165.406C88.7596 165.231 88.5214 164.624 88.6158 164.017Z" fill="white"/>
<path d="M44.2472 15.8566L91.2857 134.952L93.3309 140.138L133.299 241.327L136.445 240.082L93.6141 131.63L92.5892 129.037L47.8835 15.8566H44.2472Z" fill="#FCCA46"/>
<path d="M70.569 115.342C71.7152 117.863 73.0861 120.385 74.7582 122.592C76.4393 124.812 78.8934 125.99 81.6668 126.111C84.4626 126.237 86.8763 124.893 88.89 123.059C90.3508 121.724 91.7352 120.007 92.1487 118.048C93.1241 115.499 92.5398 113.225 91.9644 110.605C91.3621 107.863 90.5036 104.546 88.418 102.645C86.6066 101 84.3637 99.872 81.9275 99.5619C80.5251 99.3821 79.1047 99.5125 77.7113 99.7013C76.2999 99.8945 75.1627 100.479 74.0031 101.27C71.8321 102.749 69.5037 104.443 68.789 107.117C68.0429 109.904 69.4453 112.857 70.578 115.342H70.569Z" fill="#FFA895"/>
<path d="M72.722 109.243C76.8618 105.382 82.2511 103.099 87.9011 102.784C89.3529 102.704 89.3485 104.96 87.9011 105.041C82.8624 105.319 78.0035 107.396 74.3132 110.839C73.2524 111.827 71.6523 110.236 72.7175 109.243H72.722Z" fill="#F76D6D"/>
<path d="M76.3449 114.448C78.3316 112.946 80.5745 111.872 82.8893 110.969C84.0445 110.519 85.2132 110.115 86.3863 109.728C87.6359 109.315 88.863 108.892 90.1755 108.726C90.7823 108.65 91.3037 109.301 91.3037 109.854C91.3037 110.528 90.7823 110.906 90.1755 110.982C89.0158 111.131 87.8741 111.607 86.7639 111.98C85.6627 112.349 84.5659 112.726 83.4872 113.149C81.3566 113.98 79.3115 115.018 77.4821 116.398C76.9966 116.767 76.219 116.475 75.9403 115.994C75.6032 115.414 75.8594 114.821 76.3449 114.452V114.448Z" fill="#F76D6D"/>
<path d="M79.9497 119.63C83.3928 117.185 87.3393 115.459 91.4655 114.569C92.8814 114.263 93.4837 116.439 92.0633 116.744C88.1034 117.598 84.3906 119.234 81.0869 121.576C80.588 121.926 79.8329 121.666 79.5452 121.171C79.2126 120.605 79.4508 119.98 79.9497 119.63Z" fill="#F76D6D"/>
<path d="M68.2317 107.76C70.2679 101.832 76.691 98.1731 82.8309 98.6091C84.5615 98.7304 86.265 99.1979 87.537 100.438C88.8271 101.692 89.6137 103.468 90.4317 105.041C92.0858 108.205 93.641 111.728 93.4208 115.383C93.2185 118.776 91.5869 122.295 88.3866 123.81C87.0831 124.425 85.9369 122.484 87.2494 121.864C89.5328 120.785 90.7868 118.461 91.1059 116.021C91.506 112.987 90.3733 109.971 89.0518 107.297C88.3551 105.89 87.6404 104.456 86.7999 103.126C85.9953 101.854 84.9255 101.144 83.4288 100.924C80.9116 100.551 78.1833 101.126 75.9404 102.286C73.4367 103.575 71.3286 105.656 70.4027 108.358C69.9352 109.724 67.7552 109.135 68.2272 107.76H68.2317Z" fill="#F76D6D"/>
<path d="M156.735 156.386C158.349 155.887 160.03 155.599 161.594 154.943C162.974 154.363 164.295 153.559 165.442 152.592C170.435 148.395 172.247 141.581 170.017 135.441C169.698 134.565 169.289 133.729 168.808 132.929C168.309 132.098 167.81 131.244 168.062 130.232C168.309 129.244 169.055 128.354 169.586 127.5C170.202 126.515 170.817 125.527 171.433 124.542C172.202 123.315 174.153 124.443 173.38 125.679L171.82 128.183C171.582 128.56 171.348 128.942 171.11 129.32C170.867 129.706 170.399 130.205 170.296 130.65C170.17 131.199 170.835 131.904 171.096 132.381C171.505 133.136 171.856 133.927 172.152 134.731C173.299 137.814 173.519 141.226 172.872 144.444C171.649 150.511 166.947 155.613 161.091 157.514C159.27 158.103 157.288 158.336 155.584 159.244C154.353 159.9 152.91 161.258 153.126 162.808C153.207 163.411 152.977 164.017 152.339 164.197C151.813 164.341 151.036 164.017 150.95 163.411C150.442 159.721 153.562 157.357 156.735 156.377V156.386Z" fill="white"/>
<path d="M213.199 142.911C213.972 139.257 214.746 135.608 215.519 131.958L214.251 131.351L213.433 130.956C212.633 134.745 211.824 138.529 211.024 142.318C210.727 143.738 212.903 144.336 213.199 142.916V142.911Z" fill="white"/>
<path d="M78.7856 17.3083H117.248C118.192 17.3083 118.956 16.5442 118.956 15.6004C118.956 14.6565 118.192 13.8925 117.248 13.8925H78.7856C77.8417 13.8925 77.0775 14.6565 77.0775 15.6004C77.0775 16.5442 77.8417 17.3083 78.7856 17.3083Z" fill="white"/>
<path d="M219.712 29.8029L236.128 1.37531C237.184 -0.458438 239.831 -0.458438 240.892 1.37531L257.307 29.8029C258.363 31.6367 257.042 33.9289 254.925 33.9289H250.79C249.27 33.9289 248.039 35.1604 248.039 36.6795V53.0934C248.039 54.6125 246.807 55.844 245.288 55.844H231.732C230.212 55.844 228.981 54.6125 228.981 53.0934V36.6795C228.981 35.1604 227.749 33.9289 226.23 33.9289H222.095C219.978 33.9289 218.656 31.6367 219.712 29.8029Z" fill="#E85C00"/>
<path d="M320.595 235.322C320.042 235.677 319.403 235.39 319.048 234.922C317.668 233.062 316.527 231.048 315.605 228.922L317.74 228.23C317.866 228.5 317.988 228.765 318.118 229.035C318.383 229.583 318.666 230.122 318.963 230.657C319.57 231.74 320.253 232.783 320.999 233.781C321.377 234.289 321.062 235.021 320.595 235.318V235.322Z" fill="white"/>
<path d="M326.829 232.599C326.393 233.071 325.683 232.981 325.238 232.599C323.462 231.075 321.938 229.255 320.756 227.246L322.963 226.536C323.008 226.621 323.067 226.706 323.116 226.783C323.296 227.057 323.48 227.331 323.673 227.601C323.763 227.727 323.858 227.853 323.948 227.978C324.038 228.091 324.078 228.149 324.123 228.203C324.937 229.219 325.845 230.154 326.829 230.999C327.31 231.412 327.22 232.172 326.829 232.594V232.599Z" fill="white"/>
<path d="M164.062 340.992C161.675 341.509 159.293 342.035 156.906 342.552C156.308 342.682 155.688 342.377 155.517 341.761C155.364 341.199 155.71 340.502 156.308 340.372C158.753 339.837 161.203 339.302 163.657 338.763L164.062 340.983V340.992Z" fill="white"/>
<path d="M165.482 348.817C163.307 349.703 161.122 350.588 158.947 351.469C158.385 351.698 157.706 351.217 157.558 350.678C157.382 350.04 157.782 349.523 158.349 349.289C160.592 348.381 162.83 347.473 165.069 346.561L165.482 348.817Z" fill="white"/>
</g>
<defs>
<clipPath id="clip0_275_2723">
<rect width="352" height="380" fill="white"/>
</clipPath>
</defs>
</svg>
