<svg width="600" height="512" viewBox="0 0 600 512" fill="none" xmlns="http://www.w3.org/2000/svg">
<g clip-path="url(#clip0_275_2602)">
<path d="M265.706 23.2142V160.175C265.706 161.874 265.493 163.527 265.102 165.112C262.894 174.027 254.83 180.628 245.219 180.628H156.11C144.791 180.628 135.622 171.472 135.622 160.175V23.2142H265.706Z" fill="#EDEDED"/>
<path d="M407.138 22.933V235.731H296.287C283.525 235.731 273.177 225.404 273.177 212.671V22.933H407.138Z" fill="white"/>
<path d="M435.694 105.853L433.054 114.487L384.206 99.5963L335.128 154.94L291.588 183.952L265.102 172.632L251.31 166.736L231.197 137.116L230.414 135.956L227.188 131.209L225.238 128.327L184.218 67.9149H135.622V58.8853H189.009L231.455 121.41L231.697 121.76L235.464 127.305L236.868 129.389L257.303 159.486L265.706 163.074L290.645 173.728L329.135 148.08L381.284 89.2693L435.694 105.853Z" fill="#E85C00"/>
<path d="M382.199 34.9017L332.287 71.3821L289.512 82.5128L247.416 84.6999L212.435 165.152L165.117 175.91L166.457 181.776L216.749 170.341L251.46 90.515L290.438 88.4886L334.921 76.9159L383.286 41.5664L433.457 57.5592L435.292 51.8245L382.199 34.9017Z" fill="#E0E0E0"/>
<path d="M419.245 77.7771L414.534 85.475L382.97 66.2273L336.687 100.056L284.129 160.491L265.706 137.598L249.101 116.955L236.868 129.389L232.727 133.603L230.414 135.956L220.947 145.577L213.643 153L135.622 82.8516V70.6991L213.257 140.508L225.238 128.327L230.984 122.483L231.697 121.76L242.763 110.515L249.78 103.385L265.706 123.184L284.399 146.421L330.521 93.3738L382.521 55.3779L419.245 77.7771Z" fill="#FCCA46"/>
<path d="M528.341 23.2142V212.952C528.341 225.685 517.994 236.012 505.237 236.012H407.132V23.2142H528.335H528.341Z" fill="#EDEDED"/>
<path d="M517.827 45.9808H464.999V63.403H517.827V45.9808Z" fill="#E0E0E0"/>
<path d="M517.827 72.9149H464.999V90.3371H517.827V72.9149Z" fill="#FCCA46"/>
<path d="M464.999 99.8547V116.955V117.277H517.827V116.955V99.8547V99.5332H464.999V99.8547Z" fill="#E0E0E0"/>
<path d="M517.827 126.473H464.999V143.895H517.827V126.473Z" fill="white"/>
<path d="M517.827 153.407H464.999V170.829H517.827V153.407Z" fill="#E0E0E0"/>
<path d="M447.583 45.9808H421.166V63.403H447.583V45.9808Z" fill="#E85C00"/>
<path d="M447.583 72.9149H421.166V90.3371H447.583V72.9149Z" fill="#FCCA46"/>
<path d="M421.166 99.8547V116.955V117.277H447.583V116.955V99.8547V99.5332H421.166V99.8547Z" fill="#E85C00"/>
<path d="M447.583 126.473H421.166V143.895H447.583V126.473Z" fill="#1250B3"/>
<path d="M447.583 153.407H421.166V170.829H447.583V153.407Z" fill="#1250B3"/>
<path d="M321.893 366.032C319.673 365.217 207.276 413.328 177.81 425.756C148.351 438.19 138.274 442.897 138.274 442.897L88.2639 329.839C88.2639 329.839 154.982 301.062 196.647 282.963C198.01 282.366 199.35 281.792 200.661 281.218C206.465 278.698 211.67 276.436 216.001 274.536C251.137 259.186 287.838 252.883 287.838 252.883C287.838 252.883 324.102 366.848 321.888 366.032H321.893Z" fill="#E85C00"/>
<path d="M131.332 443.695C167.319 443.695 196.492 414.573 196.492 378.65C196.492 342.727 167.319 313.605 131.332 313.605C95.345 313.605 66.172 342.727 66.172 378.65C66.172 414.573 95.345 443.695 131.332 443.695Z" fill="#E85C00"/>
<path d="M295.534 382.485C331.521 382.485 360.694 353.363 360.694 317.44C360.694 281.517 331.521 252.395 295.534 252.395C259.547 252.395 230.374 281.517 230.374 317.44C230.374 353.363 259.547 382.485 295.534 382.485Z" fill="#E85C00"/>
<path d="M570.65 369.597L551.796 495.99H270.026L263.129 331.108L285.371 253.187C291.841 252.355 300.848 251.58 312.346 251.046C313.588 255.747 315.475 261.39 318.281 267.211C327.852 287.016 343.548 299.432 363.656 303.129C371.996 304.662 379.818 305.339 387.134 305.339C416.881 305.339 438.237 294.122 451.782 283.497C463.756 274.111 471.418 263.916 475.38 257.803C498.669 261.585 514.336 266.568 524.234 270.632C524.252 270.638 524.257 270.638 524.275 270.65C534.501 274.875 538.585 278.135 538.585 278.135L570.644 369.597H570.65Z" fill="#E85C00"/>
<path d="M578.725 338.203C578.725 374.126 549.553 403.248 513.565 403.248C477.577 403.248 448.405 374.126 448.405 338.203C448.405 302.279 470.422 267.923 506.41 267.923C542.398 267.923 578.725 302.279 578.725 338.203Z" fill="#E85C00"/>
<path d="M531.533 406.835H303.327V511.989H531.533V406.835Z" fill="#E85C00"/>
<path d="M598.321 428.729C597.711 418.718 588.462 371.802 586.737 361.216C582.55 335.568 573.796 314.966 573.796 314.966L469.077 354.19C469.077 354.19 474.518 381.962 480.315 410.412C473.223 420.825 469.077 433.396 469.077 446.932C469.077 482.856 498.249 511.977 534.236 511.977C554.81 511.977 573.721 511.139 590.636 486.346C604.055 466.679 599.454 447.449 598.321 428.724V428.729Z" fill="#E85C00"/>
<path d="M436.189 428.884C436.183 436.031 432.151 441.68 424.565 442.133C422.328 442.277 420.148 441.915 417.985 441.421C417.726 441.519 417.479 441.622 417.232 441.72C412.59 443.586 407.954 445.445 403.324 447.311C401.024 448.235 398.74 449.182 396.428 450.078C394.237 450.928 391.862 451.582 389.503 451.065C385.656 450.222 383.453 446.312 383.453 442.581C383.453 440.009 384.476 437.661 385.914 435.578C385.909 435.583 385.891 435.595 385.886 435.601C381.624 439.022 377.091 443.121 371.696 442.638C369.373 442.438 367.13 441.519 365.37 439.625C363.518 437.633 362.597 434.567 362.724 431.594C362.804 429.699 363.213 427.983 363.834 426.427C360.659 427.937 357.294 428.385 354.401 425.624C352.406 423.712 351.411 420.71 351.25 417.696C351.077 414.384 352.118 411.106 353.539 408.345C356.311 402.961 360.337 398.437 364.599 394.826C384.183 378.248 405.309 379.253 419.348 402.639C422.702 408.225 436.195 422.943 436.189 428.884Z" fill="#FFA895"/>
<path d="M499.876 416.703C498.007 431.353 495.965 445.985 493.734 460.594C491.353 476.185 488.776 491.748 485.986 507.276C482.731 506.661 479.378 505.961 475.95 505.169C475.53 505.071 475.104 504.974 474.69 504.876C435.597 495.674 408.179 481.128 408.179 481.128C408.179 481.128 419.981 415.004 419.981 417.404C419.981 418.666 450.838 420.503 489.466 417.593C492.877 417.335 496.351 417.042 499.871 416.703H499.876Z" fill="#FFA895"/>
<path d="M443.81 466.117C438.754 473.459 430.15 477.54 421.476 478.677C411.083 480.037 400.046 480.542 390.769 476.145C380.652 471.346 370.103 461.674 359.739 457.38C354.666 455.273 351.232 453.052 345.751 452.523C340.385 452.018 334.449 453.235 329.468 450.675C325.126 448.436 322.072 442.799 325.16 438.339C326.575 436.301 328.594 433.396 330.808 432.392C333.408 431.209 336.318 430.813 339.091 430.113C349.179 427.547 359.008 427.139 369.068 428.494C369.695 427.53 370.356 426.605 371.069 425.704C376.821 418.425 385.552 413.552 394.651 411.927C397.268 411.462 399.896 411.273 402.508 411.324C400.15 410.676 397.889 409.579 395.865 408.288C392.201 405.957 389.089 402.903 385.788 400.113C382.814 397.599 379.57 395.441 375.889 394.109C368.769 391.531 360.722 391.56 353.7 394.465C350.001 395.992 346.671 398.431 342.737 399.379C338.826 400.326 334.811 399.333 332.344 396.038C330.227 393.219 329.693 389.275 330.693 385.935C331.803 382.209 334.432 379.178 337.446 376.836C343.514 372.117 350.956 369.592 358.566 368.926C366.06 368.265 373.75 369.454 380.841 371.911C388.296 374.488 395.013 378.501 401.133 383.449C404.877 386.474 408.346 389.832 411.595 393.38C415.224 397.335 418.618 401.261 421.695 405.653C421.695 406.152 422.891 407.358 423.19 407.788C423.783 408.632 424.369 409.47 424.962 410.314C427.832 414.407 430.317 418.758 433.25 422.805C437.414 428.557 442.585 434.263 445.265 440.893C447.612 446.691 448.578 453.258 446.927 459.372C446.277 461.783 445.225 464.073 443.81 466.128V466.117Z" fill="#FFA895"/>
<path d="M382.021 131.898C381.871 135.905 380.818 139.785 379.179 143.43C375.964 150.589 370.299 156.289 363.995 160.824C357.548 165.462 350.185 169.509 342.484 171.576C334.823 173.636 326.213 173.55 319.156 169.595C313.14 166.225 308.515 160.037 308.17 153.028C308.003 149.659 308.883 146.18 310.62 143.287C311.46 141.898 312.513 140.594 313.755 139.544C315.026 138.453 316.441 137.707 317.908 136.921C319.138 136.255 320.421 135.514 320.519 133.97C320.628 132.081 319.932 130.204 319.903 128.31C319.846 124.693 320.996 120.991 323.13 118.069C325.379 114.992 328.6 112.748 332.269 111.697C334.058 111.186 335.968 110.957 337.825 111.066C339.706 111.181 341.604 111.668 343.45 111.077C345.757 110.342 347.638 107.937 349.53 106.29C351.991 104.137 354.833 102.725 358.169 103.511C360.067 103.959 361.769 105.01 363.454 105.957C365.266 106.979 367.118 107.931 369.01 108.804C372.755 110.52 376.649 111.887 380.629 112.96C382.768 113.528 381.854 116.841 379.714 116.272C379.087 116.1 378.466 115.916 377.851 115.738C378.564 117.133 379.22 118.551 379.8 120.004C381.307 123.775 382.182 127.822 382.032 131.898H382.021Z" fill="#233D4D"/>
<path d="M447.583 175.674C447.583 206.5 422.552 231.494 391.666 231.494C360.78 231.494 335.749 206.506 335.749 175.674C335.749 144.842 340.678 107.599 371.438 110.308C422.627 114.82 447.577 144.848 447.577 175.674H447.583Z" fill="#233D4D"/>
<path d="M427.096 264.674L364.346 282.894L338.395 229.399L395.922 194.813L402.456 209.457L395.755 213.188C395.433 213.067 395.059 213.039 394.663 213.136C393.794 213.372 393.012 214.428 393.391 215.323C396.584 222.981 400.431 230.369 404.935 237.384C405.349 238.021 406.229 238.446 407.005 238.205C409.415 237.435 411.843 236.678 414.264 235.92L415.863 239.502L427.096 264.68V264.674Z" fill="#FFA895"/>
<path d="M414.264 235.92C411.843 236.678 409.421 237.441 407.005 238.205C406.229 238.446 405.349 238.027 404.935 237.384C400.431 230.363 396.584 222.981 393.391 215.323C393.018 214.428 393.8 213.366 394.663 213.136C395.059 213.039 395.433 213.067 395.755 213.188L402.456 209.457L403.261 211.271L414.264 235.92Z" fill="#233D4D"/>
<path d="M392.684 199.962C392.684 222.533 374.354 240.834 351.744 240.834C329.135 240.834 310.804 222.533 310.804 199.962C310.804 196.259 311.299 192.677 312.219 189.267C316.93 171.88 332.839 159.09 351.744 159.09C374.354 159.09 392.684 177.391 392.684 199.962Z" fill="#FFA895"/>
<path d="M351.744 125.589C351.744 125.589 331.683 134.464 323.717 157.489C319.915 168.481 312.973 186.828 312.973 186.828L391.194 209.967C391.194 209.967 420.821 176.489 421.166 174.153C421.338 172.999 413.332 149.308 384.707 136.668C356.081 124.028 351.744 125.589 351.744 125.589Z" fill="#FFA895"/>
<path d="M397.723 225.76C406.461 225.74 413.529 218.651 413.509 209.926C413.49 201.201 406.389 194.145 397.651 194.164C388.912 194.184 381.844 201.273 381.864 209.998C381.884 218.723 388.984 225.779 397.723 225.76Z" fill="#FFA895"/>
<path d="M457.694 255.357C453.933 260.15 448.584 266.006 441.492 271.482C420.757 287.498 395.531 292.917 366.52 287.595C351.503 284.834 340.143 275.81 332.735 260.765C330.969 257.194 329.647 253.664 328.652 250.483C354.631 249.898 389.578 250.409 433.244 253.193C442.044 253.75 450.183 254.485 457.694 255.357Z" fill="#FFA895"/>
<path d="M358.238 170.76C356.8 170.014 354.977 170.422 353.953 171.673C353.59 172.121 353.36 172.5 353.153 173.045C353.004 173.447 352.946 173.872 352.9 174.297C352.854 174.704 352.877 175.117 352.923 175.531C352.854 176.191 352.917 176.857 353.13 177.488C353.28 177.93 353.567 178.384 353.999 178.613C354.447 178.849 354.954 178.946 355.448 178.803C356.604 178.476 357.691 177.999 358.612 177.213C359.543 176.42 360.136 175.169 360.067 173.941C359.998 172.672 359.411 171.369 358.238 170.76Z" fill="#233D4D"/>
<path d="M333.558 167.586C333.529 167.385 333.512 167.184 333.437 166.995C333.339 166.736 333.241 166.461 333.08 166.231C332.672 165.64 332.166 165.227 331.476 165.003C330.866 164.808 330.187 164.882 329.606 165.129C329.014 165.382 328.577 165.789 328.22 166.323C327.973 166.69 327.806 167.138 327.714 167.574C327.639 167.942 327.593 168.326 327.593 168.705C327.444 169.354 327.449 170.031 327.657 170.663C327.8 171.105 328.094 171.564 328.525 171.788C328.945 172.012 329.514 172.161 329.974 171.977C330.889 171.621 331.757 171.254 332.482 170.577C332.931 170.158 333.259 169.63 333.454 169.055C333.546 168.791 333.569 168.504 333.598 168.229C333.621 168.011 333.586 167.804 333.558 167.586Z" fill="#233D4D"/>
<path d="M375.82 165.944C374.003 161.731 371.438 157.236 367.331 154.877C364.449 153.218 354.028 151.834 356.144 157.89C357.076 160.571 361.775 160.881 364.053 161.955C367.337 163.493 370.333 165.628 372.858 168.223C373.508 168.889 374.613 168.941 375.331 168.372C376.125 167.741 376.2 166.834 375.815 165.944H375.82Z" fill="#233D4D"/>
<path d="M339.091 155.479C338.412 153.16 334.771 154.148 335.456 156.478C336.756 160.893 335.715 165.944 332.695 169.457C330.969 171.466 328.571 172.54 326.708 174.371C324.723 176.323 323.579 179.704 325.385 182.155C325.989 182.97 327.018 183.384 327.961 182.832C328.767 182.362 329.244 181.082 328.64 180.261C327.173 178.269 330.107 176.357 331.499 175.41C333.667 173.929 335.519 172.23 336.951 170.008C339.683 165.76 340.523 160.33 339.096 155.485L339.091 155.479Z" fill="#F76D6D"/>
<path d="M336.238 149.176C334.547 147.736 332.482 146.748 330.279 146.421C327.685 146.036 325.074 146.398 322.773 147.695C321.888 148.195 321.589 149.4 322.095 150.267C322.584 151.099 323.63 151.392 324.493 151.019C326.903 151.628 328.91 152.489 331.021 153.861C332.131 154.584 332.85 155.33 333.972 156.094C335.392 157.058 337.4 156.989 338.383 155.445C339.781 153.241 337.894 150.583 336.232 149.171L336.238 149.176Z" fill="#233D4D"/>
<path d="M340.16 196.007C339.919 195.123 338.786 194.302 337.843 194.692C333.425 196.523 328.588 196.862 323.981 195.542C321.646 194.876 320.651 198.504 322.98 199.17C328.168 200.651 333.851 200.387 338.843 198.32C339.781 197.93 340.454 197.075 340.16 196.007Z" fill="#F76D6D"/>
<path d="M404.797 205.433C399.73 206.77 394.657 208.108 389.59 209.445C387.956 209.876 387.824 212.017 389.141 212.884C393.276 215.593 397.406 218.308 401.541 221.018C402.393 221.575 403.624 221.184 404.118 220.34C404.653 219.422 404.296 218.326 403.445 217.769C400.512 215.846 397.584 213.923 394.651 212C398.367 211.018 402.082 210.036 405.798 209.061C408.139 208.441 407.143 204.813 404.797 205.433Z" fill="#F76D6D"/>
<path d="M426.4 171.748C425.802 174.268 424.513 176.598 423.07 178.728C420.28 182.855 415.144 185.714 411.676 189.291C404.808 196.363 398.326 201.81 389.549 206.311C388.503 206.856 387.761 207.878 387.369 206.805C386.052 203.211 384.689 199.411 384.977 195.519C385.178 192.66 386.173 189.796 388.203 187.712C389.181 186.702 390.36 186.024 391.637 185.456C392.58 185.031 393.938 184.606 394.335 183.539C394.582 182.855 394.519 182.075 394.519 181.369C394.524 180.594 394.576 179.83 394.697 179.061C394.904 177.695 395.399 176.369 396.066 175.158C396.595 174.187 397.256 173.321 398.01 172.551C395.847 171.868 393.898 170.56 392.471 168.659C391.269 167.064 390.585 165.198 390.395 163.281C389.584 163.321 388.773 163.315 387.956 163.246C382.101 162.747 376.516 159.337 373.957 153.941C372.64 151.174 372.237 148.074 372.697 145.124C371.397 145.101 370.097 145.009 368.803 144.785C362.557 143.729 356.535 139.532 355.172 133.057C354.539 130.055 354.971 126.84 356.742 124.274C357.024 123.867 357.335 123.494 357.657 123.132C357.755 122.742 357.979 122.374 358.399 122.099C358.859 121.795 359.336 121.531 359.825 121.272C360.843 120.612 361.982 120.136 363.207 119.872C367.337 118.609 371.817 118.752 376.039 119.493C380.698 120.319 385.201 121.978 389.498 123.936C397.728 127.707 405.228 133.143 411.44 139.71C414.58 143.034 417.416 146.674 419.866 150.543C422.431 154.59 424.893 159.061 426.152 163.717C426.854 166.329 427.055 169.078 426.411 171.731L426.4 171.748Z" fill="#233D4D"/>
<path d="M444.201 141.639C443.01 141.031 441.705 140.749 440.411 140.778C440.877 139.148 440.94 137.397 440.554 135.732C440.278 134.538 438.507 133.987 437.679 134.975C435.712 137.328 434.774 140.21 434.935 143.206C434.912 143.247 434.889 143.287 434.872 143.327C434.015 143.407 433.215 144.119 433.256 145.032C433.296 145.933 434.015 146.783 434.975 146.748C438.185 146.633 441.268 145.893 444.201 144.601C445.374 144.085 445.277 142.185 444.201 141.633V141.639Z" fill="#233D4D"/>
<path d="M424.134 440.446C417.473 441.157 410.911 442.552 404.572 444.728C401.467 445.796 398.499 447.173 395.439 448.344C393.006 449.274 389.952 450.336 387.41 449.194C385.454 448.316 384.396 446.209 384.264 444.148C384.097 441.582 385.144 439.229 386.691 437.22C390.171 432.69 395.548 429.344 400.684 427.013C406.718 424.269 413.378 422.96 419.992 423.11C422.42 423.167 422.42 419.401 419.992 419.35C413.453 419.2 406.867 420.412 400.817 422.891C394.864 425.331 388.911 428.919 384.649 433.81C382.55 436.221 380.951 439.022 380.56 442.225C380.214 445.055 380.974 448.046 382.785 450.262C384.816 452.753 388.083 453.712 391.206 453.333C394.57 452.931 397.579 451.484 400.673 450.204C408.15 447.116 416.087 445.067 424.134 444.206C425.146 444.097 426.02 443.419 426.02 442.323C426.02 441.393 425.152 440.331 424.134 440.44V440.446Z" fill="white"/>
<path d="M415.063 403.69C402.272 402.806 389.25 405.957 378.207 412.444C375.452 414.057 372.841 415.894 370.362 417.903C367.826 419.958 365.416 422.197 363.541 424.883C359.998 429.969 359.216 437.776 364.605 441.95C367.285 444.028 370.84 444.688 374.158 444.269C378.19 443.758 380.105 442.759 383.62 440.836C385.748 439.671 385.552 435.503 383.424 436.668C378.903 439.148 372.962 442.415 367.837 439.596C365.709 438.425 364.547 436.267 364.455 433.867C364.352 431.112 365.45 428.592 367.066 426.405C368.746 424.131 370.96 422.225 373.152 420.463C375.343 418.695 377.69 417.117 380.117 415.687C385.034 412.8 390.337 410.624 395.859 409.2C402.134 407.587 408.61 406.996 415.069 407.444C416.087 407.513 416.956 406.531 416.956 405.561C416.956 404.488 416.093 403.753 415.069 403.678L415.063 403.69Z" fill="white"/>
<path d="M433.158 417.444C425.347 407.874 417.537 398.299 409.726 388.73C409.617 388.598 409.484 388.501 409.341 388.414C405.803 384.419 399.897 382.881 394.668 382.754C387.91 382.588 381.1 384.373 375.055 387.318C369.068 390.234 363.656 394.494 359.446 399.654C357.283 402.301 355.391 405.153 353.89 408.219C352.21 411.657 350.801 415.394 350.467 419.235C350.111 423.362 351.698 428.127 355.615 430.107C359.014 431.824 363.846 430.848 365.542 427.191C365.968 426.273 366.572 425.153 365.64 424.602C364.829 424.126 364.168 424.533 363.736 425.457C362.753 427.581 358.548 427.748 356.708 426.37C354.281 424.55 353.867 421.095 354.35 418.322C355.385 412.421 358.485 406.686 362.281 402.1C369.678 393.162 380.744 387.083 392.437 386.543C398.125 386.279 405.297 387.473 407.989 393.179C408.219 393.673 408.708 393.96 409.237 394.057L430.489 420.102C431.133 420.888 432.485 420.767 433.152 420.102C433.934 419.321 433.796 418.23 433.152 417.444H433.158Z" fill="white"/>
<path d="M399.172 404.493C394.858 403.5 390.148 404.849 387.111 408.098C386.438 408.816 386.346 410.056 387.111 410.756C387.841 411.428 389.055 411.525 389.774 410.756C390.073 410.435 390.389 410.13 390.728 409.849C390.74 409.838 390.803 409.792 390.849 409.752C390.895 409.717 390.953 409.677 390.964 409.665C391.154 409.528 391.35 409.401 391.545 409.281C391.919 409.051 392.31 408.845 392.713 408.661C392.73 408.655 392.811 408.621 392.868 408.598C392.92 408.58 392.972 408.558 392.983 408.552C393.202 408.471 393.42 408.397 393.645 408.328C394.041 408.207 394.444 408.11 394.852 408.035C394.962 408.012 395.071 408.001 395.186 407.978C395.41 407.966 395.612 407.938 395.819 407.932C396.262 407.909 396.699 407.915 397.141 407.949C397.245 407.955 397.349 407.966 397.452 407.978C397.717 408.035 397.947 408.07 398.177 408.121C399.137 408.339 400.265 407.828 400.495 406.807C400.713 405.848 400.207 404.729 399.178 404.493H399.172Z" fill="white"/>
<path d="M405.395 385.412C399.643 378.529 392.097 373.271 383.717 370.08C374.877 366.71 365.203 365.964 355.92 367.669C351.192 368.535 346.591 370.08 342.277 372.198C338.291 374.155 334.259 376.647 331.464 380.165C328.79 383.529 327.461 387.605 328.324 391.876C329.158 395.998 332.292 399.252 336.497 399.935C339.131 400.36 341.782 399.958 344.353 399.356C347.229 398.684 350.076 397.886 352.929 397.14C359.003 395.561 365.076 393.977 371.15 392.398C373.497 391.79 377.655 387.662 375.251 388.013C368.78 388.966 360.188 391.365 355.207 392.662C352.653 393.328 350.105 393.988 347.551 394.654C345.4 395.217 343.249 395.848 341.046 396.193C337.59 396.732 333.891 396.043 332.43 392.525C331.153 389.459 331.913 386.078 333.73 383.386C335.956 380.085 339.562 377.846 343.019 376.032C346.896 374 351.048 372.536 355.327 371.612C363.696 369.81 372.473 370.263 380.6 372.955C389.222 375.814 396.917 381.118 402.726 388.076C403.376 388.856 404.716 388.747 405.389 388.076C406.166 387.301 406.045 386.199 405.389 385.418L405.395 385.412Z" fill="white"/>
<path d="M427.464 478.505C426.912 478.849 426.365 479.176 425.796 479.469C416.116 484.635 404.164 483.372 394.271 479.32C383.89 475.072 374.975 468.218 365.272 462.718C360.579 460.061 355.678 457.719 350.456 456.289C347.839 455.566 345.176 455.084 342.461 454.934C339.591 454.774 336.698 454.934 333.834 454.619C328.749 454.068 323.475 451.903 321.52 446.795C319.852 442.432 321.405 437.369 324.361 433.942C327.697 430.078 332.919 428.437 337.831 427.857C343.738 427.162 349.714 427.134 355.638 426.887C358.071 426.783 358.629 430.83 356.213 430.928C350.082 431.192 343.232 430.739 337.129 431.72C332.419 432.478 327.501 434.516 325.448 439.143C323.924 442.581 324.476 446.662 327.772 448.838C332.097 451.68 337.567 450.905 342.467 451.18C353.015 451.76 362.661 456.611 371.501 462.035C380.272 467.426 388.796 473.671 398.648 476.966C405.447 479.228 413.102 480.003 419.941 477.844C421.666 477.311 423.334 476.587 424.922 475.646C425.848 475.784 426.808 475.766 427.78 475.548C428.516 476.346 428.66 477.758 427.47 478.51L427.464 478.505Z" fill="white"/>
<path d="M429.696 478.895C428.424 479.348 427.102 479.526 425.802 479.469C423.961 479.412 422.138 478.906 420.464 478.103C420.286 478.022 420.108 477.931 419.935 477.839C414.776 475.101 412.084 469.699 409.996 464.475C408.029 459.561 406.281 453.792 401.841 450.468C401.03 449.86 400.598 448.861 401.162 447.897C401.639 447.093 402.928 446.611 403.739 447.219C406.292 449.131 408.236 451.588 409.737 454.378C412.389 459.297 413.62 464.877 416.639 469.607C418.48 472.494 421.517 475.135 424.91 475.64C425.836 475.778 426.797 475.761 427.769 475.543C428.068 475.474 428.378 475.382 428.689 475.273C429.644 474.928 430.748 475.657 431.001 476.582C431.289 477.615 430.645 478.551 429.69 478.901L429.696 478.895Z" fill="white"/>
<path d="M550.697 415.027L534.236 511.983C534.236 511.983 516.792 512.465 492.428 508.424C491.514 508.28 490.605 508.125 489.679 507.959C488.465 507.741 487.24 507.517 485.992 507.276C488.782 491.754 491.358 476.185 493.739 460.594C495.971 445.985 498.013 431.358 499.882 416.703C501.147 416.657 502.407 416.623 503.655 416.588C505.116 416.542 506.571 416.497 508.003 416.451C531.602 415.716 550.703 415.021 550.703 415.021L550.697 415.027Z" fill="#E85C00"/>
<path d="M507.998 416.456L492.422 508.424C491.508 508.28 490.599 508.125 489.673 507.959C488.459 507.741 487.234 507.517 485.986 507.276C482.731 506.661 479.378 505.961 475.95 505.169C475.53 505.071 475.104 504.974 474.69 504.876L489.466 417.593C492.877 417.335 496.351 417.042 499.871 416.703C501.136 416.657 502.396 416.623 503.644 416.588C505.105 416.542 506.56 416.497 507.992 416.451L507.998 416.456Z" fill="#1250B3"/>
<path d="M548.541 410.842C548.241 409.763 547.235 409.384 546.223 409.528C531.545 411.646 516.798 413.334 502.022 414.585C487.257 415.836 472.459 416.657 457.648 417.048C449.28 417.266 440.911 417.346 432.543 417.294C430.115 417.277 430.115 421.037 432.543 421.054C447.479 421.152 462.422 420.813 477.342 420.033C492.261 419.252 507.158 418.035 522.003 416.382C530.423 415.446 538.832 414.361 547.218 413.15C548.224 413.006 548.776 411.726 548.535 410.836L548.541 410.842Z" fill="white"/>
<path d="M493.711 416.789C491.594 403.713 488.695 390.762 485.014 378.036C483.973 374.448 482.875 370.883 481.713 367.33C480.965 365.039 477.324 366.021 478.078 368.329C482.19 380.923 485.549 393.764 488.103 406.761C488.822 410.423 489.477 414.097 490.076 417.788C490.237 418.793 491.491 419.35 492.394 419.103C493.463 418.81 493.872 417.794 493.711 416.789Z" fill="white"/>
<path d="M208.392 206.368C208.121 207.235 207.805 208.108 207.425 208.963C207.408 209.25 207.385 209.526 207.368 209.807C206.954 214.807 205.809 219.916 203.992 224.755C203.336 230.507 202.203 237.212 201.334 244.818C199.845 257.768 195.301 292.538 191.476 325.758L93.8372 298.347C106.663 267.756 121.393 233.549 128.709 216.609C120.559 196.615 119.702 174.509 112.869 154.079C112.524 153.057 113.26 151.88 114.227 151.605C115.291 151.312 116.291 151.984 116.631 153.011C116.832 153.614 117.016 154.222 117.206 154.825C117.327 154.871 117.447 154.94 117.562 155.014C119.478 156.427 121.571 157.443 123.837 158.086C134.265 160.996 144.9 156.559 155.235 155.411C155.989 155.319 156.742 155.261 157.496 155.221C157.185 152.776 156.938 150.325 156.742 147.868C156.696 147.253 157.041 146.702 157.542 146.346C154.574 137.701 153.751 128.408 155.299 119.349C156.098 114.596 157.398 109.659 160.504 105.928C163.305 102.576 168.205 100.48 172.404 102.162C176.263 103.707 178.155 107.495 179.064 111.427C179.501 113.322 179.743 115.251 180.019 117.156C180.376 119.556 180.87 121.915 181.52 124.252C184.091 133.505 188.813 141.938 193.541 150.181C198.551 158.924 203.6 167.615 206.833 177.253C209.927 186.443 211.377 196.92 208.397 206.38L208.392 206.368Z" fill="#FFA895"/>
<path d="M170.698 95.3979C170.717 87.2216 164.093 80.5783 155.904 80.5598C147.715 80.5413 141.062 87.1544 141.043 95.3307C141.024 103.507 147.648 110.15 155.837 110.169C164.026 110.187 170.68 103.574 170.698 95.3979Z" fill="#1250B3"/>
<path d="M184.333 73.6669C190.012 73.6669 194.617 69.0716 194.617 63.403C194.617 57.7345 190.012 53.1392 184.333 53.1392C178.653 53.1392 174.049 57.7345 174.049 63.403C174.049 69.0716 178.653 73.6669 184.333 73.6669Z" fill="#1250B3"/>
<path d="M249.435 123.821C255.115 123.821 259.719 119.226 259.719 113.557C259.719 107.889 255.115 103.293 249.435 103.293C243.755 103.293 239.151 107.889 239.151 113.557C239.151 119.226 243.755 123.821 249.435 123.821Z" fill="#1250B3"/>
<path d="M382.745 73.6669C388.425 73.6669 393.029 69.0716 393.029 63.403C393.029 57.7345 388.425 53.1392 382.745 53.1392C377.066 53.1392 372.461 57.7345 372.461 63.403C372.461 69.0716 377.066 73.6669 382.745 73.6669Z" fill="#1250B3"/>
<path d="M383.499 51.7212C389.178 51.7212 393.783 47.1259 393.783 41.4574C393.783 35.7888 389.178 31.1935 383.499 31.1935C377.819 31.1935 373.215 35.7888 373.215 41.4574C373.215 47.1259 377.819 51.7212 383.499 51.7212Z" fill="#E0E0E0"/>
<path d="M334.967 83.9365C340.646 83.9365 345.251 79.3412 345.251 73.6726C345.251 68.004 340.646 63.4087 334.967 63.4087C329.287 63.4087 324.683 68.004 324.683 73.6726C324.683 79.3412 329.287 83.9365 334.967 83.9365Z" fill="#E0E0E0"/>
<path d="M251.137 100.607C256.817 100.607 261.421 96.0114 261.421 90.3429C261.421 84.6743 256.817 80.079 251.137 80.079C245.458 80.079 240.854 84.6743 240.854 90.3429C240.854 96.0114 245.458 100.607 251.137 100.607Z" fill="#E0E0E0"/>
<path d="M136.146 123.609C135.3 127.69 135.226 131.898 136.019 135.996C136.848 140.296 138.642 144.314 140.264 148.333C143.445 156.243 146.274 165.996 141.443 173.877C138.935 177.965 133.782 180.594 129.135 179.979C129.394 181.73 126.949 183.286 125.505 181.593C124.344 180.232 123.239 178.82 122.198 177.356C113.818 165.611 109.286 151.002 108.97 136.381C108.809 128.936 109.677 121.553 111.656 114.395C113.605 107.323 116.665 100.216 121.054 94.4127C123.423 91.2785 126.339 88.4714 129.859 86.8411C133.063 85.3601 136.497 85.1075 139.861 86.0834C142.766 86.91 145.561 88.7814 147.195 91.4736C149.196 94.7629 149.236 98.7582 147.77 102.3C146.171 106.152 143.335 109.189 140.977 112.524C138.659 115.802 136.986 119.613 136.152 123.609H136.146Z" fill="#FFA895"/>
<path d="M193.334 190.588C192.189 198.418 186.484 203.871 180.876 208.538C174.889 213.527 168.47 218.641 160.4 218.096C152.682 217.574 145.901 212.935 139.833 208.274C133.65 203.527 127.271 198.647 122.883 191.92C118.793 185.668 116.711 177.287 119.311 169.963C119.691 168.912 120.628 168.2 121.727 168.516C121.957 168.585 122.175 168.705 122.371 168.86C125.442 162.047 129.06 155.279 134.351 150.089C139.557 144.969 143.249 142.07 150.508 142.133C157.628 142.208 167.095 145.221 172.226 150.129C174.779 152.569 177.086 155.261 179.306 158.011C181.819 161.117 184.321 164.251 186.599 167.552C191.177 174.199 194.559 182.207 193.328 190.582L193.334 190.588Z" fill="#FFA895"/>
<path d="M179.375 164.584C176.626 160.852 173.681 157.219 170.592 153.757C167.739 150.56 164.582 147.517 160.872 145.319C157.133 143.103 152.808 141.886 148.449 142.19C143.997 142.5 139.7 144.113 135.973 146.542C127.162 152.288 122.267 161.869 117.747 171.013C117.298 171.926 117.499 173.045 118.419 173.585C119.253 174.073 120.548 173.826 120.996 172.907C124.723 165.364 128.577 157.454 135.082 151.874C140.897 146.892 149.047 144.159 156.409 147.253C159.969 148.752 162.989 151.283 165.675 154.004C168.556 156.932 171.156 160.141 173.715 163.35C179.122 170.129 184.304 177.919 185.011 186.805C185.362 191.208 184.58 195.611 182.222 199.388C180.192 202.648 177.126 205.226 173.387 206.259C171.052 206.902 172.047 210.53 174.388 209.887C182.665 207.608 187.87 199.675 188.727 191.455C189.756 181.633 185.046 172.276 179.375 164.589V164.584Z" fill="#F76D6D"/>
<path d="M173.773 206.127C173.571 206.081 173.37 206.03 173.169 205.966C173.088 205.938 173.008 205.915 172.927 205.88C172.887 205.863 172.789 205.823 172.755 205.806C172.663 205.76 172.571 205.714 172.479 205.662C172.295 205.565 172.122 205.456 171.95 205.341C171.88 205.295 171.811 205.243 171.742 205.197C171.616 205.088 171.484 204.979 171.363 204.864C171.213 204.721 171.064 204.577 170.926 204.422C170.868 204.359 170.811 204.29 170.753 204.227C170.747 204.216 170.73 204.198 170.713 204.181C170.684 204.141 170.65 204.101 170.632 204.078C170.575 203.992 170.512 203.906 170.46 203.82C170.356 203.659 170.259 203.498 170.167 203.332C170.086 203.177 170.011 203.022 169.936 202.867C169.902 202.775 169.867 202.689 169.839 202.597C169.724 202.252 169.643 201.902 169.574 201.546C169.568 201.454 169.557 201.368 169.551 201.277C169.54 201.07 169.54 200.863 169.551 200.657C169.591 199.675 168.66 198.734 167.665 198.774C166.612 198.82 165.818 199.6 165.778 200.657C165.623 204.801 168.706 208.831 172.76 209.749C173.721 209.968 174.843 209.457 175.078 208.435C175.297 207.476 174.791 206.357 173.761 206.121L173.773 206.127Z" fill="#F76D6D"/>
<path d="M177.264 187.901C176.493 187.132 175.383 187.247 174.601 187.901C169.062 192.551 164.438 198.286 161.056 204.675C159.923 206.816 163.173 208.716 164.311 206.575C167.561 200.438 171.944 195.031 177.264 190.559C178.04 189.905 177.937 188.573 177.264 187.901Z" fill="#F76D6D"/>
<path d="M175.889 163.229C175.331 162.276 174.244 162.133 173.313 162.552C162.609 167.385 153.096 174.882 145.878 184.136C143.79 186.811 141.874 189.612 140.172 192.545C138.953 194.646 142.208 196.541 143.427 194.445C149.081 184.692 157.11 176.374 166.67 170.376C169.407 168.659 172.266 167.132 175.216 165.801C176.142 165.382 176.367 164.038 175.889 163.229Z" fill="#F76D6D"/>
<path d="M166.33 151.415C166.043 150.365 165.019 149.917 164.012 150.101C151.715 152.385 140.356 159.412 132.672 169.245C130.492 172.035 128.588 175.008 127.03 178.189C126.581 179.101 126.782 180.221 127.703 180.76C128.531 181.243 129.831 181.001 130.279 180.083C135.427 169.561 144.48 161.082 155.316 156.582C158.433 155.284 161.694 154.343 165.007 153.729C166.008 153.545 166.578 152.334 166.324 151.415H166.33Z" fill="#F76D6D"/>
<path d="M142.34 112.122C145.003 106.967 148.805 102.197 148.937 96.135C149.052 90.6414 145.515 86.1122 140.172 84.8493C129.077 82.2259 120.202 93.1155 115.486 101.669C110.172 111.313 107.86 122.461 107.952 133.413C108.061 145.87 111.08 158.126 115.21 169.819C115.716 171.26 116.245 172.695 116.786 174.124C117.143 175.072 118.057 175.726 119.104 175.439C120.018 175.186 120.778 174.078 120.421 173.126C116.263 162.11 112.846 150.646 111.955 138.855C111.161 128.413 112.363 117.633 116.579 107.966C118.615 103.299 121.307 98.8731 124.717 95.0787C127.818 91.6287 131.941 88.2189 136.83 88.2189C138.809 88.2189 140.851 88.7528 142.455 89.9468C144.227 91.2671 145.113 93.3623 145.176 95.5322C145.331 101.055 141.506 105.578 139.096 110.233C134.219 119.665 133.621 131.255 137.59 141.123C138.096 142.38 138.654 143.608 139.28 144.802C140.408 146.943 143.663 145.049 142.536 142.902C137.578 133.471 137.446 121.617 142.352 112.128L142.34 112.122Z" fill="#F76D6D"/>
<path d="M131.251 217.149C126.247 202.7 122.762 187.729 120.962 172.546C120.841 171.535 120.179 170.663 119.075 170.663C118.149 170.663 117.074 171.53 117.189 172.546C118.621 184.612 121.013 196.552 124.436 208.222C125.413 211.558 126.477 214.864 127.611 218.148C127.944 219.106 128.905 219.743 129.928 219.462C130.86 219.204 131.579 218.113 131.246 217.149H131.251Z" fill="#F76D6D"/>
<path d="M189.377 344.047C186.219 371.796 183.735 394.229 183.735 394.229L69.3527 390.682C69.3527 390.682 60.7483 382.605 73.5973 348.243C76.5364 340.384 81.2585 328.657 86.7972 315.258L189.377 344.047Z" fill="#E85C00"/>
<path d="M191.47 325.752C191.194 328.197 190.913 330.631 190.636 333.048C190.493 334.311 190.349 335.562 190.199 336.808C189.923 339.253 189.647 341.664 189.377 344.047L86.7972 315.258C88.0568 312.21 89.3509 309.082 90.6853 305.884C91.1627 304.742 91.6401 303.588 92.1232 302.434C92.6869 301.08 93.262 299.713 93.8314 298.341L191.47 325.752Z" fill="#1250B3"/>
<path d="M200.667 281.218C199.747 288.003 198.861 294.8 198.01 301.602C195.951 318.031 194.093 334.489 192.442 350.958C190.792 367.433 189.354 383.925 188.111 400.435C187.933 402.852 184.166 402.719 184.344 400.308C185.046 390.998 185.811 381.692 186.645 372.393C188.111 355.895 189.797 339.426 191.672 322.974C193.202 309.616 194.864 296.281 196.658 282.957C198.021 282.36 199.362 281.786 200.673 281.212L200.667 281.218Z" fill="white"/>
<path d="M323.366 491.811L182.262 484.291C172.801 484.291 162.425 476.633 159.089 467.19L113.249 366.274C107.353 350.883 122.411 341.647 131.872 341.647H277.859C287.321 341.647 297.697 349.305 301.032 358.748L339.338 467.184C342.674 476.627 336.635 491.811 323.372 491.811H323.366Z" fill="white"/>
<path d="M318.092 497.075L176.988 489.555C167.527 489.555 157.151 481.897 153.815 472.454L107.975 371.538C102.079 356.147 117.137 346.911 126.598 346.911H272.585C282.046 346.911 292.422 354.569 295.758 364.012L334.064 472.448C337.4 481.891 331.361 497.075 318.097 497.075H318.092Z" fill="#233D4D"/>
<path d="M315.434 497.075H169.448C159.986 497.075 149.61 489.417 146.274 479.974L107.969 371.537C104.633 362.094 109.597 354.437 119.058 354.437H265.045C274.506 354.437 284.882 362.094 288.218 371.537L326.523 479.974C329.859 489.417 324.896 497.075 315.434 497.075Z" fill="#233D4D"/>
<path d="M234.786 429.671L226.751 442.064C225.071 444.659 220.855 444.659 217.341 442.064L200.546 429.671C197.032 427.076 195.548 422.874 197.228 420.279L205.263 407.886C206.942 405.291 211.158 405.291 214.672 407.886L231.467 420.279C234.981 422.874 236.465 427.076 234.786 429.671Z" fill="white"/>
<path d="M389.544 511.983H176.959C169.39 511.983 163.259 505.858 163.259 498.309C163.259 490.76 169.396 484.63 176.959 484.63H389.544C397.113 484.63 403.244 490.755 403.244 498.303C403.244 505.852 397.107 511.983 389.544 511.983Z" fill="#233D4D"/>
<path d="M475.386 257.803C471.423 263.916 463.762 274.111 451.787 283.497C438.237 294.122 416.887 305.339 387.139 305.339C379.823 305.339 372.001 304.662 363.661 303.129C343.548 299.438 327.858 287.016 318.287 267.211C315.475 261.39 313.594 255.747 312.352 251.046C315.365 250.903 318.546 250.776 321.899 250.667C324.079 250.598 326.328 250.529 328.657 250.478C329.652 253.658 330.981 257.188 332.741 260.759C340.149 275.804 351.508 284.828 366.526 287.59C395.537 292.917 420.763 287.492 441.498 271.476C448.589 266 453.938 260.139 457.7 255.351C460.806 255.707 463.802 256.086 466.695 256.488C469.704 256.901 472.602 257.338 475.392 257.797L475.386 257.803Z" fill="#1250B3"/>
<path d="M528.341 23.0593V23.2085H273.172V23.0593C273.172 10.327 283.519 0 296.282 0H505.237C517.994 0 528.341 10.327 528.341 23.0593Z" fill="#E0E0E0"/>
<path d="M265.706 20.4531V23.2143H135.622V20.4531C135.622 9.15598 144.791 0 156.11 0H245.219C256.538 0 265.706 9.15598 265.706 20.4531Z" fill="#E0E0E0"/>
<path d="M482.984 6.75647C480.298 6.75647 478.118 8.93209 478.118 11.6186C478.118 14.3051 480.298 16.4807 482.984 16.4807C485.67 16.4807 487.85 14.3051 487.85 11.6186C487.85 8.93209 485.67 6.75647 482.984 6.75647Z" fill="white"/>
<path d="M496.385 6.75647C493.699 6.75647 491.519 8.93209 491.519 11.6186C491.519 14.3051 493.699 16.4807 496.385 16.4807C499.071 16.4807 501.251 14.3051 501.251 11.6186C501.251 8.93209 499.071 6.75647 496.385 6.75647Z" fill="white"/>
<path d="M509.844 6.75647C507.158 6.75647 504.978 8.93209 504.978 11.6186C504.978 14.3051 507.158 16.4807 509.844 16.4807C512.53 16.4807 514.71 14.3051 514.71 11.6186C514.71 8.93209 512.53 6.75647 509.844 6.75647Z" fill="white"/>
<path d="M222.581 6.75647C219.895 6.75647 217.715 8.93209 217.715 11.6186C217.715 14.3051 219.895 16.4807 222.581 16.4807C225.267 16.4807 227.447 14.3051 227.447 11.6186C227.447 8.93209 225.267 6.75647 222.581 6.75647Z" fill="white"/>
<path d="M235.982 6.75647C233.296 6.75647 231.116 8.93209 231.116 11.6186C231.116 14.3051 233.296 16.4807 235.982 16.4807C238.668 16.4807 240.848 14.3051 240.848 11.6186C240.848 8.93209 238.668 6.75647 235.982 6.75647Z" fill="white"/>
<path d="M249.435 6.75647C246.749 6.75647 244.569 8.93209 244.569 11.6186C244.569 14.3051 246.749 16.4807 249.435 16.4807C252.121 16.4807 254.301 14.3051 254.301 11.6186C254.301 8.93209 252.121 6.75647 249.435 6.75647Z" fill="white"/>
<path d="M34.176 410.24H105.737C109.798 410.24 113.088 413.529 113.088 417.576V488.189C113.088 500.709 102.907 510.869 90.3632 510.869H49.5442C37 510.869 26.8197 500.709 26.8197 488.189V417.576C26.8197 413.523 30.1153 410.24 34.1702 410.24H34.176Z" fill="#1250B3"/>
<path d="M84.1346 478.67C94.6711 478.65 103.196 470.106 103.176 459.587C103.156 449.067 94.5978 440.556 84.0613 440.576C73.5249 440.597 64.9998 449.141 65.02 459.66C65.0402 470.179 73.5981 478.69 84.1346 478.67Z" fill="#E85C00"/>
<path d="M28.6372 427.811C12.826 427.811 0 440.612 0 456.398C0 472.184 12.826 484.986 28.6372 484.986C44.4483 484.986 57.2743 472.196 57.2743 456.398C57.2743 440.601 44.4598 427.811 28.6372 427.811ZM28.6372 472.202C19.9005 472.202 12.803 465.129 12.803 456.398C12.803 447.667 19.9005 440.595 28.6372 440.595C37.3738 440.595 44.4713 447.679 44.4713 456.398C44.4713 465.118 37.3853 472.202 28.6372 472.202Z" fill="#1250B3"/>
</g>
<defs>
<clipPath id="clip0_275_2602">
<rect width="600" height="512" fill="white"/>
</clipPath>
</defs>
</svg>
