<svg width="379" height="343" viewBox="0 0 379 343" fill="none" xmlns="http://www.w3.org/2000/svg">
<g clip-path="url(#clip0_275_2889)">
<path d="M26.6087 16.1243V103.713C26.6087 112.615 33.825 119.837 42.7203 119.837H186.101C191.161 119.837 195.674 117.501 198.623 113.854C199.205 113.143 199.724 112.378 200.17 111.568C201.185 109.765 201.849 107.743 202.104 105.598C202.172 104.979 202.213 104.35 202.213 103.717V16.1243C202.213 7.22201 194.996 0 186.101 0H42.7203C33.825 0 26.6087 7.22201 26.6087 16.1243Z" fill="#1250B3"/>
<path d="M186.101 128.744H42.7203C33.8296 128.744 26.6087 135.971 26.6087 144.868V232.457C26.6087 241.355 33.8296 248.581 42.7203 248.581H186.101C194.992 248.581 202.213 241.355 202.213 232.457V144.868C202.213 135.971 194.992 128.744 186.101 128.744Z" fill="#EDEDED"/>
<path d="M26.6087 158.256V232.452C26.6087 241.355 33.825 248.577 42.7203 248.577H186.101C194.996 248.577 202.213 241.355 202.213 232.452V151.767L192.471 170.191L180.222 188.656L172.055 177.827L165.64 163.356H149.601L130.172 149.262L114.72 138.079H72.3957L63.4458 159.745L55.3967 150.824L50.3689 159.258L38.5252 148.279H32.8104L26.6132 158.251L26.6087 158.256Z" fill="#E0E0E0"/>
<path d="M230.514 181.566L329.532 178.888C334.132 178.888 339.961 185.3 338.286 189.903L318.116 245.357C316.442 249.956 311.359 253.69 306.754 253.69H204.279C199.678 253.69 197.308 249.961 198.978 245.357L219.148 189.903C220.822 185.3 225.909 181.566 230.509 181.566H230.514ZM206.804 239.492C205.129 244.096 207.5 247.83 212.1 247.83H303.205C307.801 247.83 312.888 244.1 314.562 239.492L330.465 195.764C332.139 191.165 329.764 187.431 325.168 187.431H234.063C229.463 187.431 224.376 191.16 222.702 195.764L206.799 239.492H206.804Z" fill="#233D4D"/>
<path d="M91.1463 171.088C91.0644 172.964 90.9826 174.835 90.9098 176.712C90.8779 177.504 91.8107 178.346 92.6115 178.009C93.6989 177.559 94.7955 177.677 95.9193 177.914C97.2297 178.187 98.5356 178.501 99.8415 178.793C102.239 179.339 104.637 179.995 107.085 179.33C110.834 178.314 113.76 175.036 115.594 171.748C116.581 169.972 117.223 167.855 116.577 165.851C115.894 163.72 114.183 162.659 112.045 162.359C107.722 161.748 103.277 162.085 99.0907 163.351C95.8784 164.321 89.299 166.575 91.1509 171.088H91.1463Z" fill="#233D4D"/>
<path d="M87.2019 171.031C71.8606 164.672 64.5754 147.07 70.93 131.717C77.2846 116.363 94.8726 109.072 110.214 115.432C125.555 121.791 132.84 139.393 126.486 154.747C120.131 170.1 102.543 177.391 87.2019 171.031Z" fill="#233D4D"/>
<path d="M109.292 122.633C110.802 124.741 112.918 126.718 115.157 127.952C117.718 129.368 120.676 129.268 123.497 129.391C124.816 129.445 126.245 129.646 127.51 129.154C127.665 129.09 127.81 129.022 127.947 128.949C128.384 128.994 128.83 128.867 129.116 128.516C130.991 126.162 132.574 123.348 132.574 120.192C132.574 117.51 131.341 114.705 129.062 113.321C128.679 113.093 128.297 113.093 128.197 112.67C128.083 112.192 128.133 111.663 128.024 111.181C127.783 110.074 127.151 109.041 126.359 108.276C124.735 106.718 122.423 105.985 120.235 106.272C117.586 106.618 115.311 108.066 113.214 109.705C111.28 111.222 109.173 112.834 108.181 115.224C107.13 117.752 107.74 120.475 109.287 122.633H109.292Z" fill="#233D4D"/>
<path d="M124.739 167.222C113.891 167.222 105.097 158.421 105.097 147.564C105.097 136.707 113.891 127.906 124.739 127.906C135.588 127.906 144.382 136.707 144.382 147.564C144.382 158.421 135.588 167.222 124.739 167.222Z" fill="#FFA895"/>
<path d="M92.5887 131.385C92.5887 142.241 101.384 151.043 112.231 151.043C123.079 151.043 137.479 149.727 137.479 138.867C137.479 128.006 123.083 111.723 112.231 111.723C101.379 111.723 92.5887 120.525 92.5887 131.38V131.385Z" fill="#FFA895"/>
<path d="M130.572 129.34C130.736 129.5 130.905 129.641 131.078 129.782C130.659 130.16 130.454 130.766 130.818 131.399C132.201 133.821 133.63 136.253 135.509 138.338C136.983 139.973 139.932 142.81 142.066 140.501C142.83 139.673 143.04 138.489 143.058 137.396C143.081 135.998 143.008 134.595 142.976 133.202C142.949 131.827 142.689 130.529 141.392 129.8C140.391 129.245 139.19 129.295 138.085 129.231C136.114 129.117 133.935 128.871 132.47 127.442C131.232 126.23 129.321 128.134 130.568 129.345L130.572 129.34Z" fill="#FFA895"/>
<path d="M119.511 107.146C119.511 110.489 119.539 112.251 115.034 117.096C110.53 121.936 108.341 121.549 108.341 121.549L118.078 134.409C119.671 136.512 120.212 139.226 119.543 141.781L117.4 150L102.631 156.899C102.631 156.899 69.7794 153.784 69.5883 135.706C69.4199 120.106 86.924 111.759 94.8865 103.981C101.334 97.6839 106.366 103.458 106.366 103.458C106.366 103.458 108.346 100.598 112.431 100.229C116.513 99.8605 119.511 103.795 119.511 107.137V107.146Z" fill="#233D4D"/>
<path d="M108.341 162.35C103.021 162.35 98.7085 158.034 98.7085 152.71C98.7085 147.386 103.021 143.07 108.341 143.07C113.661 143.07 117.973 147.386 117.973 152.71C117.973 158.034 113.661 162.35 108.341 162.35Z" fill="#FFA895"/>
<path d="M128.038 162.09L115.448 194.967L83.5433 189.676L90.8233 173.797L104.856 177.244L116.517 163.078L128.038 162.09Z" fill="#FFA895"/>
<path d="M122.696 118.262C123.388 117.888 124.139 117.629 124.899 117.433C125.763 117.21 126.709 117.023 127.579 117.319C128.598 117.665 129.449 118.576 129.44 119.701C129.435 120.374 129.062 121.012 128.511 121.381C128.024 121.709 127.478 121.741 126.951 121.567C126.869 121.572 126.791 121.577 126.709 121.581C126.618 121.59 126.555 121.604 126.5 121.618C126.177 121.681 125.854 121.768 125.545 121.877C125.467 121.904 125.385 121.936 125.308 121.968C125.144 122.046 125.003 122.114 124.867 122.191C124.73 122.264 124.594 122.346 124.462 122.433C124.403 122.469 124.343 122.51 124.289 122.547C124.266 122.565 124.07 122.715 124.057 122.72C124.02 122.751 123.989 122.779 123.984 122.783C123.929 122.829 123.879 122.874 123.829 122.924C123.716 123.029 123.602 123.143 123.497 123.257C123.17 123.607 122.91 123.958 122.446 124.154C121.864 124.4 121.213 124.345 120.703 123.954C120.185 123.553 120.03 122.911 120.039 122.282C120.066 120.561 121.227 119.068 122.696 118.275V118.262Z" fill="#233D4D"/>
<path d="M125.772 127.305C125.836 126.891 126.305 126.431 126.714 126.362C127.055 126.308 127.337 126.276 127.683 126.372C127.947 126.444 128.156 126.567 128.366 126.727C128.671 126.964 128.934 127.264 129.098 127.615C129.417 128.298 129.576 129.035 129.599 129.787C129.735 130.356 129.603 130.798 129.271 131.171C128.875 131.613 128.234 131.754 127.674 131.604C127.488 131.554 127.301 131.472 127.142 131.362C126.841 131.153 126.719 131.021 126.505 130.734C126.186 130.31 125.959 129.791 125.836 129.277C125.758 128.958 125.713 128.621 125.695 128.289C125.681 127.956 125.727 127.628 125.777 127.296L125.772 127.305Z" fill="#233D4D"/>
<path d="M136.092 141.362C136.469 140.775 137.307 140.465 137.934 140.879C139.349 141.813 140.842 142.614 142.403 143.275C142.689 143.397 142.944 143.794 143.021 144.08C143.112 144.404 143.071 144.832 142.885 145.119C142.698 145.406 142.425 145.661 142.079 145.738C141.702 145.825 141.392 145.752 141.042 145.601C139.481 144.941 137.989 144.14 136.574 143.206C135.987 142.819 135.682 141.995 136.092 141.362Z" fill="#F76D6D"/>
<path d="M105.638 154.704C106.999 153.903 108.423 153.206 109.893 152.623C109.72 152.55 109.542 152.477 109.374 152.4C108.164 151.858 106.994 151.23 105.87 150.524C105.274 150.15 104.983 149.303 105.388 148.68C105.775 148.079 106.594 147.796 107.231 148.197C108.432 148.948 109.679 149.613 110.975 150.178C111.039 150.205 111.098 150.232 111.162 150.26C111.18 150.269 111.212 150.278 111.262 150.301C111.426 150.364 111.59 150.433 111.754 150.497C112.081 150.624 112.413 150.747 112.75 150.861C113.564 151.143 114.188 151.439 114.72 152.14C115.252 152.846 114.675 153.916 113.915 154.121C113.282 154.29 112.654 154.481 112.031 154.69C111.74 154.791 111.453 154.891 111.167 155C111.003 155.064 110.839 155.123 110.675 155.191C110.593 155.223 110.511 155.255 110.434 155.291C110.298 155.346 110.27 155.36 110.352 155.323C110.434 155.287 110.407 155.301 110.27 155.36C110.188 155.396 110.111 155.428 110.029 155.464C109.87 155.537 109.711 155.606 109.551 155.683C109.274 155.811 108.996 155.947 108.723 156.084C108.136 156.38 107.563 156.694 106.999 157.031C106.394 157.391 105.493 157.19 105.156 156.548C104.815 155.902 104.992 155.087 105.638 154.704Z" fill="#F76D6D"/>
<path d="M64.0964 134.759C65.1702 134.145 66.3578 133.78 67.5726 133.662C67.832 133.594 68.0913 133.539 68.3507 133.475C66.9265 131.804 65.8436 129.855 65.1611 127.76C64.7516 126.504 66.5261 125.438 67.4134 126.449C69.1834 128.462 70.6758 130.702 71.8087 133.134C71.8815 133.22 71.9361 133.275 71.9998 133.329C72.6914 133.926 72.4048 135.247 71.5494 135.529C71.3173 136.253 70.6166 136.69 69.8886 136.494C69.6839 136.44 69.4746 136.389 69.2653 136.353C69.2198 136.344 69.0924 136.33 69.0696 136.326C68.9968 136.317 68.924 136.312 68.8512 136.307C68.6146 136.294 68.378 136.289 68.1414 136.298C67.1176 136.567 66.1166 136.872 65.1293 137.218C64.4968 137.441 63.7825 137.018 63.5413 136.44C63.2865 135.834 63.5049 135.092 64.0919 134.755L64.0964 134.759Z" fill="#233D4D"/>
<path d="M19.324 225.171C19.324 239.811 28.1056 252.388 40.6819 257.934L70.6939 329.658L193.29 333.715C193.29 333.715 175.795 296.858 168.379 265.407C173.798 259.132 195.201 234.119 195.201 225.171C195.201 210.823 186.765 198.45 174.585 192.74C171.523 190.696 166.354 188.924 156.144 187.499C155.261 187.376 154.342 187.258 153.386 187.139C146.152 186.251 136.674 185.509 124.134 184.949C74.7253 182.722 55.6743 186.16 43.6804 191.069C42.8204 191.424 42.0014 191.779 41.2006 192.148C40.8685 192.299 40.5363 192.453 40.2087 192.613C40.1723 192.631 40.1313 192.649 40.0949 192.672C27.8371 198.35 19.324 210.763 19.324 225.171Z" fill="#E85C00"/>
<path d="M226.556 178.87H329.031C333.632 178.87 336.002 182.599 334.328 187.208L314.157 242.661C312.483 247.261 307.401 250.994 302.796 250.994H200.32C195.72 250.994 193.349 247.265 195.019 242.661L215.19 187.208C216.864 182.604 221.951 178.87 226.551 178.87H226.556ZM202.845 236.796C201.171 241.4 203.541 245.134 208.142 245.134H299.247C303.842 245.134 308.929 241.405 310.604 236.796L326.506 193.068C328.181 188.469 325.806 184.735 321.21 184.735H230.105C225.504 184.735 220.418 188.464 218.743 193.068L202.841 236.796H202.845Z" fill="#233D4D"/>
<path d="M218.752 193.068L202.85 236.796C201.175 241.4 203.546 245.134 208.146 245.134H299.251C303.847 245.134 308.934 241.405 310.608 236.796L326.511 193.068C328.185 188.469 325.81 184.735 321.215 184.735H230.109C225.509 184.735 220.422 188.464 218.748 193.068H218.752Z" fill="#EDEDED"/>
<path d="M227.793 199.552C227.525 200.29 227.584 200.96 227.893 201.447C228.203 201.934 228.762 202.23 229.499 202.23H308.87C310.344 202.23 311.982 201.032 312.519 199.557C312.788 198.819 312.733 198.145 312.424 197.658C312.114 197.18 311.555 196.875 310.818 196.875H231.447C229.973 196.875 228.335 198.073 227.793 199.557V199.552Z" fill="#1250B3"/>
<path d="M227.793 199.552C227.525 200.29 227.584 200.96 227.893 201.447C228.203 201.934 228.762 202.23 229.499 202.23H260.535L262.483 196.875H231.447C229.973 196.875 228.335 198.073 227.793 199.557V199.552Z" fill="#E85C00"/>
<path d="M253.856 199.552C252.577 203.063 254.388 205.914 257.896 205.914C261.404 205.914 265.285 203.068 266.564 199.552C267.843 196.042 266.032 193.191 262.524 193.191C259.015 193.191 255.134 196.037 253.856 199.552Z" fill="#233D4D"/>
<path d="M219.949 221.123C219.68 221.861 219.74 222.53 220.049 223.017C220.358 223.504 220.918 223.8 221.655 223.8H301.026C302.5 223.8 304.138 222.603 304.675 221.127C304.944 220.39 304.889 219.716 304.58 219.229C304.27 218.75 303.711 218.445 302.973 218.445H223.603C222.128 218.445 220.49 219.643 219.949 221.127V221.123Z" fill="#1250B3"/>
<path d="M219.949 221.123C219.68 221.861 219.74 222.53 220.049 223.017C220.358 223.504 220.918 223.8 221.655 223.8H285.019L286.966 218.445H223.603C222.128 218.445 220.49 219.643 219.949 221.127V221.123Z" fill="#E85C00"/>
<path d="M278.339 221.118C277.061 224.629 278.872 227.48 282.38 227.48C285.888 227.48 289.769 224.634 291.048 221.118C292.326 217.607 290.515 214.757 287.007 214.757C283.499 214.757 279.618 217.603 278.339 221.118Z" fill="#233D4D"/>
<path d="M228.467 259.824C228.558 260.097 228.699 260.329 228.876 260.516C228.89 260.753 228.89 260.99 228.908 261.222C229.035 263.276 232.234 263.285 232.107 261.222C232.102 261.108 232.093 260.985 232.088 260.862C233.508 260.407 234.905 259.665 236.124 258.881C242.035 255.12 245.493 248.886 248.127 242.593C250.489 236.933 252.25 230.476 250.279 224.543C250.266 220.749 251.362 217.084 253.064 213.687C254.02 211.779 255.125 209.948 256.313 208.182C257.537 206.369 258.938 204.684 260.121 202.854C261.099 201.342 261.896 199.53 261.777 197.685C261.673 195.955 260.963 194.27 259.539 193.223C256.44 190.951 251.854 193.446 249.21 195.409C243.363 199.748 239.983 206.556 237.198 213.113C231.201 227.252 228.285 242.648 228.758 258.002C228.376 258.49 228.248 259.141 228.462 259.828L228.467 259.824Z" fill="#FFA895"/>
<path d="M235.164 215.813C236.425 212.521 237.821 209.274 239.35 206.101C240.843 203.009 242.344 199.794 244.496 197.098C248.023 192.686 256.804 187.786 260.99 194.097C261.982 195.591 262.264 197.458 261.868 199.193C261.45 201.005 260.34 202.544 259.339 204.07C257.173 207.366 255.316 210.877 253.847 214.538C253.574 215.212 252.946 215.69 252.19 215.481C251.549 215.303 250.976 214.502 251.249 213.823C252.513 210.672 254.001 207.617 255.753 204.707C256.572 203.35 257.505 202.061 258.31 200.695C258.979 199.566 259.561 198.287 259.293 196.943C258.752 194.234 256.017 193.414 253.61 194.033C250.83 194.748 248.264 196.697 246.48 198.91C245.497 200.131 244.733 201.529 243.996 202.904C243.231 204.334 242.494 205.782 241.784 207.239C240.383 210.13 239.095 213.077 237.935 216.073C235.578 222.166 233.717 228.454 232.407 234.857C230.942 242.01 230.205 249.296 230.223 256.6C230.223 258.335 227.534 258.339 227.529 256.6C227.497 242.684 230.2 228.8 235.164 215.813Z" fill="#F76D6D"/>
<path d="M234.136 262.369C238.472 266.928 245.543 267.966 251.535 267.574C257.66 267.169 264.075 265.256 268.589 260.903C270.841 258.731 272.306 256.054 273.23 253.085C273.53 252.11 273.78 251.086 274.076 250.079C278.644 251.787 283.936 248.964 286.011 244.66C288.245 240.039 287.904 234.082 285.874 229.447C283.658 224.383 279.786 221.879 275.032 219.875C269.822 217.68 261.582 213.263 255.835 213.896C250.807 214.452 246.571 218.423 242.808 221.674C240.237 222.972 239.682 227.056 238.231 229.606C236.024 233.472 234.181 237.561 232.721 241.764C230.409 248.413 228.762 256.696 234.14 262.365L234.136 262.369Z" fill="#FFA895"/>
<path d="M205.035 318.593C195.773 303.597 200.413 283.926 215.397 274.657C230.381 265.388 250.036 270.031 259.298 285.027C268.56 300.023 263.921 319.694 248.936 328.963C233.952 338.232 214.297 333.589 205.035 318.593Z" fill="#E85C00"/>
<path d="M262.105 262.492C266.118 261.991 269.148 258.057 270.964 254.769C272.998 251.086 274.135 246.992 275.255 242.962C275.719 241.291 278.317 242.001 277.853 243.677C276.615 248.13 275.318 252.666 272.97 256.686C270.609 260.73 266.96 264.582 262.105 265.188C261.382 265.279 260.758 264.505 260.758 263.84C260.758 263.039 261.382 262.583 262.105 262.492Z" fill="#F76D6D"/>
<path d="M261.4 314.613C261.4 314.613 264.685 309.071 265.872 293.539C267.06 278.011 265.872 263.654 265.872 263.654C265.872 263.654 265.117 254.287 251.517 251.432C237.917 248.581 225.8 252.26 225.8 252.26C225.8 252.26 204.042 278.553 203.082 294.9C202.117 311.248 261.4 314.608 261.4 314.608V314.613Z" fill="#E85C00"/>
<path d="M180.427 196.183C180.427 196.183 183.089 197.722 211.741 233.841C240.392 269.956 257.955 290.629 257.955 290.629L216.263 329.53L137.489 260.976L180.432 196.187L180.427 196.183Z" fill="#E85C00"/>
<path d="M159.515 278.685C167.519 285.825 175.627 292.847 183.835 299.745C192.043 306.649 200.352 313.429 208.76 320.086C213.483 323.825 218.238 327.527 223.025 331.188C223.603 331.63 223.907 332.349 223.507 333.032C223.175 333.601 222.247 333.961 221.664 333.515C213.056 326.93 204.542 320.218 196.129 313.383C187.771 306.594 179.517 299.682 171.364 292.646C166.745 288.662 162.163 284.641 157.613 280.584C156.317 279.427 158.228 277.524 159.52 278.676L159.515 278.685Z" fill="#1250B3"/>
<path d="M51.6657 208.241C61.6394 222.507 64.0281 222.585 98.7085 221.551C141.897 220.267 151.598 199.949 153.373 187.057C153.5 186.101 153.596 185.186 153.641 184.325L153.941 179.69C153.941 179.69 149.432 175.947 109.952 169.294C70.4664 162.641 46.5105 165.095 44.5085 169.021C39.7719 178.333 42.3836 194.976 51.6611 208.25L51.6657 208.241Z" fill="#E85C00"/>
<path d="M1.44241 296.99L20.9939 214.17L79.1662 230.781L61.6576 311.28C61.4847 312.35 61.2526 313.402 60.9705 314.44L60.9387 314.576C58.195 324.462 50.6283 332.786 40.0995 336.006C23.7148 341.019 6.37011 331.789 1.36052 315.392C-0.545944 309.149 -0.386696 302.769 1.44241 296.986V296.99Z" fill="#E85C00"/>
<path d="M37.6425 342.918H152.567L139.177 266.923C136.265 250.389 121.909 238.335 105.133 238.335H60.4109C38.921 238.335 22.6365 257.757 26.3675 278.935L37.6425 342.918Z" fill="#233D4D"/>
<path d="M139.868 343H246.294C251.417 343 255.567 338.843 255.567 333.72C255.567 328.597 251.412 324.44 246.294 324.44H139.868V343.005V343Z" fill="#233D4D"/>
<path d="M223.903 51.0777H346.95C350.083 51.0777 352.623 53.62 352.623 56.7561V140.31C352.623 143.446 350.083 145.988 346.95 145.988H223.903C220.769 145.988 218.229 143.446 218.229 140.31V56.7561C218.229 53.62 220.769 51.0777 223.903 51.0777Z" fill="#233D4D"/>
<path d="M234.04 94.6921C236.402 91.796 238.986 88.8954 242.253 87.0011C243.855 86.0722 245.597 85.4574 247.445 85.2662C249.451 85.0567 251.431 85.5166 253.255 86.3363C255.089 87.1605 256.713 88.3945 258.265 89.6559C260.017 91.0811 261.718 92.5656 263.443 94.0273C267.065 97.0964 270.677 100.184 274.313 103.235C275.741 104.437 277.288 105.666 279.108 106.195C280.892 106.709 282.726 106.349 284.414 105.653C286.261 104.888 287.958 103.763 289.683 102.757C291.439 101.727 293.268 100.849 295.188 100.156C302.832 97.4106 311.518 97.825 318.853 101.309C325.405 104.423 330.852 110.029 333.773 116.672C334.159 117.551 334.514 118.444 334.824 119.354C335.383 120.998 332.785 121.709 332.226 120.069C330.01 113.571 325.328 108.007 319.376 104.614C312.82 100.88 304.843 100.088 297.623 102.192C295.78 102.729 294.005 103.444 292.317 104.355C290.584 105.288 288.941 106.386 287.194 107.292C285.428 108.212 283.568 108.94 281.565 109.104C279.559 109.268 277.584 108.676 275.86 107.674C274.076 106.641 272.529 105.229 270.964 103.904C269.221 102.429 267.483 100.953 265.74 99.4825C262.369 96.6274 259.079 93.622 255.58 90.9309C254.106 89.797 252.495 88.7451 250.693 88.2306C249.074 87.7661 247.413 87.8208 245.811 88.3308C242.531 89.369 239.919 92.0055 237.703 94.5191C237.103 95.1976 236.525 95.8897 235.951 96.591C235.492 97.1556 234.523 97.0691 234.045 96.591C233.485 96.0309 233.585 95.2522 234.045 94.683L234.04 94.6921Z" fill="#1250B3"/>
<path d="M326.092 98.0481H336.871V131.23H326.092V98.0481Z" fill="#E85C00"/>
<path d="M310.09 88.3262H320.869V121.508H310.09V88.3262Z" fill="#E85C00"/>
<path d="M294.833 81.4457H305.612V114.628H294.833V81.4457Z" fill="#1250B3"/>
<path d="M278.835 90.1384H289.614V123.321H278.835V90.1384Z" fill="#E85C00"/>
<path d="M262.624 78.2627H273.403V111.445H262.624V78.2627Z" fill="#1250B3"/>
<path d="M246.626 71.2411H257.405V104.423H246.626V71.2411Z" fill="#FCCA46"/>
<path d="M229.081 74.5925H239.86V107.775H229.081V74.5925Z" fill="#FCCA46"/>
<path d="M363.999 213.432H324.004C323.13 213.432 322.42 214.142 322.42 215.016V259.009C322.42 261.709 324.613 263.904 327.312 263.904H360.691C363.389 263.904 365.582 261.709 365.582 259.009V215.012C365.582 214.138 364.872 213.427 363.999 213.427V213.432Z" fill="#1250B3"/>
<path d="M327.393 238.208C327.393 243.486 331.666 247.761 336.939 247.761C342.213 247.761 346.485 243.486 346.485 238.208C346.485 232.93 342.213 228.655 336.939 228.655C331.666 228.655 327.393 232.93 327.393 238.208Z" fill="#FCCA46"/>
<path d="M364.672 222.248C372.584 222.248 379 228.668 379 236.587C379 244.506 372.584 250.926 364.672 250.926C356.759 250.926 350.344 244.51 350.344 236.587C350.344 228.664 356.755 222.248 364.672 222.248ZM364.672 244.51C369.045 244.51 372.594 240.963 372.594 236.582C372.594 232.202 369.045 228.655 364.672 228.655C360.299 228.655 356.75 232.206 356.75 236.582C356.75 240.958 360.295 244.51 364.672 244.51Z" fill="#1250B3"/>
<path d="M344.825 194.985C346.258 191.128 349.643 187.923 353.37 187.431C360.104 186.538 364.039 185.008 362.351 182.149C361.596 180.874 360.704 179.526 360.158 178.574C358.275 175.309 358.188 173.419 358.188 173.419C358.152 173.132 358.124 172.841 358.124 172.54C358.124 169.043 360.955 166.211 364.449 166.211C367.661 166.211 370.305 168.606 370.714 171.712C370.751 171.994 370.774 172.267 370.774 172.54C370.774 173.283 370.637 173.993 370.405 174.658C370.3 176.411 370.309 178.683 370.774 180.719C371.415 183.542 373.099 185.837 373.99 187.763C374.395 188.214 374.65 188.806 374.65 189.457C374.65 189.689 374.609 189.912 374.55 190.131C373.799 196.383 366.569 193.678 364.563 200.5C363.848 205.513 359.553 209.375 354.343 209.375C348.633 209.375 344.006 204.744 344.006 199.029C344.006 197.594 344.297 196.228 344.825 194.985Z" fill="#EDEDED"/>
<path d="M41.2006 192.148C43.1207 195.527 45.4458 198.683 48.0803 201.551C53.6086 207.576 60.3381 212.38 67.4953 216.273C68.1368 216.624 68.924 216.574 69.3653 215.923C69.7475 215.367 69.652 214.397 69.015 214.051C65.0974 211.915 61.3209 209.525 57.79 206.793C52.1935 202.462 47.2112 197.216 43.6804 191.069C42.8204 191.424 42.0014 191.779 41.2006 192.148Z" fill="#1250B3"/>
<path d="M104.678 211.947C105.224 212.494 106.025 212.416 106.58 211.947C109.833 209.22 113.109 206.506 116.49 203.933C127.296 195.705 139.677 188.474 153.373 187.053C153.5 186.097 153.596 185.181 153.641 184.321C150.397 184.621 147.18 185.236 144.045 186.115C128.984 190.341 116.463 200.144 104.678 210.035C104.119 210.508 104.191 211.465 104.678 211.943V211.947Z" fill="#1250B3"/>
<path d="M203.637 221.305C204.338 220.904 205.07 221.205 205.516 221.788C214.789 234.019 233.194 257.602 242.585 269.746C244.915 272.761 247.413 275.68 250.411 278.084C250.985 278.544 250.898 279.514 250.411 279.992C249.843 280.552 249.046 280.452 248.469 279.992C245.757 277.82 243.454 275.22 241.311 272.51C238.973 269.56 236.734 266.531 234.459 263.535C229.772 257.351 225.081 251.172 220.395 244.988C217.724 241.464 205.816 226.669 203.146 223.149C202.704 222.566 203.05 221.642 203.637 221.305Z" fill="#233D4D"/>
<path d="M261.868 227.621C263.643 224.119 266.946 221.455 270.714 220.385C274.59 219.279 278.881 220.016 282.234 222.243C285.597 224.479 287.845 228.022 288.422 232.024C289.005 236.054 288.154 240.134 286.37 243.772C285.401 245.749 284.127 247.73 282.453 249.173C280.669 250.712 278.221 251.864 275.878 250.899C275.205 250.621 274.727 250.002 274.936 249.241C275.109 248.604 275.914 248.021 276.592 248.299C278.076 248.909 279.491 248.194 280.628 247.192C281.929 246.045 282.899 244.574 283.713 243.048C285.274 240.13 286.12 236.787 285.888 233.468C285.661 230.198 284.164 227.125 281.588 225.075C279.113 223.108 275.714 222.125 272.588 222.703C268.976 223.368 265.854 225.695 264.198 228.973C263.415 230.521 261.09 229.16 261.873 227.612L261.868 227.621Z" fill="#F76D6D"/>
<path d="M275.209 242.834C275.532 242.293 275.851 241.655 276.014 241.227C276.251 240.603 276.442 239.957 276.579 239.301C276.606 239.16 276.633 239.019 276.661 238.877C276.674 238.791 276.688 238.704 276.701 238.613C276.701 238.59 276.706 238.563 276.711 238.527C276.747 238.194 276.774 237.862 276.783 237.525C276.806 236.856 276.765 236.186 276.679 235.521C276.583 234.77 277.375 234.21 278.026 234.173C279.35 234.105 280.797 233.964 281.984 233.791C282.68 233.691 283.467 233.964 283.64 234.734C283.786 235.371 283.445 236.282 282.698 236.391C281.625 236.55 280.546 236.673 279.463 236.769C279.545 239.36 278.854 241.969 277.53 244.196C277.17 244.802 276.301 245.075 275.687 244.679C275.077 244.287 274.818 243.481 275.205 242.834H275.209Z" fill="#F76D6D"/>
<path d="M252.313 223.409C254.625 219.962 257.632 216.679 261.659 215.317C265.299 214.083 269.399 214.52 272.702 216.483C274.531 217.571 276.064 219.074 277.22 220.859C278.167 222.32 275.837 223.673 274.895 222.22C272.729 218.883 268.866 217.025 264.912 217.362C260.385 217.749 257.041 221.191 254.638 224.77C253.678 226.205 251.34 224.857 252.313 223.409Z" fill="#F76D6D"/>
<path d="M238.827 226.441C240.984 218.791 248.332 212.175 256.531 212.28C258.993 212.312 261.309 213.049 263.229 214.607C263.793 215.067 263.707 216.037 263.229 216.515C262.669 217.075 261.891 216.975 261.322 216.515C258.638 214.333 254.679 214.757 251.658 215.895C248.573 217.057 245.811 219.265 243.918 221.952C242.799 223.541 241.953 225.28 241.425 227.152C240.956 228.818 238.354 228.113 238.827 226.437V226.441Z" fill="#F76D6D"/>
<path d="M304.329 65.2212H337.408C339.142 65.2212 339.146 67.917 337.408 67.917H304.329C302.596 67.917 302.591 65.2212 304.329 65.2212Z" fill="#1250B3"/>
<path d="M324.782 71.7602H337.03C338.764 71.7602 338.769 74.4559 337.03 74.4559H324.782C323.048 74.4559 323.044 71.7602 324.782 71.7602Z" fill="#1250B3"/>
<path d="M305.999 71.7602H319.067C320.8 71.7602 320.805 74.4559 319.067 74.4559H305.999C304.266 74.4559 304.261 71.7602 305.999 71.7602Z" fill="#1250B3"/>
<path d="M26.6087 68.7366V71.6646C34.371 69.0007 37.4241 60.909 40.3907 53.0267C44.0125 43.4186 47.4342 34.3478 58.9367 34.3478C69.2061 34.3478 76.2495 45.0898 82.6651 57.1022C83.0974 57.899 83.516 58.705 83.9346 59.511C84.6034 60.7906 85.2632 62.0747 85.9275 63.3542C92.93 76.9376 99.5412 89.7651 109.947 89.7651C120.353 89.7651 125.913 82.9347 131.305 76.3275C132.925 74.3421 134.517 72.3932 136.219 70.6127C136.842 69.957 137.479 69.324 138.144 68.7275C142.098 65.121 146.821 62.5801 153.714 62.5801C164.097 62.5801 171.227 71.5371 178.776 81.0222C185.51 89.4783 192.43 98.1711 202.208 101.39V98.4989C193.554 95.2522 187.134 87.1969 180.882 79.3419C173.27 69.7748 165.398 59.8844 153.714 59.8844C145.988 59.8844 140.696 62.7714 136.387 66.6829C135.719 67.2886 135.072 67.917 134.449 68.5681C132.597 70.4897 130.905 72.5662 129.221 74.6244C123.993 81.0268 119.061 87.0694 109.947 87.0694C100.833 87.0694 94.9366 74.9477 88.3208 62.1202C87.5928 60.7086 86.8603 59.2879 86.1231 57.8808C85.6954 57.0703 85.2723 56.2643 84.84 55.4674C78.0923 42.8813 70.5711 31.6475 58.9321 31.6475C45.5641 31.6475 41.4736 42.4988 37.8654 52.0704C35.1718 59.2378 32.5874 66.0864 26.6041 68.7321L26.6087 68.7366Z" fill="#E85C00"/>
<path d="M26.6086 83.2671V86.013C34.1753 84.5604 37.2466 80.2527 40.2314 76.0633C43.8123 71.0316 47.1976 66.2822 58.9412 66.2822C69.975 66.2822 77.3461 62.0838 83.9437 57.2752C84.6808 56.7379 85.4088 56.1914 86.1322 55.645C86.7419 55.1805 87.3516 54.7161 87.9522 54.2516C94.5726 49.1789 100.829 44.3885 109.956 44.3885C119.084 44.3885 123.938 51.5331 129.157 59.0966C130.855 61.5556 132.574 64.0418 134.454 66.3278C135.027 67.029 135.618 67.712 136.228 68.3723C140.564 73.058 145.892 76.5142 153.723 76.5142C164.106 76.5142 171.236 85.4711 178.785 94.9562C184.663 102.342 190.683 109.906 198.627 113.84C199.21 113.13 199.728 112.365 200.174 111.554C192.535 107.893 186.638 100.498 180.891 93.276C173.279 83.7088 165.408 73.8184 153.723 73.8184C146.83 73.8184 142.116 70.7857 138.153 66.4826C137.557 65.8314 136.965 65.1438 136.396 64.438C134.654 62.2978 133.029 59.9482 131.378 57.5575C125.986 49.7526 120.412 41.6882 109.956 41.6882C99.5002 41.6882 93.3076 46.7473 86.3142 52.1069C85.8274 52.4803 85.3405 52.8491 84.8491 53.2225C84.1257 53.7735 83.4067 54.3154 82.6742 54.8572C76.336 59.4928 69.3153 63.5774 58.9458 63.5774C45.8143 63.5774 41.6875 69.3741 38.0383 74.4924C35.2355 78.4267 32.7375 81.9375 26.6177 83.2626L26.6086 83.2671Z" fill="#FCCA46"/>
<path d="M26.6087 16.1243V16.3019H202.213V16.1243C202.213 7.22201 194.996 0 186.101 0H42.7203C33.825 0 26.6087 7.22201 26.6087 16.1243Z" fill="#E85C00"/>
<path d="M38.3161 4.54907C36.3278 4.54907 34.7171 6.16105 34.7171 8.15097C34.7171 10.1409 36.3278 11.7529 38.3161 11.7529C40.3045 11.7529 41.9152 10.1409 41.9152 8.15097C41.9152 6.16105 40.3045 4.54907 38.3161 4.54907Z" fill="white"/>
<path d="M49.0815 4.54907C47.0931 4.54907 45.4824 6.16105 45.4824 8.15097C45.4824 10.1409 47.0931 11.7529 49.0815 11.7529C51.0699 11.7529 52.6806 10.1409 52.6806 8.15097C52.6806 6.16105 51.0699 4.54907 49.0815 4.54907Z" fill="white"/>
<path d="M59.8423 4.54907C57.854 4.54907 56.2433 6.16105 56.2433 8.15097C56.2433 10.1409 57.854 11.7529 59.8423 11.7529C61.8307 11.7529 63.4414 10.1409 63.4414 8.15097C63.4414 6.16105 61.8307 4.54907 59.8423 4.54907Z" fill="white"/>
</g>
<defs>
<clipPath id="clip0_275_2889">
<rect width="379" height="343" fill="white" transform="matrix(-1 0 0 1 379 0)"/>
</clipPath>
</defs>
</svg>
