<svg width="233" height="215" viewBox="0 0 233 215" fill="none" xmlns="http://www.w3.org/2000/svg">
    <path d="M156.785 61.156C160.439 58.5377 232.999 0.410645 232.999 0.410645L201.156 92.0524L156.785 61.156Z" fill="#FCCC66"/>
    <path d="M86.835 42.8277C86.835 42.8277 125.464 52.2537 125.986 51.73C127.03 51.2064 232.999 0.410645 232.999 0.410645L86.835 42.8277Z" fill="#FCCC66"/>
    <path d="M125.985 51.73L135.382 93.6234L156.784 61.156L232.998 0.410645L125.985 51.73Z" fill="#FDAD00"/>
    <path d="M135.382 93.6236L164.093 66.3929L156.784 61.1562L135.382 93.6236Z" fill="#D79507"/>
    <path d="M1 133.726C8.28613 130.582 19.7358 129.534 32.7467 142.633C55.1255 164.639 32.7467 214.94 70.7386 213.892C97.8014 213.368 100.404 157.828 84.7905 157.828C68.6569 157.828 78.5452 185.598 95.1993 185.598C146.202 186.122 124.344 134.773 124.344 134.773C124.344 134.773 120.701 114.863 126.946 104.908" stroke="#506B7C" stroke-width="0.8975" stroke-linecap="round" stroke-linejoin="round"/>
</svg>
