<?xml version="1.0" encoding="UTF-8"?>
<svg id="Layer_2" data-name="Layer 2" xmlns="http://www.w3.org/2000/svg" viewBox="0 0 378.52 378.52">
  <defs>
    <style>
      .cls-1 {
        opacity: .15;
      }

      .cls-2 {
        opacity: .2;
      }

      .cls-3 {
        fill: #231f20;
      }

      .cls-3, .cls-4, .cls-5, .cls-6, .cls-7 {
        stroke-width: 0px;
      }

      .cls-4 {
        fill: #aecc6d;
      }

      .cls-5 {
        fill: #009e3c;
      }

      .cls-6 {
        fill: #ff6e00;
      }

      .cls-7 {
        fill: #fff;
      }
    </style>
  </defs>
  <g id="Layer_1-2" data-name="Layer 1">
    <g>
      <circle class="cls-6" cx="189.26" cy="189.26" r="189.26"/>
      <circle class="cls-7" cx="189.26" cy="189.26" r="169.24"/>
      <g>
        <g>
          <path class="cls-5" d="m189.33,180.03c20.14-17.73,19.2-16.76,20.16-17.73,10.32-10.43,17.26-17.43,23.7-28.92,4.18-7.46,12.35-22.01,8.61-34.98-1.6-5.55-4.9-9.92-4.9-9.92-.76-1-4.33-5.61-10.31-8.54-13.42-6.58-27.39.96-29.52,2.11-3.03,1.64-7.61,4.66-11.92,10.14l4.17,87.85Z"/>
          <path class="cls-5" d="m189.58,179.95c-21.84-15.67-20.81-14.8-21.87-15.67-11.33-9.36-18.94-15.65-26.5-26.44-4.91-7-14.48-20.67-12.02-33.91,1.05-5.66,3.92-10.33,3.92-10.33.66-1.07,3.77-5.99,9.45-9.47,12.76-7.83,27.44-1.69,29.68-.75,3.19,1.33,8.05,3.9,12.89,8.93l4.44,87.64Z"/>
          <path class="cls-5" d="m189.58,179.95c-21.84-15.67-20.81-14.8-21.87-15.67-11.33-9.36-18.94-15.65-26.5-26.44-4.91-7-14.48-20.67-12.02-33.91,1.05-5.66,3.92-10.33,3.92-10.33.66-1.07,3.77-5.99,9.45-9.47,12.76-7.83,27.44-1.69,29.68-.75,3.19,1.33,8.05,3.9,12.89,8.93l4.44,87.64Z"/>
          <g class="cls-1">
            <path class="cls-3" d="m189.58,179.95c-21.84-15.67-20.81-14.8-21.87-15.67-11.33-9.36-18.94-15.65-26.5-26.44-4.91-7-14.48-20.67-12.02-33.91,1.05-5.66,3.92-10.33,3.92-10.33.66-1.07,3.77-5.99,9.45-9.47,12.76-7.83,27.44-1.69,29.68-.75,3.19,1.33,8.05,3.9,12.89,8.93l4.44,87.64Z"/>
          </g>
          <path class="cls-4" d="m189.67,174.52c1.83-.19,2.85-1.59,6.7-6.75,7.01-9.41,6.7-8.92,7.02-9.42,3.47-5.38,5.8-8.99,7.51-14.41,1.11-3.52,3.28-10.38.48-15.36-1.2-2.13-3.01-3.6-3.01-3.6-.42-.34-2.37-1.87-5.21-2.47-6.36-1.34-11.66,3.22-12.47,3.92-1.15.99-2.84,2.71-4.18,5.43-2.56-2.87-5.13-4.55-6.85-5.5-2.01-1.11-5.32-2.86-9.69-2.63-1.4.08-3.53.22-5.73,1.61-2.44,1.55-3.51,3.74-4.01,4.8-.48,1.01-1.61,3.73-1.18,8.03.8,7.82,6.09,13.86,12.85,21.58.43.49,3.66,3.57,10.13,9.71,4.08,3.87,5.61,5.27,7.63,5.06Z"/>
          <g class="cls-2">
            <path class="cls-7" d="m146.38,98.71c.16,5.15.32,10.31.48,15.46.02.59.93.46.91-.13-.16-5.15-.32-10.31-.48-15.46-.02-.59-.93-.46-.91.13h0Z"/>
            <path class="cls-7" d="m150.23,87.26c.1,8.87.21,17.74.31,26.61,0,.59.92.46.91-.13-.1-8.87-.21-17.74-.31-26.61,0-.59-.92-.46-.91.13h0Z"/>
            <path class="cls-7" d="m155.93,88.23c-.16,8.98.05,17.97.66,26.93.04.59.95.46.91-.13-.6-8.88-.82-17.78-.66-26.68.01-.58-.9-.71-.91-.12h0Z"/>
            <path class="cls-7" d="m161.66,102.23c.12,6.32.24,12.65.37,18.97.01.59.92.46.91-.13-.12-6.32-.24-12.65-.37-18.97-.01-.59-.92-.46-.91.13h0Z"/>
            <path class="cls-7" d="m168.03,111.35c.14,2.61.27,5.22.41,7.83.03.59.94.46.91-.13-.14-2.61-.27-5.22-.41-7.83-.03-.59-.94-.46-.91.13h0Z"/>
          </g>
          <g class="cls-2">
            <path class="cls-7" d="m186.51,131.85c-2.56-2.87-5.13-4.55-6.85-5.5-2.01-1.11-5.32-2.86-9.69-2.63-1.4.08-3.53.22-5.73,1.61-2.44,1.55-3.51,3.74-4.01,4.8-.48,1.01-1.61,3.73-1.18,8.03.8,7.82,6.09,13.86,12.85,21.58.43.49,3.66,3.57,10.13,9.71,4.08,3.87,5.61,5.27,7.63,5.06l-3.16-42.67Z"/>
          </g>
          <g class="cls-2">
            <path class="cls-7" d="m206.1,85.69c25.74,12.04,29.53,26.3,16.83,45.66,27.94-22.52,10.16-49.42-16.83-45.66Z"/>
          </g>
        </g>
        <g>
          <path class="cls-5" d="m190.63,186.25c15.74,21.73,14.86,20.7,15.74,21.75,9.4,11.27,15.71,18.83,26.54,26.34,7.03,4.87,20.74,14.38,34.01,11.89,5.67-1.06,10.34-3.94,10.34-3.94,1.07-.66,5.99-3.78,9.48-9.45,7.82-12.74,1.65-27.35.7-29.59-1.34-3.17-3.92-8.01-8.97-12.82l-87.85-4.18Z"/>
          <path class="cls-5" d="m190.68,186.5c17.67-20.26,16.7-19.31,17.67-20.28,10.39-10.39,17.37-17.37,28.83-23.87,7.44-4.22,21.95-12.46,34.9-8.75,5.54,1.58,9.91,4.88,9.91,4.88,1,.75,5.6,4.32,8.53,10.31,6.58,13.44-.92,27.47-2.07,29.62-1.63,3.04-4.64,7.64-10.11,11.99l-87.67-3.89Z"/>
          <path class="cls-5" d="m190.68,186.5c17.67-20.26,16.7-19.31,17.67-20.28,10.39-10.39,17.37-17.37,28.83-23.87,7.44-4.22,21.95-12.46,34.9-8.75,5.54,1.58,9.91,4.88,9.91,4.88,1,.75,5.6,4.32,8.53,10.31,6.58,13.44-.92,27.47-2.07,29.62-1.63,3.04-4.64,7.64-10.11,11.99l-87.67-3.89Z"/>
          <g class="cls-1">
            <path class="cls-3" d="m190.68,186.5c17.67-20.26,16.7-19.31,17.67-20.28,10.39-10.39,17.37-17.37,28.83-23.87,7.44-4.22,21.95-12.46,34.9-8.75,5.54,1.58,9.91,4.88,9.91,4.88,1,.75,5.6,4.32,8.53,10.31,6.58,13.44-.92,27.47-2.07,29.62-1.63,3.04-4.64,7.64-10.11,11.99l-87.67-3.89Z"/>
          </g>
          <path class="cls-4" d="m196.08,187.11c.02,1.84,1.31,2.99,6.09,7.31,8.71,7.87,8.24,7.51,8.71,7.88,5.03,3.97,8.4,6.63,13.63,8.85,3.4,1.44,10.02,4.25,15.25,1.94,2.23-.99,3.87-2.66,3.87-2.66.37-.38,2.09-2.18,2.95-4.95,1.93-6.21-2.1-11.92-2.72-12.79-.88-1.24-2.43-3.08-5.01-4.68,3.1-2.27,5.02-4.68,6.13-6.29,1.29-1.89,3.36-5.02,3.53-9.4.06-1.4.12-3.54-1.06-5.85-1.31-2.58-3.39-3.85-4.39-4.45-.96-.57-3.56-1.96-7.88-1.93-7.86.05-14.37,4.74-22.71,10.75-.53.38-3.91,3.3-10.63,9.17-4.24,3.69-5.78,5.09-5.76,7.11Z"/>
          <g class="cls-2">
            <path class="cls-7" d="m275.73,151.21c-5.15-.33-10.29-.66-15.44-.99-.59-.04-.71.87-.12.91,5.15.33,10.29.66,15.44.99.59.04.71-.87.12-.91h0Z"/>
            <path class="cls-7" d="m286.77,156.14c-8.84-.74-17.68-1.48-26.52-2.21-.59-.05-.71.86-.12.91,8.84.74,17.68,1.48,26.52,2.21.59.05.71-.86.12-.91h0Z"/>
            <path class="cls-7" d="m285.14,161.71c-8.89-1.01-17.81-1.64-26.75-1.89-.58-.02-.71.89-.12.91,8.94.25,17.86.88,26.75,1.89.59.07.71-.84.12-.91h0Z"/>
            <path class="cls-7" d="m270.78,166.09c-6.31-.48-12.62-.96-18.92-1.44-.59-.04-.71.86-.12.91,6.31.48,12.62.96,18.92,1.44.59.04.71-.86.12-.91h0Z"/>
            <path class="cls-7" d="m261.1,171.57c-2.61-.11-5.22-.23-7.83-.34-.59-.03-.71.88-.12.91,2.61.11,5.22.23,7.83.34.59.03.71-.88.12-.91h0Z"/>
          </g>
          <g class="cls-2">
            <path class="cls-7" d="m238.85,188.01c3.1-2.27,5.02-4.68,6.13-6.29,1.29-1.89,3.36-5.02,3.53-9.4.06-1.4.12-3.54-1.06-5.85-1.31-2.58-3.39-3.85-4.39-4.45-.96-.57-3.56-1.96-7.88-1.93-7.86.05-14.37,4.74-22.71,10.75-.53.38-3.91,3.3-10.63,9.17-4.24,3.69-5.78,5.09-5.76,7.11l42.77.9Z"/>
          </g>
          <g class="cls-2">
            <path class="cls-7" d="m282.95,211.9c-14.43,24.48-28.99,26.9-47.05,12.42,19.77,29.95,48.23,14.81,47.05-12.42Z"/>
          </g>
        </g>
        <g>
          <path class="cls-5" d="m184.17,199.48c-19.65,18.27-18.74,17.28-19.67,18.27-10.04,10.7-16.78,17.89-22.91,29.55-3.98,7.57-11.74,22.34-7.66,35.2,1.75,5.5,5.17,9.79,5.17,9.79.78.98,4.48,5.49,10.53,8.26,13.6,6.21,27.35-1.7,29.45-2.91,2.98-1.72,7.48-4.87,11.64-10.46l-6.55-87.7Z"/>
          <path class="cls-5" d="m183.92,199.57c22.26,15.07,21.2,14.23,22.28,15.07,11.58,9.05,19.35,15.13,27.2,25.71,5.09,6.87,15.04,20.27,12.94,33.57-.9,5.69-3.64,10.43-3.64,10.43-.63,1.09-3.61,6.09-9.19,9.72-12.54,8.17-27.38,2.43-29.65,1.55-3.22-1.25-8.15-3.68-13.13-8.57l-6.81-87.49Z"/>
          <path class="cls-5" d="m183.92,199.57c22.26,15.07,21.2,14.23,22.28,15.07,11.58,9.05,19.35,15.13,27.2,25.71,5.09,6.87,15.04,20.27,12.94,33.57-.9,5.69-3.64,10.43-3.64,10.43-.63,1.09-3.61,6.09-9.19,9.72-12.54,8.17-27.38,2.43-29.65,1.55-3.22-1.25-8.15-3.68-13.13-8.57l-6.81-87.49Z"/>
          <g class="cls-1">
            <path class="cls-3" d="m183.92,199.57c22.26,15.07,21.2,14.23,22.28,15.07,11.58,9.05,19.35,15.13,27.2,25.71,5.09,6.87,15.04,20.27,12.94,33.57-.9,5.69-3.64,10.43-3.64,10.43-.63,1.09-3.61,6.09-9.19,9.72-12.54,8.17-27.38,2.43-29.65,1.55-3.22-1.25-8.15-3.68-13.13-8.57l-6.81-87.49Z"/>
          </g>
          <path class="cls-4" d="m183.97,205c-1.82.24-2.81,1.67-6.51,6.93-6.76,9.6-6.45,9.09-6.76,9.6-3.33,5.47-5.56,9.15-7.12,14.61-1.01,3.55-2.99,10.47-.06,15.37,1.25,2.1,3.11,3.52,3.11,3.52.43.33,2.42,1.81,5.27,2.33,6.4,1.16,11.57-3.54,12.36-4.26,1.12-1.02,2.76-2.79,4.03-5.54,2.63,2.8,5.25,4.41,6.99,5.31,2.04,1.05,5.39,2.72,9.76,2.36,1.4-.11,3.53-.31,5.68-1.77,2.4-1.62,3.41-3.84,3.88-4.9.45-1.02,1.51-3.78.96-8.06-1.01-7.8-6.46-13.69-13.43-21.23-.44-.48-3.75-3.47-10.39-9.44-4.18-3.75-5.75-5.11-7.76-4.85Z"/>
          <g class="cls-2">
            <path class="cls-7" d="m229.3,279.62c-.3-5.15-.6-10.3-.9-15.44-.03-.59-.94-.46-.91.13l.9,15.44c.03.59.94.46.91-.13h0Z"/>
            <path class="cls-7" d="m225.76,291.17c-.34-8.86-.69-17.73-1.03-26.59-.02-.59-.93-.46-.91.13.34,8.86.69,17.73,1.03,26.59.02.59.93.46.91-.13h0Z"/>
            <path class="cls-7" d="m220.04,290.24c-.08-8.94-.54-17.88-1.38-26.78-.06-.59-.96-.46-.91.13.84,8.9,1.3,17.84,1.38,26.78,0,.59.91.46.91-.13h0Z"/>
            <path class="cls-7" d="m213.93,276.52c-.29-6.32-.59-12.64-.88-18.96-.03-.59-.94-.46-.91.13.29,6.32.59,12.64.88,18.96.03.59.94.46.91-.13h0Z"/>
            <path class="cls-7" d="m207.31,267.58c-.21-2.61-.41-5.21-.62-7.82-.05-.59-.96-.46-.91.13.21,2.61.41,5.21.62,7.82.05.59.96.46.91-.13h0Z"/>
          </g>
          <g class="cls-2">
            <path class="cls-7" d="m188.29,247.56c2.63,2.8,5.25,4.41,6.99,5.31,2.04,1.05,5.39,2.72,9.76,2.36,1.4-.11,3.53-.31,5.68-1.77,2.4-1.62,3.41-3.84,3.88-4.9.45-1.02,1.51-3.78.96-8.06-1.01-7.8-6.46-13.69-13.43-21.23-.44-.48-3.75-3.47-10.39-9.44-4.18-3.75-5.75-5.11-7.76-4.85l4.32,42.56Z"/>
          </g>
          <g class="cls-2">
            <path class="cls-7" d="m169.95,294.24c-26.05-11.34-30.23-25.49-18.06-45.19-27.31,23.27-8.82,49.68,18.06,45.19Z"/>
          </g>
        </g>
        <g>
          <path class="cls-5" d="m185.09,185.96c-17.79-20.08-16.82-19.14-17.8-20.1-10.46-10.29-17.49-17.2-29-23.61-7.47-4.16-22.05-12.27-35.01-8.49-5.54,1.62-9.91,4.93-9.91,4.93-1,.76-5.59,4.35-8.51,10.33-6.54,13.44,1.04,27.38,2.2,29.51,1.65,3.03,4.69,7.59,10.18,11.88l87.83-4.46Z"/>
          <path class="cls-5" d="m185.01,185.71c-15.6,21.89-14.73,20.86-15.6,21.92-9.33,11.36-15.59,18.99-26.35,26.58-6.99,4.93-20.62,14.55-33.87,12.13-5.66-1.03-10.34-3.89-10.34-3.89-1.07-.65-6-3.75-9.5-9.42-7.87-12.73-1.78-27.43-.85-29.68,1.32-3.19,3.87-8.06,8.89-12.92l87.62-4.72Z"/>
          <path class="cls-5" d="m185.01,185.71c-15.6,21.89-14.73,20.86-15.6,21.92-9.33,11.36-15.59,18.99-26.35,26.58-6.99,4.93-20.62,14.55-33.87,12.13-5.66-1.03-10.34-3.89-10.34-3.89-1.07-.65-6-3.75-9.5-9.42-7.87-12.73-1.78-27.43-.85-29.68,1.32-3.19,3.87-8.06,8.89-12.92l87.62-4.72Z"/>
          <g class="cls-1">
            <path class="cls-3" d="m185.01,185.71c-15.6,21.89-14.73,20.86-15.6,21.92-9.33,11.36-15.59,18.99-26.35,26.58-6.99,4.93-20.62,14.55-33.87,12.13-5.66-1.03-10.34-3.89-10.34-3.89-1.07-.65-6-3.75-9.5-9.42-7.87-12.73-1.78-27.43-.85-29.68,1.32-3.19,3.87-8.06,8.89-12.92l87.62-4.72Z"/>
          </g>
          <path class="cls-4" d="m179.58,185.63c-.2-1.83-1.6-2.85-6.77-6.68-9.44-6.98-8.94-6.67-9.44-6.99-5.39-3.46-9.01-5.78-14.44-7.47-3.52-1.1-10.39-3.24-15.36-.43-2.13,1.2-3.59,3.03-3.59,3.03-.34.42-1.87,2.38-2.45,5.21-1.32,6.37,3.26,11.65,3.96,12.46.99,1.15,2.72,2.83,5.44,4.16-2.86,2.57-4.54,5.15-5.48,6.87-1.1,2.01-2.85,5.33-2.6,9.7.08,1.4.23,3.53,1.63,5.72,1.56,2.44,3.75,3.5,4.81,4,1.01.48,3.74,1.6,8.03,1.15,7.82-.82,13.84-6.13,21.54-12.92.49-.43,3.56-3.67,9.68-10.16,3.85-4.09,5.25-5.63,5.03-7.64Z"/>
          <g class="cls-2">
            <path class="cls-7" d="m103.91,229.17c5.15-.18,10.31-.35,15.46-.53.59-.02.46-.93-.13-.91-5.15.18-10.31.35-15.46.53-.59.02-.46.93.13.91h0Z"/>
            <path class="cls-7" d="m92.44,225.35c8.87-.13,17.74-.27,26.61-.4.59,0,.46-.92-.13-.91-8.87.13-17.74.27-26.61.4-.59,0-.46.92.13.91h0Z"/>
            <path class="cls-7" d="m93.39,219.65c8.98.13,17.97-.11,26.93-.74.59-.04.46-.95-.13-.91-8.88.63-17.78.88-26.68.74-.58,0-.71.9-.12.91h0Z"/>
            <path class="cls-7" d="m107.37,213.87c6.32-.14,12.65-.28,18.97-.43.59-.01.46-.92-.13-.91-6.32.14-12.65.28-18.97.43-.59.01-.46.92.13.91h0Z"/>
            <path class="cls-7" d="m116.47,207.47c2.61-.14,5.22-.29,7.83-.43.59-.03.46-.94-.13-.91-2.61.14-5.22.29-7.83.43-.59.03-.46.94.13.91h0Z"/>
          </g>
          <g class="cls-2">
            <path class="cls-7" d="m136.92,188.93c-2.86,2.57-4.54,5.15-5.48,6.87-1.1,2.01-2.85,5.33-2.6,9.7.08,1.4.23,3.53,1.63,5.72,1.56,2.44,3.75,3.5,4.81,4,1.01.48,3.74,1.6,8.03,1.15,7.82-.82,13.84-6.13,21.54-12.92.49-.43,3.56-3.67,9.68-10.16,3.85-4.09,5.25-5.63,5.03-7.64l-42.66,3.3Z"/>
          </g>
          <g class="cls-2">
            <path class="cls-7" d="m90.7,169.49c11.96-25.77,26.21-29.62,45.61-16.98-22.61-27.86-49.45-10-45.61,16.98Z"/>
          </g>
        </g>
      </g>
    </g>
  </g>
</svg>