<?xml version="1.0" encoding="UTF-8"?>
<svg id="Layer_2" data-name="Layer 2" xmlns="http://www.w3.org/2000/svg" viewBox="0 0 701.91 185.51">
  <defs>
    <style>
      .cls-1 {
        stroke: #231f20;
        stroke-miterlimit: 10;
        stroke-width: .25px;
      }

      .cls-1, .cls-2 {
        fill: #fff;
      }

      .cls-3 {
        opacity: .15;
      }

      .cls-4 {
        opacity: .2;
      }

      .cls-5 {
        fill: #231f20;
      }

      .cls-5, .cls-6, .cls-7, .cls-8, .cls-2 {
        stroke-width: 0px;
      }

      .cls-6 {
        fill: #aecc6d;
      }

      .cls-7 {
        fill: #009e3c;
      }

      .cls-8 {
        fill: #ff6e00;
      }
    </style>
  </defs>
  <g id="Layer_1-2" data-name="Layer 1">
    <g>
      <g>
        <polygon class="cls-1" points="190.35 .12 190.35 185.39 611.4 185.39 701.78 95.01 701.78 .12 190.35 .12"/>
        <polygon class="cls-7" points="611.24 185.39 611.24 95.01 701.62 95.01 611.24 185.39"/>
      </g>
      <g>
        <path class="cls-7" d="m218.39,155.54V27.31h18.37v128.24h-18.37Z"/>
        <path class="cls-7" d="m247.6,155.54V27.31h29.54c21.61,0,32.42,12.55,32.42,37.64,0,7.57-1.17,13.99-3.51,19.27-2.34,5.29-6.46,9.55-12.34,12.79l19.81,58.54h-19.45l-17.11-54.75h-10.99v54.75h-18.37Zm18.37-110.95v39.98h10.45c3.24,0,5.82-.45,7.75-1.35,1.92-.9,3.42-2.19,4.5-3.87.96-1.68,1.62-3.75,1.98-6.21.36-2.46.54-5.31.54-8.56s-.18-6.09-.54-8.56c-.36-2.46-1.08-4.59-2.16-6.39-2.28-3.36-6.61-5.04-12.97-5.04h-9.55Z"/>
        <path class="cls-7" d="m320.86,155.54V27.31h18.37v128.24h-18.37Z"/>
        <path class="cls-7" d="m412.5,64.23h-18.37v-4.14c0-4.2-.99-7.83-2.97-10.9-1.98-3.06-5.31-4.59-10-4.59-2.52,0-4.57.48-6.12,1.44-1.56.96-2.82,2.16-3.78,3.6-.96,1.56-1.62,3.33-1.98,5.31-.36,1.98-.54,4.05-.54,6.21,0,2.52.09,4.62.27,6.3.18,1.68.63,3.18,1.35,4.5.72,1.32,1.77,2.46,3.15,3.42,1.38.96,3.27,1.92,5.67,2.88l14.05,5.58c4.08,1.56,7.38,3.39,9.91,5.49,2.52,2.1,4.5,4.53,5.94,7.29,1.32,2.88,2.22,6.16,2.7,9.82.48,3.66.72,7.83.72,12.52,0,5.4-.54,10.42-1.62,15.04-1.08,4.62-2.82,8.56-5.22,11.8-2.52,3.36-5.83,6.01-9.91,7.93-4.08,1.92-9.07,2.88-14.95,2.88-4.44,0-8.59-.78-12.43-2.34-3.84-1.56-7.15-3.72-9.91-6.48-2.76-2.76-4.95-5.97-6.57-9.64-1.62-3.66-2.43-7.66-2.43-11.98v-6.84h18.37v5.76c0,3.36.99,6.39,2.97,9.1,1.98,2.7,5.31,4.05,10,4.05,3.12,0,5.55-.45,7.29-1.35,1.74-.9,3.09-2.19,4.05-3.87.96-1.68,1.53-3.69,1.71-6.03.18-2.34.27-4.95.27-7.83,0-3.36-.12-6.12-.36-8.28-.24-2.16-.72-3.9-1.44-5.22-.84-1.32-1.95-2.4-3.33-3.24-1.38-.84-3.22-1.74-5.49-2.7l-13.15-5.4c-7.93-3.24-13.24-7.53-15.94-12.88-2.7-5.34-4.05-12.04-4.05-20.08,0-4.8.66-9.37,1.98-13.69,1.32-4.32,3.3-8.04,5.94-11.17,2.52-3.12,5.73-5.61,9.64-7.48,3.9-1.86,8.56-2.79,13.96-2.79,4.56,0,8.74.84,12.52,2.52,3.78,1.68,7.05,3.9,9.82,6.66,5.52,5.76,8.28,12.37,8.28,19.81v9.01Z"/>
        <path class="cls-7" d="m424.19,155.54V27.31h18.37v54.93h22.7V27.31h18.37v128.24h-18.37v-57.09h-22.7v57.09h-18.37Z"/>
        <path class="cls-8" d="m190.35.13h511.27v4.59H190.35V.13Z"/>
      </g>
      <g>
        <path class="cls-7" d="m521.62,68.32v3.6c0,1.8-.34,3.5-1.02,5.11-.68,1.61-1.62,3.04-2.82,4.29-1.2,1.25-2.6,2.25-4.21,2.98-1.61.74-3.34,1.1-5.19,1.1-1.58,0-3.19-.22-4.82-.65-1.63-.43-3.11-1.2-4.41-2.29-1.31-1.09-2.38-2.49-3.23-4.21-.84-1.72-1.27-3.91-1.27-6.58v-32.04c0-1.91.33-3.68.98-5.31.65-1.63,1.58-3.05,2.78-4.25s2.63-2.14,4.29-2.82c1.66-.68,3.5-1.02,5.52-1.02,3.92,0,7.11,1.28,9.56,3.84,1.2,1.25,2.14,2.74,2.82,4.45.68,1.72,1.02,3.58,1.02,5.6v3.27h-8.34v-2.78c0-1.63-.46-3.05-1.39-4.25-.93-1.2-2.18-1.8-3.76-1.8-2.07,0-3.45.64-4.13,1.92-.68,1.28-1.02,2.9-1.02,4.86v29.75c0,1.69.37,3.11,1.1,4.25.73,1.14,2.06,1.72,3.96,1.72.54,0,1.13-.09,1.76-.29.63-.19,1.21-.5,1.76-.94.49-.43.9-1.03,1.23-1.8.33-.76.49-1.72.49-2.86v-2.86h8.34Z"/>
        <path class="cls-7" d="m524.65,84.91l12.99-58.19h6.95l13,58.19h-8.34l-2.45-12.5h-11.36l-2.45,12.5h-8.34Zm20.6-20.35l-4.09-21.09h-.16l-4.09,21.09h8.34Z"/>
        <path class="cls-7" d="m588.64,43.47h-8.34v-1.88c0-1.91-.45-3.56-1.35-4.95-.9-1.39-2.41-2.08-4.54-2.08-1.14,0-2.07.22-2.78.65-.71.44-1.28.98-1.72,1.63-.44.71-.74,1.51-.9,2.41-.16.9-.24,1.84-.24,2.82,0,1.14.04,2.1.12,2.86.08.76.29,1.44.61,2.04.33.6.8,1.12,1.43,1.55.62.44,1.48.87,2.57,1.31l6.38,2.53c1.85.71,3.35,1.54,4.49,2.49,1.14.95,2.04,2.06,2.7,3.31.6,1.31,1.01,2.79,1.23,4.45.22,1.66.33,3.56.33,5.68,0,2.45-.25,4.73-.74,6.82-.49,2.1-1.28,3.88-2.37,5.35-1.14,1.53-2.64,2.73-4.49,3.6-1.85.87-4.11,1.31-6.78,1.31-2.02,0-3.9-.36-5.64-1.06-1.74-.71-3.24-1.69-4.49-2.94-1.25-1.25-2.25-2.71-2.98-4.37-.74-1.66-1.1-3.47-1.1-5.43v-3.11h8.34v2.62c0,1.53.45,2.9,1.35,4.13.9,1.23,2.41,1.84,4.54,1.84,1.42,0,2.52-.2,3.31-.61.79-.41,1.4-.99,1.84-1.76.43-.76.69-1.68.78-2.74.08-1.06.12-2.25.12-3.56,0-1.52-.05-2.78-.16-3.76-.11-.98-.33-1.77-.65-2.37-.38-.6-.89-1.09-1.51-1.47-.63-.38-1.46-.79-2.49-1.23l-5.97-2.45c-3.6-1.47-6.01-3.42-7.23-5.84-1.23-2.42-1.84-5.46-1.84-9.11,0-2.18.3-4.25.9-6.21.6-1.96,1.5-3.65,2.7-5.07,1.14-1.42,2.6-2.55,4.37-3.39,1.77-.84,3.88-1.27,6.33-1.27,2.07,0,3.96.38,5.68,1.14,1.72.76,3.2,1.77,4.45,3.02,2.51,2.62,3.76,5.61,3.76,8.99v4.09Z"/>
        <path class="cls-7" d="m595.1,84.91V26.72h8.34v58.19h-8.34Z"/>
        <path class="cls-7" d="m611.2,84.91V26.72h8.01l12.59,35.06h.16V26.72h8.34v58.19h-7.85l-12.75-34.98h-.16v34.98h-8.34Z"/>
        <path class="cls-7" d="m647.32,40.45c0-2.34.41-4.41,1.23-6.21.82-1.8,1.91-3.3,3.27-4.49,1.31-1.14,2.79-2.02,4.45-2.62,1.66-.6,3.34-.9,5.03-.9s3.36.3,5.03.9c1.66.6,3.17,1.47,4.54,2.62,1.31,1.2,2.37,2.7,3.19,4.49.82,1.8,1.23,3.87,1.23,6.21v30.73c0,2.45-.41,4.55-1.23,6.29-.82,1.74-1.88,3.19-3.19,4.33-1.36,1.2-2.87,2.1-4.54,2.7-1.66.6-3.34.9-5.03.9s-3.36-.3-5.03-.9c-1.66-.6-3.15-1.5-4.45-2.7-1.36-1.14-2.45-2.59-3.27-4.33-.82-1.74-1.23-3.84-1.23-6.29v-30.73Zm8.34,30.73c0,2.02.56,3.5,1.68,4.45,1.12.95,2.44,1.43,3.96,1.43s2.85-.48,3.96-1.43c1.12-.95,1.68-2.44,1.68-4.45v-30.73c0-2.01-.56-3.5-1.68-4.45-1.12-.95-2.44-1.43-3.96-1.43s-2.85.48-3.96,1.43c-1.12.95-1.68,2.44-1.68,4.45v30.73Z"/>
      </g>
      <g>
        <path class="cls-8" d="m495.14,155.39v-58.19h8.34v49.86h16.51v8.34h-24.85Z"/>
        <path class="cls-8" d="m525.63,155.39v-58.19h8.34v58.19h-8.34Z"/>
        <path class="cls-8" d="m569.02,113.95h-8.34v-1.88c0-1.91-.45-3.56-1.35-4.95-.9-1.39-2.41-2.08-4.54-2.08-1.14,0-2.07.22-2.78.65-.71.44-1.28.98-1.72,1.63-.44.71-.74,1.51-.9,2.41-.16.9-.24,1.84-.24,2.82,0,1.14.04,2.1.12,2.86.08.76.29,1.44.61,2.04.33.6.8,1.12,1.43,1.55.62.44,1.48.87,2.57,1.31l6.38,2.53c1.85.71,3.35,1.54,4.49,2.49,1.14.95,2.04,2.06,2.7,3.31.6,1.31,1.01,2.79,1.23,4.45.22,1.66.33,3.56.33,5.68,0,2.45-.25,4.73-.74,6.82-.49,2.1-1.28,3.88-2.37,5.35-1.14,1.53-2.64,2.73-4.49,3.6-1.85.87-4.11,1.31-6.78,1.31-2.02,0-3.9-.36-5.64-1.06-1.74-.71-3.24-1.69-4.49-2.94-1.25-1.25-2.25-2.71-2.98-4.37-.74-1.66-1.1-3.47-1.1-5.43v-3.11h8.34v2.62c0,1.53.45,2.9,1.35,4.13.9,1.23,2.41,1.84,4.54,1.84,1.42,0,2.52-.2,3.31-.61.79-.41,1.4-.99,1.84-1.76.43-.76.69-1.68.78-2.74.08-1.06.12-2.25.12-3.56,0-1.52-.05-2.78-.16-3.76-.11-.98-.33-1.77-.65-2.37-.38-.6-.89-1.09-1.51-1.47-.63-.38-1.46-.79-2.49-1.23l-5.97-2.45c-3.6-1.47-6.01-3.42-7.23-5.84-1.23-2.42-1.84-5.46-1.84-9.11,0-2.18.3-4.25.9-6.21.6-1.96,1.5-3.65,2.7-5.07,1.14-1.42,2.6-2.55,4.37-3.39,1.77-.84,3.88-1.27,6.33-1.27,2.07,0,3.96.38,5.68,1.14,1.72.76,3.2,1.77,4.45,3.02,2.51,2.62,3.76,5.61,3.76,8.99v4.09Z"/>
        <path class="cls-8" d="m580.71,155.39v-50.35h-9.64v-7.85h27.62v7.85h-9.64v50.35h-8.34Z"/>
      </g>
      <g>
        <polygon class="cls-1" points="51.42 .13 .12 51.42 .12 185.39 185.39 185.39 185.39 .13 51.42 .13"/>
        <g>
          <g>
            <path class="cls-7" d="m97.33,90.11c13.69-10.33,13.05-9.76,13.71-10.33,7.08-6.15,11.84-10.28,16.5-17.3,3.03-4.55,8.93-13.44,7.17-21.89-.75-3.61-2.65-6.56-2.65-6.56-.43-.68-2.49-3.78-6.16-5.94-8.24-4.84-17.51-.71-18.92-.08-2.01.9-5.07,2.61-8.09,5.89l-1.57,56.21Z"/>
            <path class="cls-7" d="m97.49,90.07c-13.17-11.04-12.56-10.44-13.19-11.04-6.77-6.51-11.32-10.89-15.62-18.13-2.79-4.7-8.24-13.88-6.03-22.2.94-3.56,3-6.4,3-6.4.47-.65,2.69-3.63,6.48-5.58,8.51-4.38,17.57.25,18.96.95,1.97,1,4.94,2.87,7.79,6.31l-1.39,56.09Z"/>
            <path class="cls-7" d="m97.49,90.07c-13.17-11.04-12.56-10.44-13.19-11.04-6.77-6.51-11.32-10.89-15.62-18.13-2.79-4.7-8.24-13.88-6.03-22.2.94-3.56,3-6.4,3-6.4.47-.65,2.69-3.63,6.48-5.58,8.51-4.38,17.57.25,18.96.95,1.97,1,4.94,2.87,7.79,6.31l-1.39,56.09Z"/>
            <g class="cls-3">
              <path class="cls-5" d="m97.49,90.07c-13.17-11.04-12.56-10.44-13.19-11.04-6.77-6.51-11.32-10.89-15.62-18.13-2.79-4.7-8.24-13.88-6.03-22.2.94-3.56,3-6.4,3-6.4.47-.65,2.69-3.63,6.48-5.58,8.51-4.38,17.57.25,18.96.95,1.97,1,4.94,2.87,7.79,6.31l-1.39,56.09Z"/>
            </g>
            <path class="cls-6" d="m97.81,86.61c1.18-.04,1.9-.88,4.6-3.98,4.93-5.66,4.7-5.36,4.93-5.67,2.47-3.26,4.13-5.45,5.49-8.83.88-2.19,2.59-6.46,1.05-9.77-.66-1.42-1.75-2.44-1.75-2.44-.25-.23-1.42-1.31-3.2-1.82-3.99-1.16-7.59,1.49-8.14,1.9-.78.58-1.94,1.59-2.93,3.26-1.49-1.95-3.05-3.15-4.1-3.84-1.23-.8-3.25-2.08-6.05-2.14-.9-.02-2.26-.03-3.73.75-1.63.87-2.42,2.22-2.79,2.86-.35.62-1.21,2.3-1.14,5.06.13,5.02,3.21,9.13,7.16,14.38.25.33,2.16,2.46,5.99,6.68,2.41,2.66,3.32,3.63,4.62,3.59Z"/>
            <g class="cls-4">
              <path class="cls-2" d="m73.86,36.19c-.15,3.29-.29,6.59-.44,9.88-.02.38.57.34.59-.04.15-3.29.29-6.59.44-9.88.02-.38-.57-.34-.59.04h0Z"/>
              <path class="cls-2" d="m76.87,29.07c-.36,5.66-.72,11.32-1.08,16.98-.02.38.56.34.59-.04.36-5.66.72-11.32,1.08-16.98.02-.38-.56-.34-.59.04h0Z"/>
              <path class="cls-2" d="m80.46,29.97c-.54,5.72-.83,11.46-.88,17.2,0,.38.58.34.59-.04.05-5.69.34-11.38.87-17.04.03-.37-.54-.5-.57-.12h0Z"/>
              <path class="cls-2" d="m83.44,39.17c-.23,4.04-.45,8.08-.68,12.12-.02.38.56.34.59-.04.23-4.04.45-8.08.68-12.12.02-.38-.56-.34-.59.04h0Z"/>
              <path class="cls-2" d="m87.06,45.29c-.04,1.67-.08,3.34-.12,5.01,0,.38.58.34.59-.04.04-1.67.08-3.34.12-5.01,0-.38-.58-.34-.59.04h0Z"/>
            </g>
            <g class="cls-4">
              <path class="cls-2" d="m97.85,59.25c-1.49-1.95-3.05-3.15-4.1-3.84-1.23-.8-3.25-2.08-6.05-2.14-.9-.02-2.26-.03-3.73.75-1.63.87-2.42,2.22-2.79,2.86-.35.62-1.21,2.3-1.14,5.06.13,5.02,3.21,9.13,7.16,14.38.25.33,2.16,2.46,5.99,6.68,2.41,2.66,3.32,3.63,4.62,3.59l.04-27.36Z"/>
            </g>
            <g class="cls-4">
              <path class="cls-2" d="m112.57,30.77c15.83,8.92,17.56,18.19,8.53,29.93,18.9-13.02,8.86-31.02-8.53-29.93Z"/>
            </g>
          </g>
          <g>
            <path class="cls-7" d="m97.86,94.13c8.99,14.61,8.48,13.92,8.99,14.63,5.45,7.64,9.11,12.76,15.65,18.07,4.24,3.44,12.53,10.17,21.11,9.22,3.67-.41,6.79-2.01,6.79-2.01.71-.37,4-2.12,6.5-5.57,5.6-7.74,2.37-17.36,1.87-18.83-.7-2.09-2.11-5.3-5.1-8.61l-55.81-6.9Z"/>
            <path class="cls-7" d="m97.88,94.3c12.24-12.07,11.58-11.51,12.24-12.08,7.13-6.12,11.91-10.24,19.53-13.83,4.94-2.33,14.59-6.88,22.67-3.9,3.45,1.28,6.08,3.59,6.08,3.59.6.53,3.36,3.03,4.94,6.98,3.55,8.89-1.91,17.47-2.75,18.78-1.19,1.86-3.33,4.65-7.02,7.16l-55.71-6.71Z"/>
            <path class="cls-7" d="m97.88,94.3c12.24-12.07,11.58-11.51,12.24-12.08,7.13-6.12,11.91-10.24,19.53-13.83,4.94-2.33,14.59-6.88,22.67-3.9,3.45,1.28,6.08,3.59,6.08,3.59.6.53,3.36,3.03,4.94,6.98,3.55,8.89-1.91,17.47-2.75,18.78-1.19,1.86-3.33,4.65-7.02,7.16l-55.71-6.71Z"/>
            <g class="cls-3">
              <path class="cls-5" d="m97.88,94.3c12.24-12.07,11.58-11.51,12.24-12.08,7.13-6.12,11.91-10.24,19.53-13.83,4.94-2.33,14.59-6.88,22.67-3.9,3.45,1.28,6.08,3.59,6.08,3.59.6.53,3.36,3.03,4.94,6.98,3.55,8.89-1.91,17.47-2.75,18.78-1.19,1.86-3.33,4.65-7.02,7.16l-55.71-6.71Z"/>
            </g>
            <path class="cls-6" d="m101.29,94.95c-.08,1.17.69,1.97,3.53,4.95,5.17,5.44,4.89,5.19,5.17,5.45,3.01,2.77,5.04,4.63,8.27,6.3,2.1,1.08,6.19,3.19,9.63,1.97,1.47-.52,2.6-1.51,2.6-1.51.26-.23,1.44-1.29,2.12-3.01,1.53-3.87-.77-7.7-1.12-8.29-.5-.83-1.4-2.08-2.97-3.22,2.08-1.3,3.43-2.74,4.21-3.72.92-1.14,2.38-3.04,2.71-5.82.1-.89.25-2.25-.4-3.78-.71-1.71-1.98-2.62-2.59-3.05-.58-.41-2.18-1.42-4.93-1.61-5.01-.35-9.39,2.33-14.99,5.76-.36.22-2.65,1.92-7.22,5.33-2.88,2.15-3.93,2.97-4.01,4.26Z"/>
            <g class="cls-4">
              <path class="cls-2" d="m153.81,75.9c-3.27-.46-6.53-.92-9.8-1.38-.37-.05-.49.52-.12.57,3.27.46,6.53.92,9.8,1.38.37.05.49-.52.12-.57h0Z"/>
              <path class="cls-2" d="m160.61,79.57c-5.6-.9-11.2-1.79-16.8-2.69-.37-.06-.49.51-.12.57,5.6.9,11.2,1.79,16.8,2.69.37.06.49-.51.12-.57h0Z"/>
              <path class="cls-2" d="m159.3,83.04c-5.62-1.07-11.28-1.9-16.96-2.49-.37-.04-.5.53-.12.57,5.69.59,11.35,1.42,16.96,2.49.37.07.49-.5.12-.57h0Z"/>
              <path class="cls-2" d="m149.93,85.14c-4-.61-8-1.22-12-1.83-.37-.06-.49.52-.12.57,4,.61,8,1.22,12,1.83.37.06.49-.52.12-.57h0Z"/>
              <path class="cls-2" d="m143.5,88.17c-1.66-.2-3.32-.4-4.98-.59-.37-.04-.5.53-.12.57,1.66.2,3.32.4,4.98.59.37.04.5-.53.12-.57h0Z"/>
            </g>
            <g class="cls-4">
              <path class="cls-2" d="m128.52,97.58c2.08-1.3,3.43-2.74,4.21-3.72.92-1.14,2.38-3.04,2.71-5.82.1-.89.25-2.25-.4-3.78-.71-1.71-1.98-2.62-2.59-3.05-.58-.41-2.18-1.42-4.93-1.61-5.01-.35-9.39,2.33-14.99,5.76-.36.22-2.65,1.92-7.22,5.33-2.88,2.15-3.93,2.97-4.01,4.26l27.23,2.63Z"/>
            </g>
            <g class="cls-4">
              <path class="cls-2" d="m155.48,114.94c-10.38,14.91-19.78,15.76-30.6,5.65,11.16,20.05,30.04,11.76,30.6-5.65Z"/>
            </g>
          </g>
          <g>
            <path class="cls-7" d="m93.1,102.26c-13.41,10.7-12.78,10.11-13.42,10.7-6.92,6.34-11.56,10.6-16.03,17.74-2.9,4.63-8.56,13.68-6.58,22.08.85,3.59,2.82,6.49,2.82,6.49.45.66,2.59,3.72,6.32,5.77,8.37,4.62,17.52.24,18.92-.43,1.99-.95,5-2.74,7.92-6.11l.05-56.23Z"/>
            <path class="cls-7" d="m92.94,102.3c13.47,10.68,12.83,10.09,13.48,10.68,6.95,6.33,11.61,10.58,16.11,17.7,2.92,4.62,8.61,13.65,6.63,22.03-.85,3.58-2.82,6.47-2.82,6.47-.45.66-2.59,3.71-6.33,5.76-8.39,4.61-17.57.23-18.98-.44-1.99-.95-5.02-2.74-7.96-6.1l-.13-56.11Z"/>
            <path class="cls-7" d="m92.94,102.3c13.47,10.68,12.83,10.09,13.48,10.68,6.95,6.33,11.61,10.58,16.11,17.7,2.92,4.62,8.61,13.65,6.63,22.03-.85,3.58-2.82,6.47-2.82,6.47-.45.66-2.59,3.71-6.33,5.76-8.39,4.61-17.57.23-18.98-.44-1.99-.95-5.02-2.74-7.96-6.1l-.13-56.11Z"/>
            <g class="cls-3">
              <path class="cls-5" d="m92.94,102.3c13.47,10.68,12.83,10.09,13.48,10.68,6.95,6.33,11.61,10.58,16.11,17.7,2.92,4.62,8.61,13.65,6.63,22.03-.85,3.58-2.82,6.47-2.82,6.47-.45.66-2.59,3.71-6.33,5.76-8.39,4.61-17.57.23-18.98-.44-1.99-.95-5.02-2.74-7.96-6.1l-.13-56.11Z"/>
            </g>
            <path class="cls-6" d="m92.71,105.77c-1.17.07-1.87.93-4.49,4.11-4.77,5.8-4.55,5.49-4.78,5.8-2.38,3.33-3.98,5.56-5.24,8.97-.82,2.21-2.41,6.53-.78,9.8.7,1.4,1.81,2.39,1.81,2.39.26.23,1.46,1.27,3.25,1.74,4.02,1.05,7.55-1.7,8.09-2.12.77-.6,1.89-1.65,2.84-3.34,1.54,1.91,3.14,3.07,4.2,3.73,1.25.77,3.31,1.99,6.11,1.98.9,0,2.26-.03,3.71-.85,1.61-.92,2.36-2.28,2.71-2.94.34-.63,1.15-2.33,1-5.09-.27-5.02-3.46-9.04-7.54-14.18-.26-.33-2.22-2.4-6.17-6.52-2.49-2.6-3.42-3.54-4.71-3.46Z"/>
            <g class="cls-4">
              <path class="cls-2" d="m118.02,155.53c.06-3.3.11-6.59.17-9.89,0-.38-.58-.34-.59.04-.06,3.3-.11,6.59-.17,9.89,0,.38.58.34.59-.04h0Z"/>
              <path class="cls-2" d="m115.2,162.72c.21-5.67.41-11.34.62-17,.01-.38-.57-.34-.59.04-.21,5.67-.41,11.34-.62,17-.01.38.57.34.59-.04h0Z"/>
              <path class="cls-2" d="m111.6,161.85c.38-5.71.52-11.42.41-17.14,0-.38-.59-.34-.59.04.11,5.72-.03,11.44-.41,17.14-.02.37.56.34.59-.04h0Z"/>
              <path class="cls-2" d="m108.37,152.81c.12-4.04.23-8.09.35-12.13.01-.38-.57-.34-.59.04-.12,4.04-.23,8.09-.35,12.13-.01.38.57.34.59-.04h0Z"/>
              <path class="cls-2" d="m104.58,146.79c0-1.67-.01-3.34-.02-5.01,0-.38-.59-.34-.59.04,0,1.67.01,3.34.02,5.01,0,.38.59.34.59-.04h0Z"/>
            </g>
            <g class="cls-4">
              <path class="cls-2" d="m93.41,133.12c1.54,1.91,3.14,3.07,4.2,3.73,1.25.77,3.31,1.99,6.11,1.98.9,0,2.26-.03,3.71-.85,1.61-.92,2.36-2.28,2.71-2.94.34-.63,1.15-2.33,1-5.09-.27-5.02-3.46-9.04-7.54-14.18-.26-.33-2.22-2.4-6.17-6.52-2.49-2.6-3.42-3.54-4.71-3.46l.7,27.35Z"/>
            </g>
            <g class="cls-4">
              <path class="cls-2" d="m79.47,161.99c-16.06-8.48-18.05-17.71-9.34-29.68-18.54,13.52-8.02,31.25,9.34,29.68Z"/>
            </g>
          </g>
          <g>
            <path class="cls-7" d="m94.34,93.68c-10.38-13.66-9.8-13.02-10.38-13.67-6.17-7.07-10.32-11.81-17.35-16.45-4.56-3.01-13.47-8.89-21.91-7.1-3.61.76-6.56,2.67-6.56,2.67-.67.44-3.78,2.5-5.92,6.18-4.82,8.26-.65,17.51-.02,18.92.9,2.01,2.62,5.07,5.92,8.07l56.22,1.39Z"/>
            <path class="cls-7" d="m94.3,93.52c-11,13.21-10.4,12.59-11,13.22-6.49,6.79-10.85,11.36-18.08,15.68-4.69,2.81-13.85,8.28-22.18,6.1-3.56-.93-6.41-2.98-6.41-2.98-.65-.47-3.64-2.68-5.6-6.47-4.4-8.5.19-17.57.89-18.96,1-1.97,2.86-4.95,6.29-7.81l56.1,1.21Z"/>
            <path class="cls-7" d="m94.3,93.52c-11,13.21-10.4,12.59-11,13.22-6.49,6.79-10.85,11.36-18.08,15.68-4.69,2.81-13.85,8.28-22.18,6.1-3.56-.93-6.41-2.98-6.41-2.98-.65-.47-3.64-2.68-5.6-6.47-4.4-8.5.19-17.57.89-18.96,1-1.97,2.86-4.95,6.29-7.81l56.1,1.21Z"/>
            <g class="cls-3">
              <path class="cls-5" d="m94.3,93.52c-11,13.21-10.4,12.59-11,13.22-6.49,6.79-10.85,11.36-18.08,15.68-4.69,2.81-13.85,8.28-22.18,6.1-3.56-.93-6.41-2.98-6.41-2.98-.65-.47-3.64-2.68-5.6-6.47-4.4-8.5.19-17.57.89-18.96,1-1.97,2.86-4.95,6.29-7.81l56.1,1.21Z"/>
            </g>
            <path class="cls-6" d="m90.84,93.21c-.04-1.18-.88-1.89-4-4.58-5.68-4.91-5.38-4.68-5.68-4.91-3.27-2.46-5.47-4.12-8.84-5.46-2.19-.87-6.47-2.57-9.77-1.01-1.41.66-2.44,1.76-2.44,1.76-.23.25-1.3,1.43-1.81,3.21-1.15,4,1.52,7.59,1.92,8.14.58.78,1.6,1.93,3.27,2.92-1.95,1.5-3.14,3.06-3.82,4.11-.8,1.23-2.07,3.26-2.12,6.06-.02.9-.02,2.26.77,3.73.88,1.63,2.22,2.41,2.87,2.78.62.35,2.31,1.2,5.07,1.12,5.02-.15,9.12-3.24,14.36-7.2.33-.25,2.45-2.17,6.66-6.01,2.65-2.42,3.62-3.34,3.58-4.63Z"/>
            <g class="cls-4">
              <path class="cls-2" d="m40.5,117.32c3.29.14,6.59.27,9.88.41.38.02.34-.57-.04-.59-3.29-.14-6.59-.27-9.88-.41-.38-.02-.34.57.04.59h0Z"/>
              <path class="cls-2" d="m33.37,114.34c5.66.34,11.32.68,16.99,1.03.38.02.34-.56-.04-.59-5.66-.34-11.32-.68-16.99-1.03-.38-.02-.34.56.04.59h0Z"/>
              <path class="cls-2" d="m34.25,110.75c5.72.52,11.46.79,17.2.82.38,0,.34-.58-.04-.59-5.69-.03-11.38-.3-17.05-.81-.37-.03-.5.54-.12.57h0Z"/>
              <path class="cls-2" d="m43.45,107.74c4.04.21,8.08.43,12.12.64.38.02.34-.57-.04-.59-4.04-.21-8.08-.43-12.12-.64-.38-.02-.34.57.04.59h0Z"/>
              <path class="cls-2" d="m49.56,104.09c1.67.03,3.34.07,5.01.1.38,0,.34-.58-.04-.59l-5.01-.1c-.38,0-.34.58.04.59h0Z"/>
            </g>
            <g class="cls-4">
              <path class="cls-2" d="m63.49,93.26c-1.95,1.5-3.14,3.06-3.82,4.11-.8,1.23-2.07,3.26-2.12,6.06-.02.9-.02,2.26.77,3.73.88,1.63,2.22,2.41,2.87,2.78.62.35,2.31,1.2,5.07,1.12,5.02-.15,9.12-3.24,14.36-7.2.33-.25,2.45-2.17,6.66-6.01,2.65-2.42,3.62-3.34,3.58-4.63l-27.36.05Z"/>
            </g>
            <g class="cls-4">
              <path class="cls-2" d="m34.95,78.63c8.86-15.86,18.14-17.62,29.9-8.63-13.08-18.85-31.05-8.76-29.9,8.63Z"/>
            </g>
          </g>
        </g>
        <polygon class="cls-8" points="51.83 .12 51.83 51.83 .12 51.83 51.83 .12"/>
      </g>
    </g>
  </g>
</svg>