<?xml version="1.0" encoding="UTF-8"?>
<svg id="Layer_2" data-name="Layer 2" xmlns="http://www.w3.org/2000/svg" xmlns:xlink="http://www.w3.org/1999/xlink" viewBox="0 0 493.34 175.31">
  <defs>
    <style>
      .cls-1 {
        clip-path: url(#clippath);
      }

      .cls-2 {
        fill: none;
      }

      .cls-2, .cls-3, .cls-4, .cls-5 {
        stroke-width: 0px;
      }

      .cls-6 {
        fill: #fff;
        stroke: #231f20;
        stroke-miterlimit: 10;
        stroke-width: .25px;
      }

      .cls-3 {
        fill: #c8102e;
      }

      .cls-4 {
        fill: #fefefe;
      }

      .cls-5 {
        fill: #012169;
      }
    </style>
    <clipPath id="clippath">
      <rect class="cls-2" x="31.6" y="22.29" width="113.38" height="129.74"/>
    </clipPath>
  </defs>
  <g id="Layer_1-2" data-name="Layer 1">
    <g>
      <polygon class="cls-6" points=".12 .12 .12 175.19 407.81 175.19 493.22 89.78 493.22 .12 .12 .12"/>
      <polygon class="cls-3" points="407.66 175.19 407.66 89.78 493.06 89.78 407.66 175.19"/>
      <g>
        <path class="cls-5" d="m212.2,22.28v100.52c0,4.25-.76,8.17-2.28,11.75-1.52,3.58-3.67,6.77-6.46,9.56s-6.01,4.98-9.65,6.56-7.53,2.37-11.65,2.37-7.98-.79-11.56-2.37c-3.58-1.58-6.77-3.76-9.56-6.56-2.79-2.79-4.98-5.98-6.56-9.56-1.58-3.58-2.37-7.5-2.37-11.75V22.28h18.57v98.7c0,4.62,1.09,8.01,3.28,10.2,2.19,2.18,4.92,3.28,8.19,3.28s6.01-1.09,8.19-3.28,3.28-5.58,3.28-10.2V22.28h18.57Z"/>
        <path class="cls-5" d="m214.62,151.94V22.28h18.57v59.18h.36l27.13-59.18h18.57l-25.31,51.9,30.05,77.75h-19.67l-21.12-57.54-10.02,18.76v38.79h-18.57Z"/>
        <g>
          <path class="cls-5" d="m318.08,64.48v3.6c0,1.8-.34,3.5-1.02,5.11-.68,1.61-1.62,3.04-2.82,4.29-1.2,1.25-2.6,2.25-4.21,2.98-1.61.74-3.34,1.1-5.19,1.1-1.58,0-3.19-.22-4.82-.65-1.63-.43-3.11-1.2-4.41-2.29-1.31-1.09-2.38-2.49-3.23-4.21-.84-1.72-1.27-3.91-1.27-6.58v-32.04c0-1.91.33-3.68.98-5.31s1.58-3.05,2.78-4.25,2.63-2.14,4.29-2.82c1.66-.68,3.5-1.02,5.52-1.02,3.92,0,7.11,1.28,9.56,3.84,1.2,1.25,2.14,2.74,2.82,4.45.68,1.72,1.02,3.58,1.02,5.6v3.27h-8.34v-2.78c0-1.63-.46-3.05-1.39-4.25-.93-1.2-2.18-1.8-3.76-1.8-2.07,0-3.45.64-4.13,1.92-.68,1.28-1.02,2.9-1.02,4.86v29.75c0,1.69.37,3.11,1.1,4.25.73,1.14,2.06,1.72,3.96,1.72.54,0,1.13-.09,1.76-.29.63-.19,1.21-.5,1.76-.94.49-.43.9-1.03,1.23-1.8.33-.76.49-1.72.49-2.86v-2.86h8.34Z"/>
          <path class="cls-5" d="m321.11,81.07l12.99-58.19h6.95l13,58.19h-8.34l-2.45-12.5h-11.36l-2.45,12.5h-8.34Zm20.6-20.35l-4.09-21.09h-.16l-4.09,21.09h8.34Z"/>
          <path class="cls-5" d="m385.1,39.63h-8.34v-1.88c0-1.91-.45-3.56-1.35-4.95-.9-1.39-2.41-2.08-4.54-2.08-1.14,0-2.07.22-2.78.65-.71.44-1.28.98-1.72,1.63-.44.71-.74,1.51-.9,2.41-.16.9-.24,1.84-.24,2.82,0,1.14.04,2.1.12,2.86.08.76.29,1.44.61,2.04.33.6.8,1.12,1.43,1.55.62.44,1.48.87,2.57,1.31l6.38,2.53c1.85.71,3.35,1.54,4.49,2.49,1.14.95,2.04,2.06,2.7,3.31.6,1.31,1.01,2.79,1.23,4.45.22,1.66.33,3.56.33,5.68,0,2.45-.25,4.73-.74,6.82-.49,2.1-1.28,3.88-2.37,5.35-1.14,1.53-2.64,2.73-4.49,3.6-1.85.87-4.11,1.31-6.78,1.31-2.02,0-3.9-.36-5.64-1.06-1.74-.71-3.24-1.69-4.49-2.94-1.25-1.25-2.25-2.71-2.98-4.37-.74-1.66-1.1-3.47-1.1-5.43v-3.11h8.34v2.62c0,1.53.45,2.9,1.35,4.13.9,1.23,2.41,1.84,4.54,1.84,1.42,0,2.52-.2,3.31-.61.79-.41,1.4-.99,1.84-1.76.43-.76.69-1.68.78-2.74.08-1.06.12-2.25.12-3.56,0-1.52-.05-2.78-.16-3.76-.11-.98-.33-1.77-.65-2.37-.38-.6-.89-1.09-1.51-1.47-.63-.38-1.46-.79-2.49-1.23l-5.97-2.45c-3.6-1.47-6.01-3.42-7.23-5.84-1.23-2.42-1.84-5.46-1.84-9.11,0-2.18.3-4.25.9-6.21.6-1.96,1.5-3.65,2.7-5.07,1.14-1.42,2.6-2.55,4.37-3.39,1.77-.84,3.88-1.27,6.33-1.27,2.07,0,3.96.38,5.68,1.14,1.72.76,3.2,1.77,4.45,3.02,2.51,2.62,3.76,5.61,3.76,8.99v4.09Z"/>
          <path class="cls-5" d="m391.56,81.07V22.88h8.34v58.19h-8.34Z"/>
          <path class="cls-5" d="m407.66,81.07V22.88h8.01l12.59,35.06h.16V22.88h8.34v58.19h-7.85l-12.75-34.98h-.16v34.98h-8.34Z"/>
          <path class="cls-5" d="m443.78,36.61c0-2.34.41-4.41,1.23-6.21.82-1.8,1.91-3.3,3.27-4.49,1.31-1.14,2.79-2.02,4.45-2.62,1.66-.6,3.34-.9,5.03-.9s3.36.3,5.03.9c1.66.6,3.17,1.47,4.54,2.62,1.31,1.2,2.37,2.7,3.19,4.49.82,1.8,1.23,3.87,1.23,6.21v30.73c0,2.45-.41,4.55-1.23,6.29-.82,1.74-1.88,3.19-3.19,4.33-1.36,1.2-2.87,2.1-4.54,2.7-1.66.6-3.34.9-5.03.9s-3.36-.3-5.03-.9c-1.66-.6-3.15-1.5-4.45-2.7-1.36-1.14-2.45-2.59-3.27-4.33-.82-1.74-1.23-3.84-1.23-6.29v-30.73Zm8.34,30.73c0,2.02.56,3.5,1.68,4.45,1.12.95,2.44,1.43,3.96,1.43s2.85-.48,3.96-1.43c1.12-.95,1.68-2.44,1.68-4.45v-30.73c0-2.01-.56-3.5-1.68-4.45-1.12-.95-2.44-1.43-3.96-1.43s-2.85.48-3.96,1.43c-1.12.95-1.68,2.44-1.68,4.45v30.73Z"/>
        </g>
        <g>
          <path class="cls-3" d="m291.6,151.55v-58.19h8.34v49.86h16.51v8.34h-24.85Z"/>
          <path class="cls-3" d="m322.09,151.55v-58.19h8.34v58.19h-8.34Z"/>
          <path class="cls-3" d="m365.49,110.11h-8.34v-1.88c0-1.91-.45-3.56-1.35-4.95-.9-1.39-2.41-2.08-4.54-2.08-1.14,0-2.07.22-2.78.65-.71.44-1.28.98-1.72,1.63-.44.71-.74,1.51-.9,2.41-.16.9-.24,1.84-.24,2.82,0,1.14.04,2.1.12,2.86.08.76.29,1.44.61,2.04.33.6.8,1.12,1.43,1.55.62.44,1.48.87,2.57,1.31l6.38,2.53c1.85.71,3.35,1.54,4.49,2.49,1.14.95,2.04,2.06,2.7,3.31.6,1.31,1.01,2.79,1.23,4.45.22,1.66.33,3.56.33,5.68,0,2.45-.25,4.73-.74,6.82-.49,2.1-1.28,3.88-2.37,5.35-1.14,1.53-2.64,2.73-4.49,3.6-1.85.87-4.11,1.31-6.78,1.31-2.02,0-3.9-.36-5.64-1.06-1.74-.71-3.24-1.69-4.49-2.94-1.25-1.25-2.25-2.71-2.98-4.37-.74-1.66-1.1-3.47-1.1-5.43v-3.11h8.34v2.62c0,1.53.45,2.9,1.35,4.13.9,1.23,2.41,1.84,4.54,1.84,1.42,0,2.52-.2,3.31-.61.79-.41,1.4-.99,1.84-1.76.43-.76.69-1.68.78-2.74.08-1.06.12-2.25.12-3.56,0-1.52-.05-2.78-.16-3.76-.11-.98-.33-1.77-.65-2.37-.38-.6-.89-1.09-1.51-1.47-.63-.38-1.46-.79-2.49-1.23l-5.97-2.45c-3.6-1.47-6.01-3.42-7.23-5.84-1.23-2.42-1.84-5.46-1.84-9.11,0-2.18.3-4.25.9-6.21.6-1.96,1.5-3.65,2.7-5.07,1.14-1.42,2.6-2.55,4.37-3.39,1.77-.84,3.88-1.27,6.33-1.27,2.07,0,3.96.38,5.68,1.14,1.72.76,3.2,1.77,4.45,3.02,2.51,2.62,3.76,5.61,3.76,8.99v4.09Z"/>
          <path class="cls-3" d="m377.17,151.55v-50.35h-9.64v-7.85h27.62v7.85h-9.64v50.35h-8.34Z"/>
        </g>
        <g class="cls-1">
          <path class="cls-4" d="m4.74,152.03h167.11c5.37-.3,9.7-4.8,9.7-10.24V32.53c0-5.61-4.56-10.2-10.17-10.24H5.22c-5.61.03-10.17,4.63-10.17,10.24v109.23c0,5.47,4.32,9.97,9.7,10.27h0Z"/>
          <polygon class="cls-3" points="75.25 100.1 75.25 152.03 101.2 152.03 101.2 100.1 181.55 100.1 181.55 74.15 101.2 74.15 101.2 22.29 75.25 22.29 75.25 74.15 -4.95 74.15 -4.95 100.1 75.25 100.1"/>
          <path class="cls-5" d="m109.85,64.29V22.29h61.59c4.26.07,7.91,2.74,9.39,6.49l-70.98,35.51h0Z"/>
          <path class="cls-5" d="m109.85,110.03v42h62c4.09-.24,7.53-2.87,8.99-6.49l-70.98-35.51h0Z"/>
          <path class="cls-5" d="m66.61,110.03v42H4.74c-4.09-.24-7.57-2.87-8.99-6.55l70.85-35.44h0Z"/>
          <path class="cls-5" d="m66.61,64.29V22.29H5.15c-4.26.07-7.94,2.77-9.39,6.55l70.85,35.44h0Z"/>
          <polygon class="cls-5" points="-4.95 65.54 20.89 65.54 -4.95 52.6 -4.95 65.54"/>
          <polygon class="cls-5" points="181.55 65.54 155.56 65.54 181.55 52.53 181.55 65.54"/>
          <polygon class="cls-5" points="181.55 108.78 155.56 108.78 181.55 121.79 181.55 108.78"/>
          <polygon class="cls-5" points="-4.95 108.78 20.89 108.78 -4.95 121.72 -4.95 108.78"/>
          <polygon class="cls-3" points="181.55 33.27 117.18 65.54 131.58 65.54 181.55 40.53 181.55 33.27"/>
          <polygon class="cls-3" points="59.27 108.78 44.88 108.78 -4.95 133.72 -4.95 140.98 59.41 108.78 59.27 108.78"/>
          <polygon class="cls-3" points="30.59 65.57 44.98 65.57 -4.95 40.57 -4.95 47.8 30.59 65.57"/>
          <polygon class="cls-3" points="145.83 108.75 131.44 108.75 181.55 133.85 181.55 126.62 145.83 108.75"/>
        </g>
      </g>
    </g>
  </g>
</svg>